{"glyphs":{"0":{"ha":950,"x_min":0,"x_max":974,"o":"m 422 1106 q 295 1076 340 1106 q 228 976 250 1047 q 201 781 207 904 q 196 506 196 657 q 200 232 196 354 q 227 40 204 110 q 295 -60 250 -31 q 422 -90 340 -90 q 550 -60 504 -90 q 618 40 596 -31 q 645 232 640 110 q 650 506 650 354 q 645 781 650 657 q 618 976 640 904 q 550 1076 596 1047 q 422 1106 504 1106 m 3 1200 l 1 1200 l 8 788 l 10 788 l 10 796 l 3 1200 m 35 -256 l 35 -262 l 106 -260 l 104 -262 l 190 -257 l 603 -240 l 188 -251 l 100 -258 l 100 -254 l 35 -256 m 35 -256 l 28 -256 l 28 -247 l 29 -144 l 28 -144 q 24 -174 25 -144 l 10 788 l 31 789 l 33 454 l 32 -206 q 35 -185 33 -185 l 38 -185 l 35 -256 m 950 657 l 808 653 q 811 508 811 585 q 795 147 811 292 q 744 -85 779 1 q 635 -206 710 -171 q 422 -242 560 -242 q 211 -206 286 -242 q 101 -83 136 -171 q 52 148 67 4 q 38 508 38 292 q 52 869 38 725 q 101 1100 67 1014 q 174 1200 128 1164 l 3 1200 l 3 1218 l 4 1218 l 4 1214 l 200 1217 q 211 1224 206 1221 l 631 1225 l 738 1228 l 774 1229 l 761 1056 l 715 657 l 967 663 l 967 657 l 956 657 l 974 -119 l 969 -119 l 967 -171 l 967 -206 l 968 -228 l 603 -240 l 951 -222 l 951 -183 l 956 -146 l 960 -146 l 950 657 m 763 1204 l 669 1203 q 744 1100 718 1165 q 754 1064 750 1088 l 763 1204 z "},"1":{"ha":754,"x_min":15,"x_max":985,"o":"m 33 578 l 28 1111 l 25 1176 l 26 1176 l 17 1250 l 22 1336 l 746 1325 l 728 1325 l 747 910 l 757 1326 l 775 1328 l 756 850 l 765 850 l 768 828 l 768 821 l 769 814 l 600 815 l 600 781 l 610 -97 l 606 -97 l 103 -135 l 103 -132 l 42 -137 l 33 578 l 39 579 l 47 -122 l 99 -118 l 51 54 l 50 183 l 53 96 l 107 -107 l 606 -69 l 594 839 l 654 836 l 654 853 l 742 850 l 721 1325 l 728 1325 l 32 1328 l 25 1229 l 36 1178 l 364 1235 l 396 104 l 240 100 l 213 1101 l 29 1067 l 38 725 l 39 579 l 33 578 m 954 -60 q 975 -37 954 -40 l 985 -39 q 953 -71 967 -71 l 954 -60 z "},"2":{"ha":810,"x_min":8,"x_max":813,"o":"m 704 1128 l 729 1124 l 726 1126 l 704 1128 m 43 1115 l 46 1115 l 44 1118 l 43 1118 l 43 1115 m 61 457 q 75 486 68 472 q 181 614 111 546 q 326 738 251 682 q 416 876 400 794 q 369 1000 432 958 q 222 1006 306 1042 q 153 824 139 971 l 60 829 q 98 1014 63 964 q 183 1089 133 1064 q 308 1110 233 1114 q 434 1070 382 1107 q 506 977 486 1033 q 513 849 525 921 q 443 719 500 778 q 308 595 386 661 q 188 477 231 529 q 126 350 144 425 l 471 331 l 465 228 l 72 249 l 72 246 l 79 247 l 32 -157 l 35 -160 l 57 -160 l 756 -189 q 796 233 797 156 l 789 232 l 731 1113 l 46 1115 l 743 1144 l 742 1107 l 810 269 l 811 269 l 764 -161 l 765 -185 l 765 -200 l 242 -175 l 242 -210 q 229 -203 233 -206 q 226 -207 228 -204 l 222 -207 l 207 -199 q 219 -185 214 -189 l 221 -174 l 18 -169 l 19 -131 l 8 -131 l 54 196 l 53 250 l 49 428 l 32 1078 l 31 1101 l 31 1115 l 43 1115 q 61 457 53 682 z "},"3":{"ha":932,"x_min":-31,"x_max":1107,"o":"m 504 1254 q 697 1201 619 1246 q 824 1058 788 1151 q 849 824 860 964 q 713 556 818 596 q 869 246 851 476 l 864 179 q 824 -54 860 39 q 692 -201 788 -147 l 679 -208 l 1060 -231 l 1060 -178 l 929 -217 l 833 -210 l 899 -212 l 1051 -168 l 1085 1218 l 504 1254 m 65 -179 l 53 -179 l -21 -178 l -21 -149 l 25 1306 l -28 -158 l -29 -186 l 107 -182 l 65 -179 m 121 -182 l 168 -183 q 85 -83 118 -147 q 50 254 35 14 l 349 254 q 350 149 349 200 q 369 63 351 97 q 439 26 386 29 q 525 66 492 24 q 548 274 558 108 q 285 431 538 440 l 285 656 q 376 660 331 653 q 535 788 522 678 q 522 953 547 915 q 458 997 497 992 q 388 980 419 1003 q 352 908 356 957 q 349 808 349 860 l 54 808 q 98 1104 44 1025 q 240 1221 151 1183 q 389 1254 301 1247 l 285 1269 l 336 1260 l 25 1307 l 28 1307 l 157 1290 l 24 1311 l 24 1319 l 222 1282 l 388 1260 q 404 1272 389 1271 l 414 1272 l 414 1265 q 413 1257 414 1260 l 1100 1236 l 1100 1224 l 1106 1225 l 1072 -174 l 1071 -174 l 1071 -237 l 667 -214 l 172 -186 l 107 -182 l 121 -182 m 406 1319 q 422 1303 419 1318 l 422 1296 q 397 1319 397 1310 l 406 1319 m 65 -179 l 51 -179 l 118 -182 l 65 -179 z "},"4":{"ha":914,"x_min":22,"x_max":1113,"o":"m 458 363 l 460 751 l 301 363 l 458 363 m 217 97 q 232 -229 224 -57 l 217 97 m 29 1242 l 24 1243 l 25 578 l 29 1242 m 96 -210 l 97 -217 l 97 -210 l 96 -210 m 186 761 l 163 1240 q 185 760 165 1196 l 186 761 m 1071 594 l 1113 -243 l 1108 -242 l 1107 -240 l 728 -240 l 728 -242 l 456 -242 l 456 -240 l 239 -242 l 99 -244 l 92 -244 l 92 -239 l 97 -239 l 97 -228 l 99 -222 l 100 -222 l 99 -239 l 233 -237 l 232 -229 q 233 -237 232 -233 l 240 -237 l 456 -236 l 458 97 l 217 97 l 186 761 l 378 1247 l 163 1244 l 25 1243 l 24 1253 l 382 1254 l 382 1257 l 906 1257 l 875 635 l 874 606 l 876 603 l 1089 621 l 1089 596 l 1071 594 m 68 97 l 42 399 l 26 578 l 33 578 l 46 410 l 185 760 q 217 97 197 499 l 72 97 l 96 -210 l 96 -217 l 68 97 m 900 1251 l 732 1250 l 732 363 l 867 363 l 867 97 l 731 97 l 728 -235 l 1106 -233 l 1064 593 l 915 574 l 915 588 l 868 589 l 900 1251 z "},"5":{"ha":863,"x_min":-10,"x_max":950,"o":"m 876 406 l 760 407 l 818 46 l 810 47 q 806 -179 804 -22 l 665 -186 q 776 -39 736 -137 q 788 -7 782 -24 l 788 101 l 789 101 l 735 367 l 749 365 l 746 413 l 814 411 q 726 650 797 569 q 520 765 632 756 q 324 729 408 775 l 333 1004 l 761 1004 l 758 1261 l 79 1261 l 53 442 l 344 442 q 449 506 381 529 q 519 292 517 482 q 494 59 521 101 q 415 19 467 17 q 349 73 364 21 q 334 178 333 125 q 335 265 335 232 l 50 265 q 89 -76 33 22 q 214 -204 139 -167 l 231 -211 q 247 -217 238 -214 l -8 -225 l -8 -208 l -1 -208 l -1 -210 l 6 -210 l 6 -160 l -1 -160 l 6 1283 l 6 1307 l 867 1344 l 867 1282 l 874 1282 l 872 869 l 900 1075 l 950 1075 l 876 411 l 876 410 l 876 406 z "},"6":{"ha":744,"x_min":8,"x_max":743,"o":"m 630 419 q 625 315 630 419 q 559 151 621 210 q 415 105 497 93 q 301 203 333 117 q 276 415 268 290 q 335 606 283 540 q 513 650 386 671 q 630 419 639 629 m 704 564 q 656 667 690 631 q 481 742 589 738 q 294 651 374 746 q 317 869 299 775 q 379 994 335 963 q 481 1022 424 1026 q 576 994 538 1017 q 625 926 614 972 q 626 796 636 881 l 706 792 q 690 985 718 924 q 608 1074 661 1047 q 483 1106 556 1101 q 351 1081 410 1110 q 263 984 292 1051 q 219 790 233 917 q 195 461 204 664 q 225 167 186 258 q 325 49 264 76 q 454 22 386 21 q 576 57 522 24 q 665 161 631 90 q 683 215 675 182 l 700 -89 l 10 -94 l 10 1271 l 742 1249 l 704 564 z "},"7":{"ha":607,"x_min":-42,"x_max":564,"o":"m 51 1139 l 404 1139 l 157 224 l 300 224 l 550 1139 l 550 1258 l 51 1258 l 51 1139 m -17 282 l 169 381 l 165 382 l 172 386 l -17 510 l -17 1315 l 564 1315 l 564 99 l -17 99 l -17 282 m -42 497 l 131 382 l -42 289 l -42 497 z "},"8":{"ha":788,"x_min":17,"x_max":1025,"o":"m 233 1126 q 169 939 169 1064 q 233 751 169 814 q 370 692 293 689 q 501 750 447 696 q 564 938 564 814 q 501 1126 564 1061 q 360 1183 438 1189 q 233 1126 283 1178 m 514 118 q 582 322 582 188 q 514 524 582 456 q 373 586 456 582 q 225 522 290 590 q 156 319 156 453 q 225 117 156 186 q 362 57 278 63 q 514 118 446 51 m 18 1221 l 17 1221 l 25 840 l 25 849 l 18 1221 m 240 -125 l 596 -126 l 1004 -124 l 1004 -110 l 1003 -86 l 1008 -53 l 1011 -53 l 1001 876 l 989 876 l 992 1193 l 986 1192 l 988 1194 l 547 1206 q 622 1110 590 1169 q 663 938 663 1036 q 622 765 663 840 q 526 653 582 690 q 515 644 519 649 q 540 631 526 639 q 644 508 600 589 q 688 322 688 428 q 644 135 688 215 q 540 15 600 56 q 422 -35 479 -26 q 311 -35 364 -43 q 264 -22 288 -32 l 240 -125 m 240 67 l 140 65 l 139 67 l 38 63 l 38 65 l 25 840 l 44 840 l 47 532 l 47 68 l 135 72 q 93 135 113 100 q 50 321 50 215 q 94 507 50 426 q 197 629 138 588 q 222 643 211 636 q 208 654 217 649 q 113 767 153 692 q 72 939 72 842 q 113 1111 72 1036 q 197 1215 149 1178 l 18 1221 l 18 1238 l 19 1238 l 19 1233 l 518 1226 l 978 1221 l 1003 1219 l 1007 886 l 1003 886 l 1025 -28 l 1021 -28 l 1018 -75 l 1019 -108 l 1019 -129 l 597 -126 l 239 -129 l 239 -131 l 206 -129 l 240 67 z "},"9":{"ha":629,"x_min":36,"x_max":603,"o":"m 314 1078 q 348 1075 314 1078 q 413 1003 382 1072 q 445 830 444 933 q 406 670 446 726 q 262 624 367 614 q 153 807 157 633 q 198 1032 150 981 q 314 1078 246 1083 m 217 264 l 44 263 l 36 1281 l 594 1285 l 603 267 l 394 265 q 418 278 407 271 q 485 361 465 304 q 511 524 506 418 q 514 797 517 629 q 474 1037 511 964 q 385 1130 438 1110 q 277 1145 333 1150 q 178 1110 221 1140 q 111 1019 136 1079 q 86 808 86 960 q 145 602 86 657 q 293 549 204 547 q 442 633 382 551 q 435 454 444 532 q 390 347 425 376 q 308 319 356 318 q 227 336 260 319 q 183 390 194 353 q 175 497 172 426 l 110 497 q 133 338 107 388 q 206 269 160 289 l 217 264 z "},"\r":{"ha":656,"x_min":0,"x_max":0,"o":""}," ":{"ha":210,"x_min":0,"x_max":0,"o":""},"!":{"ha":403,"x_min":-24,"x_max":399,"o":"m 57 332 l 57 1158 l 243 1158 l 243 332 l 57 332 m 56 249 l 243 249 l 243 60 l 56 60 l 56 249 m 392 1111 l 389 1254 l -10 1256 l -22 13 l -22 1 l -22 0 l 19 1 l 19 -1 q 386 -1 39 -4 l 392 1111 m 386 -7 l 383 -7 l 381 -6 l 14 -10 l -17 -11 l -17 -6 l -22 -7 l -11 1257 l -1 1257 l 392 1265 l 392 1260 l 397 1261 l 386 -7 z "},"\"":{"ha":639,"x_min":-4,"x_max":579,"o":"m 131 1201 l 269 1193 l 239 674 l 100 682 l 131 1201 m 388 1186 l 526 1178 l 496 658 l 358 667 l 388 1186 m 563 -204 l 560 -204 l 556 -203 l 47 -208 l 47 -208 l 4 -210 l 4 -203 l -3 -204 l 13 1265 l 17 1265 l 26 1265 l 572 1275 l 572 1269 l 579 1269 l 563 -204 m 571 1094 l 568 1263 l 14 1264 l -3 -181 l -3 -194 l -1 -197 l 56 -194 l 56 -199 q 563 -197 82 -201 l 571 1094 z "},"#":{"ha":933,"x_min":-28,"x_max":950,"o":"m -15 -151 l -18 -157 l -18 -161 l -12 -161 l -8 -162 q -15 -151 -12 -157 m 328 724 l 239 350 l 614 350 l 703 724 l 328 724 m 901 -219 l 901 -217 l 904 -217 l 904 -219 l 901 -219 m 575 188 l 594 271 l 221 271 l 206 206 l 575 188 m 925 724 l 786 724 l 697 350 l 868 350 l 857 271 l 679 271 l 658 183 l 903 172 l 925 724 m 883 1135 l 804 804 l 929 804 l 938 1035 l 942 1132 l 883 1135 m 806 1143 l 885 1143 l 885 1139 l 949 1136 l 949 1128 l 942 1035 l 944 1035 q 949 1060 946 1035 l 915 194 l 901 -219 l 900 -219 l 900 -217 l -4 -167 l -28 -165 l 17 1078 l 19 1078 l 26 1125 l 26 1158 l 28 1178 l 806 1143 m 15 350 l 156 350 l 244 724 l 63 724 l 74 804 l 263 804 l 343 1143 l 426 1143 l 346 804 l 721 804 l 800 1139 l 35 1174 q 29 1078 38 1161 l 46 1078 l 15 350 m 122 210 l 136 271 l 13 271 l 10 215 l 122 210 m 119 197 l 122 208 l 7 215 l 3 201 l 119 197 m 657 181 l 657 178 l 832 171 l 657 181 m 832 171 l 903 168 l 657 176 l 590 -101 l 507 -101 l 574 181 l 203 194 l 132 -101 l 49 -101 l 119 197 l 3 201 l 1 201 l -18 -149 l -12 -146 l -14 -149 l 900 -211 l 914 233 q 908 217 910 226 l 906 218 l 904 172 l 832 171 m 574 181 l 575 185 l 204 204 l 203 194 l 574 181 z "},"$":{"ha":733,"x_min":-17,"x_max":726,"o":"m 413 715 q 311 778 356 744 q 231 858 254 819 q 206 955 208 897 q 228 1068 203 1013 q 303 1154 253 1124 q 436 1186 353 1185 l 447 1186 l 447 1189 q -14 1185 371 1189 l -6 -32 l -6 -51 l -4 -54 l 724 -49 l 714 1168 l 714 1188 l 713 1190 l 496 1183 q 568 1165 538 1179 q 649 1092 617 1142 q 671 903 682 1042 l 568 903 q 562 1022 572 964 q 485 1096 551 1079 l 482 1096 l 482 800 q 542 768 513 783 q 651 678 610 732 q 698 538 692 624 q 679 395 704 451 q 601 306 654 339 q 482 272 556 278 l 482 210 l 413 210 l 413 272 q 307 296 344 276 q 224 367 257 319 q 196 589 190 415 l 301 589 l 301 522 q 328 404 307 429 q 413 364 350 376 l 413 715 m 482 361 q 544 393 518 368 q 585 508 586 438 q 550 621 583 579 q 482 678 526 651 l 482 361 m 413 1100 q 368 1082 389 1096 q 313 978 318 1053 q 390 854 308 904 l 413 840 l 413 1100 m 472 1203 l 694 1208 l 694 1199 l 717 1200 l 725 -58 l 717 -60 l 703 -57 l -7 -64 l -17 1194 l -8 1194 l 6 1193 l 472 1203 z "},"%":{"ha":957,"x_min":-14,"x_max":922,"o":"m 721 593 q 660 578 682 593 q 627 529 638 564 q 614 435 617 494 q 611 301 611 375 q 613 170 611 229 q 626 76 615 111 q 660 28 638 42 q 721 14 682 14 q 783 28 761 14 q 816 76 806 42 q 829 170 826 111 q 832 301 832 229 q 829 435 832 375 q 816 529 826 494 q 783 578 806 564 q 721 593 761 593 m 226 1054 q 165 1040 188 1054 q 133 990 143 1025 q 119 896 122 956 q 117 763 117 836 q 119 631 117 690 q 132 538 121 572 q 165 489 143 503 q 226 475 188 475 q 289 489 267 475 q 322 538 311 503 q 335 631 332 572 q 338 763 338 690 q 335 896 338 836 q 322 990 332 956 q 289 1040 311 1025 q 226 1054 267 1054 m 721 667 q 824 649 788 667 q 876 590 860 632 q 901 478 893 547 q 908 304 908 408 q 901 128 908 199 q 876 17 893 58 q 824 -42 860 -25 q 721 -60 788 -60 q 619 -42 656 -60 q 566 17 583 -25 q 542 129 549 60 q 535 304 535 199 q 542 478 535 408 q 566 590 549 547 q 619 649 583 632 q 721 667 656 667 m 226 1128 q 329 1110 293 1128 q 382 1051 365 1093 q 406 939 399 1008 q 414 765 414 869 q 406 590 414 660 q 382 478 399 519 q 329 419 365 436 q 226 401 293 401 q 125 419 161 401 q 72 478 89 436 q 47 590 54 521 q 40 765 40 660 q 47 939 40 869 q 72 1051 54 1008 q 125 1110 89 1093 q 226 1128 161 1128 m -1 -194 l 57 -196 l 57 -199 l 136 -196 l 511 -199 l 139 -200 l 61 -204 l 61 -201 l -1 -201 l -1 -194 m -11 1146 l -12 1146 l -11 767 l -11 1146 m 685 1124 l 353 -72 l 258 -72 l 590 1125 l 661 1125 l -11 1146 l -11 1163 l -10 1163 l -10 1158 l 896 1144 l 918 1143 l 918 810 l 914 810 l 922 -101 l 919 -101 l 915 -149 l 915 -201 l 511 -199 l 901 -196 l 901 -160 l 906 -126 l 908 -126 l 913 801 l 901 801 l 907 1117 l 903 1114 l 904 1118 l 685 1124 m -1 -194 l -7 -194 l -7 -186 l -4 -92 l -7 -92 q -10 -118 -8 -92 l -11 767 l 8 767 l 6 458 l -3 -149 q 0 -129 -1 -129 l 1 -129 l -1 -194 z "},"&":{"ha":1013,"x_min":-12,"x_max":1096,"o":"m 296 714 q 506 987 506 858 q 415 1155 507 1115 q 233 1140 322 1194 q 167 966 144 1086 q 296 714 189 846 m 622 201 l 282 638 q 101 229 35 435 q 353 38 167 24 q 622 201 540 53 m 886 -25 l 801 -25 l 663 144 q 421 -21 565 3 q 182 2 276 -44 q 38 175 88 49 q 36 436 -11 301 q 244 686 83 571 q 97 981 113 835 q 202 1191 82 1128 q 446 1201 322 1254 q 567 985 569 1147 q 333 671 565 822 l 657 251 q 671 786 790 504 l 732 786 q 706 203 857 485 l 886 -25 m 739 -17 q 1069 -21 825 -19 l 1090 1226 l 1092 1250 l 1089 1254 q 32 1269 619 1261 l 10 22 l 10 -1 l 13 -6 l 740 -8 l 739 -17 m 1096 1267 l 1072 -33 l 1056 -33 l 1031 -31 l 690 -35 l 690 -32 l 47 -29 l 47 -17 l 6 -18 l 29 1282 l 44 1282 l 71 1279 l 1096 1267 z "},"⅋":{"ha":1018,"x_min":-103,"x_max":988,"o":"m 110 1039 q -76 1040 32 1039 l -99 -207 l -99 -231 l -96 -235 q 961 -250 372 -242 l 976 669 q 957 583 972 628 q 749 333 908 449 q 895 39 879 186 q 791 -172 911 -108 q 547 -181 671 -235 q 425 35 422 -128 q 660 349 428 197 l 336 769 q 322 233 203 515 l 260 233 q 288 817 135 535 l 110 1039 m 369 818 l 711 382 q 892 790 957 585 q 640 982 826 996 q 369 818 453 968 m 697 306 q 486 33 488 161 q 578 -135 485 -96 q 759 -121 671 -175 q 825 53 847 -67 q 697 306 803 174 m 978 744 l 982 997 l 983 1021 l 981 1025 l 793 1025 q 811 1018 803 1022 q 954 844 904 971 q 978 744 974 794 m 194 1038 l 329 875 q 518 1026 408 990 l 253 1028 l 254 1036 q 194 1038 231 1036 m -103 -247 l -79 1053 l -64 1053 l -37 1050 l 303 1054 l 303 1051 l 946 1049 l 946 1038 l 988 1038 l 964 -262 l 949 -262 l 922 -260 l -103 -247 z "},"ɐ":{"ha":764,"x_min":-154,"x_max":769,"o":"m 746 910 l 753 1044 l 749 983 q 746 910 750 982 m 681 74 l 688 236 q 675 233 681 221 q 667 217 671 225 q 585 133 640 160 q 431 111 529 106 q 307 168 351 117 q 303 90 303 108 q 306 31 303 71 q 338 -28 308 -10 q 410 -44 368 -46 q 478 -14 451 -42 q 501 82 504 14 l 681 74 m 465 556 q 455 565 465 556 q 417 575 444 574 q 367 562 390 576 q 332 510 344 547 q 315 397 319 472 q 337 294 310 322 q 397 264 364 265 q 454 280 431 263 q 490 325 478 297 q 505 415 501 353 q 497 508 508 478 q 465 556 486 538 m 718 993 q 731 1000 725 1013 q 733 1044 732 1021 l 707 1044 l 718 993 m 11 -11 q -11 -154 1 -82 l 3 -154 l 3 -139 l 6 -106 l 11 -11 m 19 -154 l 46 -156 l 51 200 l 19 -154 m 565 -176 l 657 -179 l 668 -179 l 669 -176 l 676 -29 q 656 -83 668 -58 q 565 -176 624 -144 m 693 783 q 713 969 703 917 l 699 1035 l 89 1043 l 121 886 l 106 888 l 63 339 l 63 324 l 65 326 l 75 274 l 69 272 q 61 289 67 282 l 53 -156 l 210 -157 q 133 -70 157 -124 q 108 46 108 -17 q 117 269 107 108 l 140 722 l 306 714 l 304 668 q 456 728 353 729 q 558 715 517 726 l 693 783 m 724 544 l 715 379 l 714 331 l 725 542 l 724 544 m 79 1189 l 68 1189 l 67 1186 q 71 1117 69 1153 l 72 1140 l 78 1140 l 79 1189 m 732 539 l 696 -85 l 693 -133 l 689 -132 l 686 -185 l 53 -161 l 53 -164 l 44 -164 l 44 -160 l 19 -160 l 18 -162 l -19 -161 l 22 217 l 17 217 l 11 232 q 25 253 25 232 l 25 253 l 71 1117 l 75 1061 l 85 1061 l 83 1068 l 704 1060 l 704 1057 l 735 1057 q 751 1250 742 1142 l 81 1189 l 81 1193 l 769 1254 l 768 1233 l 765 1201 l 754 1057 l 761 1057 l 747 810 l 749 811 l 746 781 l 529 674 l 735 547 l 733 538 l 732 539 m -62 838 l -62 817 q -85 797 -62 806 l -99 824 l -62 838 m -125 790 l -112 794 l -107 794 l -107 772 q -125 790 -115 772 m -126 435 l -125 443 q -112 456 -124 457 l -106 456 l -106 449 q -119 433 -106 433 l -126 435 m -153 443 l -153 450 q -133 428 -143 449 l -140 428 q -153 443 -153 431 m -122 997 l -122 1017 q -103 1038 -122 1029 l -86 1013 l -122 997 m -65 1054 l -78 1047 l -83 1047 l -85 1074 q -65 1054 -76 1075 m -92 565 l -92 594 l -74 593 l -74 582 q -92 565 -74 572 m 1 735 l -14 729 l -19 729 q -26 756 -26 753 l -19 756 q 1 735 -10 756 m 6 1081 l 6 1075 q -6 1064 4 1064 l -6 1069 q 6 1081 -7 1081 m 1 979 l -12 931 l -28 931 q -37 957 -26 946 q -12 964 -21 964 l -11 999 l -19 1013 l -4 1013 l 1 979 z "},"Ā":{"ha":1347,"x_min":33,"x_max":1293,"o":"m 697 1153 q 760 1140 726 1144 q 776 1143 769 1143 q 801 1138 781 1143 q 819 1139 817 1139 q 897 1108 838 1128 q 1021 1061 944 1085 q 1046 1029 1033 1051 q 1139 936 1051 1029 q 1218 857 1153 932 q 1229 839 1229 847 l 1228 831 q 1263 724 1240 803 q 1289 692 1265 711 l 1293 682 q 1288 660 1288 664 l 1288 635 q 1285 586 1288 619 l 1289 544 l 1289 497 l 1283 432 l 1283 424 q 1288 382 1283 410 q 1196 189 1267 321 q 1131 74 1139 83 q 1004 -11 1128 74 q 938 -53 1001 -11 q 861 -78 896 -62 q 757 -90 793 -90 q 638 -111 697 -111 q 624 -117 638 -112 l 549 -100 q 528 -107 546 -100 q 411 -57 510 -107 q 336 -24 336 -40 q 261 36 285 28 q 189 89 208 86 q 158 122 186 96 q 115 203 158 146 q 44 342 86 257 q 47 357 47 349 q 38 375 38 365 q 42 419 42 408 l 42 433 q 33 483 39 475 l 47 613 q 76 690 76 644 q 103 781 88 713 q 118 842 118 808 q 144 879 124 844 q 242 979 150 881 q 311 1036 246 979 q 388 1085 349 1053 q 549 1147 518 1147 q 697 1153 658 1153 m 353 994 l 353 992 q 432 947 375 968 q 449 939 438 939 q 569 969 458 939 q 690 997 647 997 q 724 1029 724 1007 q 743 1075 743 1071 l 743 1081 q 650 1093 743 1089 q 528 1082 528 1093 q 471 1056 489 1067 q 369 1007 390 1007 q 353 994 353 997 m 740 1011 l 740 1006 q 838 988 740 993 q 921 989 886 989 l 922 992 q 885 1026 922 1001 q 819 1071 858 1063 q 779 1079 788 1079 l 772 1079 q 740 1011 763 1075 m 915 1029 l 915 1024 q 957 986 954 986 l 964 986 q 975 1003 975 994 l 975 1008 q 915 1029 975 1018 m 979 960 l 979 958 q 1032 883 979 944 q 1074 817 1032 868 q 1099 768 1079 810 q 1169 718 1119 749 q 1185 710 1178 710 l 1189 710 q 1192 713 1192 710 q 1157 829 1181 774 q 1072 913 1114 882 q 1001 989 1063 929 l 997 989 q 988 967 994 989 q 979 960 982 967 m 767 975 l 767 974 q 796 951 767 968 q 846 885 810 928 q 883 842 871 842 q 907 881 892 842 q 953 960 939 926 q 904 976 953 976 l 903 976 q 836 975 847 975 q 775 981 799 976 q 767 975 768 978 m 479 921 l 479 917 q 551 858 483 910 q 615 814 601 814 q 669 915 628 814 q 692 975 679 931 q 688 979 692 976 q 494 931 649 968 q 479 921 482 925 m 736 979 q 735 978 736 978 q 742 971 736 974 q 743 974 742 974 q 736 979 742 978 m 271 847 l 271 846 q 275 840 271 843 q 340 888 281 840 q 399 926 346 888 q 400 933 400 929 q 338 969 396 940 l 336 969 q 311 924 325 965 q 271 847 283 892 m 640 814 q 644 810 642 810 l 647 810 q 788 824 686 815 q 804 821 796 821 l 806 821 q 864 831 860 821 l 828 879 q 742 947 806 924 q 715 969 721 967 l 713 969 q 689 917 707 969 q 640 814 660 860 m 188 825 l 188 821 q 215 807 188 814 q 268 889 231 807 q 296 933 296 926 l 296 935 q 293 938 296 938 q 193 842 285 938 q 188 825 188 833 m 907 839 l 907 835 q 928 811 924 821 q 1064 771 978 788 l 1065 774 l 1065 776 q 992 885 1065 790 q 967 921 978 911 l 961 921 q 918 867 932 892 q 907 839 910 850 m 247 800 q 296 771 254 792 q 392 714 369 714 q 407 774 407 714 q 425 917 425 847 l 422 919 l 421 919 q 319 851 407 915 q 256 814 294 832 q 247 800 247 808 m 424 731 l 424 729 q 428 724 424 726 l 431 724 q 511 754 458 731 q 603 794 603 778 q 546 842 603 800 q 456 915 542 849 l 450 915 q 442 851 446 915 q 424 731 435 818 m 896 821 l 893 817 l 893 814 q 897 808 893 811 l 901 808 l 901 817 q 896 821 901 819 m 588 544 q 636 508 588 531 q 736 458 672 486 q 817 421 743 444 q 921 501 828 426 l 1001 586 l 1001 588 q 969 647 979 638 q 896 785 939 686 q 863 804 888 804 l 851 804 q 663 792 767 796 q 629 768 629 785 q 588 544 614 715 m 158 721 l 161 721 q 203 782 188 742 l 203 783 q 182 799 194 799 q 158 733 174 799 l 158 721 m 925 786 q 1000 651 969 683 q 1017 624 1014 624 l 1021 624 q 1072 697 1044 646 l 1096 731 l 1096 735 q 1018 767 1093 742 q 932 792 963 778 l 929 792 q 925 786 928 792 m 124 579 q 158 476 131 549 l 179 383 q 189 381 185 381 q 283 417 250 417 q 342 447 342 440 q 343 453 343 447 q 367 617 349 511 l 372 683 q 331 718 372 703 q 239 776 260 772 l 233 776 q 183 713 228 774 q 132 626 132 667 q 124 579 126 626 m 403 689 l 403 682 q 497 613 442 649 l 556 563 l 558 563 q 567 592 567 567 l 567 594 q 565 601 567 599 l 594 760 l 594 761 q 590 764 590 764 l 586 764 l 486 732 q 415 704 464 718 q 403 689 403 690 m 1031 600 l 1032 592 q 1031 576 1031 583 q 1151 517 1124 517 l 1153 517 q 1161 526 1160 519 q 1133 646 1161 557 l 1117 718 l 1114 719 q 1081 679 1103 719 q 1031 604 1060 646 l 1031 600 m 1206 719 l 1206 714 q 1214 700 1206 700 l 1215 703 l 1215 708 q 1206 719 1208 719 m 1139 703 l 1139 700 q 1178 556 1150 638 q 1179 554 1179 556 q 1221 650 1190 554 l 1221 651 q 1190 686 1221 658 q 1146 708 1182 686 q 1139 703 1139 706 m 369 463 q 375 454 372 454 q 503 518 388 454 q 546 542 546 532 q 468 613 538 561 q 404 657 425 642 l 401 657 q 390 600 394 657 q 369 463 369 489 m 1013 538 l 1013 481 q 1018 353 1013 471 l 1018 340 q 1022 331 1018 331 l 1024 331 q 1076 385 1040 333 q 1139 465 1118 428 q 1151 486 1151 476 q 1051 538 1151 496 q 1022 551 1029 551 l 1019 551 q 1013 538 1013 549 m 1197 478 q 1213 463 1201 467 q 1222 494 1222 463 l 1222 529 l 1221 540 l 1215 540 q 1197 478 1197 517 m 815 388 l 815 385 q 904 357 819 375 q 990 324 938 338 l 992 324 l 999 328 q 997 360 997 350 l 997 382 q 992 497 992 485 l 992 529 q 988 533 992 532 l 985 533 q 861 432 899 446 l 815 388 m 358 424 q 465 357 363 417 q 540 310 508 319 l 543 310 q 561 433 551 310 q 567 489 567 457 l 567 499 q 542 521 554 521 q 392 446 499 503 q 358 424 358 436 m 593 519 l 592 517 l 592 515 q 603 508 594 508 l 606 508 l 606 511 q 593 519 599 519 m 567 303 q 581 289 569 289 q 656 329 585 289 q 772 390 714 353 l 772 394 q 642 460 757 417 q 596 481 600 481 l 593 481 q 571 336 582 481 q 567 303 568 336 m 990 128 l 990 125 q 996 121 990 122 l 999 121 q 1086 154 1004 121 q 1131 203 1115 154 q 1203 350 1150 228 q 1217 385 1217 372 q 1178 457 1217 426 l 1171 457 q 1101 374 1153 440 q 1025 275 1025 303 q 1003 150 1022 150 q 990 128 990 142 m 122 454 l 119 446 q 132 364 119 364 q 156 361 149 361 l 160 368 q 124 454 135 439 l 122 454 m 193 356 l 193 353 q 224 308 215 319 q 340 211 283 264 l 343 211 q 349 221 349 213 l 349 222 q 329 413 349 413 q 326 414 329 414 q 196 358 200 364 l 193 356 m 363 394 l 360 389 q 367 292 367 340 l 367 208 q 372 201 367 206 l 374 201 q 526 263 492 246 q 544 281 544 271 l 544 283 q 481 324 539 294 q 367 394 433 361 l 363 394 m 103 374 q 107 369 103 372 q 113 374 110 369 l 113 376 l 111 388 l 107 388 q 103 374 103 386 m 590 272 l 590 271 q 656 228 601 257 l 710 199 q 768 171 765 171 l 775 171 q 786 283 783 171 l 786 361 q 779 372 786 369 l 776 372 q 683 325 743 358 q 590 272 594 285 m 808 364 q 806 360 806 361 q 807 289 806 342 l 800 179 l 804 178 l 806 178 q 875 224 810 178 q 939 256 929 249 q 993 300 969 278 l 993 304 q 929 328 993 308 q 811 364 892 350 l 808 364 m 124 338 q 189 217 129 311 q 193 214 192 214 q 196 219 196 218 q 175 336 183 267 q 136 350 161 350 l 135 350 q 124 338 124 350 m 204 304 l 203 300 l 203 297 q 233 144 203 260 q 371 68 264 110 q 392 58 385 58 l 394 58 q 399 61 399 58 l 339 176 l 340 179 l 340 186 q 239 281 283 250 q 204 304 208 304 m 829 157 q 911 117 832 149 q 938 104 926 104 l 943 104 q 965 132 963 104 q 993 261 986 200 q 988 265 993 265 q 907 210 954 250 q 838 167 860 178 q 829 157 829 163 m 374 165 q 418 124 388 124 l 453 114 l 453 113 q 449 108 453 108 q 421 113 424 113 q 411 104 414 110 l 411 103 q 467 17 421 68 q 553 4 479 11 q 593 6 563 4 q 692 -6 636 -6 q 724 25 724 -6 q 772 133 746 63 l 772 139 q 665 196 772 146 q 607 228 656 204 q 564 254 574 254 q 465 214 558 254 q 374 169 374 183 l 374 165 m 751 18 l 751 13 q 754 10 751 10 l 758 10 q 883 74 768 10 q 913 94 913 82 q 818 139 903 108 q 810 140 818 140 q 776 72 800 140 q 751 18 751 21 m 974 104 q 975 100 975 101 l 976 100 q 981 104 978 100 q 978 107 981 107 l 976 107 q 974 104 974 107 m 932 26 l 932 25 l 935 25 q 1032 90 968 36 l 1032 93 l 1024 93 q 943 44 986 90 q 932 26 932 32 m 765 -10 q 775 -12 771 -12 l 790 -12 q 833 -17 799 -12 l 840 -17 q 903 15 903 0 q 935 64 903 21 q 938 74 938 69 q 933 79 938 76 q 793 10 918 79 q 765 -10 765 -1 m 485 -14 q 574 -35 499 -19 q 629 -49 606 -49 l 642 -49 q 667 -32 653 -49 l 667 -31 q 619 -19 667 -24 q 594 -14 619 -17 q 553 -15 557 -15 q 506 -10 546 -15 l 501 -10 q 485 -14 485 -10 m 682 -42 q 688 -46 682 -43 l 692 -46 q 742 -31 742 -35 l 742 -28 q 726 -22 739 -22 l 718 -22 q 682 -42 682 -32 z "},"'":{"ha":399,"x_min":32,"x_max":435,"o":"m 99 1188 l 99 1192 l 260 1192 l 260 1190 l 429 1193 l 429 1189 l 435 1190 l 424 261 l 421 261 l 418 263 l 67 258 l 67 260 l 38 258 l 38 263 l 33 263 l 44 1188 l 99 1188 m 99 1186 l 44 1186 l 33 276 l 33 267 l 74 268 l 74 265 q 424 265 92 264 l 429 1079 l 426 1185 l 260 1186 l 260 696 l 99 696 l 99 1186 z "},"(":{"ha":393,"x_min":-10,"x_max":407,"o":"m 4 -314 l 4 -321 l 32 -318 l 32 -321 l 65 -315 l 228 -297 l 64 -310 l 29 -317 l 29 -311 l 4 -314 m -8 1256 l -10 1256 l -6 811 l -6 821 l -8 1256 m 358 1260 l 358 1150 q 332 1149 346 1149 q 221 1099 249 1140 q 192 964 193 1057 l 192 57 q 221 -81 193 -43 q 332 -126 249 -119 q 358 -129 346 -128 l 358 -244 q 247 -219 292 -237 q 121 -124 163 -187 q 72 33 79 -60 l 72 988 q 121 1144 79 1081 q 247 1240 163 1208 q 318 1260 278 1253 l -8 1256 l -8 1271 l 386 1292 l 397 1290 l 399 901 l 397 900 l 406 -165 l 404 -167 l 403 -222 l 404 -260 l 404 -283 l 228 -297 l 397 -278 l 397 -235 l 399 -196 l 400 -196 l 396 890 l 392 890 l 392 1260 l 390 1257 l 390 1261 l 358 1260 m 4 -314 l 1 -314 l 1 -194 q 0 -225 0 -194 l -6 811 l 3 813 l 3 -258 l 4 -237 l 6 -237 l 4 -314 z "},")":{"ha":417,"x_min":-50,"x_max":407,"o":"m 406 -286 l 403 158 l 403 149 l 406 -286 m 393 1269 l 393 1278 l -15 1346 l -15 1349 l -49 1342 l -47 1336 l -12 1343 l -14 1339 l 393 1269 m 393 1269 l 396 1269 l 396 1094 l 397 1125 l 403 158 l 394 157 l 394 1160 l 393 1138 l 392 1138 l 393 1269 m 39 -290 l 39 -179 q 65 -178 51 -178 q 176 -128 149 -169 q 206 7 204 -86 l 206 914 q 176 1052 204 1014 q 65 1097 149 1090 q 39 1100 51 1099 l 39 1215 q 150 1190 106 1208 q 276 1094 235 1158 q 325 938 318 1031 l 325 -17 q 276 -174 318 -110 q 150 -269 235 -237 q 79 -289 119 -282 l 406 -286 l 406 -301 l 10 -321 l 0 -321 l -1 69 l 0 69 l -10 1136 l -8 1136 l -6 1192 l -7 1314 l -7 1338 l 0 1332 l 0 1233 l -1 1165 l -3 1165 l 1 79 l 6 81 l 4 -290 l 7 -287 l 7 -290 l 39 -290 z "},"*":{"ha":824,"x_min":-39,"x_max":1361,"o":"m 1318 244 l 1319 244 l 1325 243 l 1328 307 l 1329 307 l 1329 385 l 1342 756 l 1325 382 l 1325 303 l 1321 303 l 1318 244 m -22 285 l -22 283 l 358 271 l 358 272 l 350 272 l -22 285 m 1318 244 l 1318 239 l 1310 239 l 1215 244 l 1215 243 q 1242 239 1215 242 l 358 272 l 358 290 l 667 276 l 1272 244 q 1253 249 1253 247 l 1254 250 l 1318 244 m 26 976 l 106 1075 l 299 904 l 372 1172 l 540 1114 l 438 871 l 693 879 l 693 711 l 435 725 l 531 474 l 363 421 l 292 669 l 103 522 l 4 656 l -22 285 l -39 286 l -39 288 l -35 288 l 0 938 l -3 940 l 1 944 l 14 1192 l 17 1214 l 350 1201 l 350 1197 l 1260 1171 l 1260 1168 l 1307 1161 l 1340 1161 l 1360 1160 l 1342 756 l 1354 1146 l 1340 1147 l 1318 1147 l 1285 1153 l 1285 1157 l 358 1194 l 358 1183 l 42 1203 l 44 1197 l 42 1199 l 26 976 m 4 664 l 219 792 l 22 924 l 4 664 z "},"+":{"ha":1065,"x_min":-6,"x_max":1064,"o":"m 3 128 l 4 400 l 3 400 l 3 651 l 6 651 l 8 1032 l 0 1033 l 1 121 l 3 128 m 1049 1028 l 1049 1029 l 1046 1029 l 1046 1028 l 1049 1028 m 7 -18 l 7 -36 l 8 -36 l 7 -18 m 235 -42 l 15 -43 l 15 -196 q 17 -187 15 -187 l 18 -187 l 17 -211 l 236 -210 l 235 -42 m 1060 -14 l 1058 -37 l 1049 -37 l 1047 -36 l 235 -42 q 236 -210 236 -122 l 249 -210 l 249 -208 l 1061 -215 l 1060 -14 m 1061 -215 l 1063 -215 l 1063 -228 l 1054 -224 l 247 -214 l 17 -218 l 4 -218 l 6 -211 l 13 -211 l 14 -171 l 13 -171 l 11 -181 l 8 -43 l -4 -44 l -1 -40 l 0 -39 l 1 121 l 1 114 l 3 128 l 3 183 l 10 182 l 8 114 l 15 114 l 15 -36 l 235 -35 l 232 400 l 4 400 l 6 651 l 231 651 l 228 1035 l 1 1033 l 0 1046 l 1053 1042 l 1053 1029 l 1049 1029 l 1049 1033 l 228 1035 q 232 651 229 1006 l 385 651 l 385 1033 l 636 1033 l 636 651 l 1018 651 l 1018 400 l 636 400 l 636 18 l 385 18 l 385 400 l 233 400 q 235 -35 233 213 l 1051 -28 l 1053 143 l 1057 143 l 1049 1028 l 1050 1028 l 1058 143 l 1060 143 l 1060 1 l 1061 -215 z "},",":{"ha":407,"x_min":-12,"x_max":571,"o":"m 331 39 q 272 -136 336 -93 q 76 -154 208 -179 l 76 -54 q 185 -58 153 -76 q 213 39 218 -39 l 78 39 l 78 310 l 331 310 l 331 39 m 554 -269 l 551 -269 l 547 -268 l 39 -274 l 39 -272 l -4 -274 l -4 -268 l -11 -269 l 4 953 l 8 953 l 18 953 l 564 961 l 564 956 l 571 956 l 554 -269 m 563 811 l 560 950 l 6 951 l -11 -250 l -11 -261 l -10 -262 l 47 -261 l 47 -265 q 554 -264 74 -267 l 563 811 z "},"ſ":{"ha":1503,"x_min":43,"x_max":1460,"o":"m 642 896 l 633 896 l 633 899 l 642 899 l 642 896 m 638 836 q 658 850 653 836 l 658 1017 q 642 1033 658 1033 l 632 1033 q 617 1006 624 1033 l 617 869 q 638 836 619 836 m 917 56 q 931 157 925 128 q 913 164 921 164 l 906 164 l 900 161 l 910 56 l 917 56 m 204 421 l 204 400 q 236 379 204 379 l 261 379 q 303 406 303 382 l 303 419 q 296 425 303 424 l 208 425 q 204 421 204 425 m 210 593 q 225 571 210 576 l 413 571 q 431 589 431 571 l 431 599 q 400 618 431 610 l 247 618 q 210 593 210 614 m 1332 21 q 1351 42 1351 21 l 1351 228 q 1338 249 1351 242 l 1325 249 q 1300 218 1304 249 l 1300 50 q 1317 21 1300 33 l 1332 21 m 1253 690 q 1244 696 1253 693 q 1240 690 1240 696 l 1253 690 m 1110 708 l 1096 713 l 1097 718 l 1086 718 l 1072 714 l 1072 708 l 1101 704 q 1110 706 1106 706 l 1110 708 m 63 589 l 63 594 q 67 589 63 593 l 63 589 m 835 46 q 826 38 829 38 l 825 38 l 825 42 q 835 46 829 42 m 947 -32 l 881 -32 l 829 283 l 835 285 l 878 285 l 892 211 l 938 211 q 950 285 947 257 l 999 285 q 947 -32 978 151 m 851 31 q 835 19 847 31 q 832 29 835 22 q 835 38 832 31 q 842 31 842 38 q 843 33 843 31 l 851 33 l 851 31 m 850 38 l 842 38 l 842 42 l 843 42 q 850 38 847 42 m 158 472 l 471 472 l 471 425 l 357 425 q 350 419 354 425 l 350 403 q 471 371 406 385 l 471 321 l 332 354 q 274 329 313 329 l 242 329 q 154 403 154 329 l 154 467 q 158 472 154 472 m 225 521 q 161 597 171 521 q 267 667 161 667 l 375 667 q 417 661 417 667 q 482 599 468 661 q 419 521 469 521 l 225 521 m 188 296 l 188 297 l 197 297 l 197 296 l 188 296 m 156 -65 l 156 -24 q 161 -18 156 -18 l 275 -18 l 279 -19 q 288 -12 288 -14 l 288 29 q 279 36 283 36 l 263 36 q 160 38 231 36 l 160 88 q 461 83 408 83 q 468 76 468 83 l 468 65 q 465 36 468 54 l 344 36 q 333 -1 333 36 l 333 -12 q 340 -19 338 -19 l 372 -19 q 461 -24 403 -19 l 465 -28 l 465 -65 l 461 -72 q 365 -69 396 -69 l 258 -69 q 156 -65 226 -69 m 1314 1047 q 1318 1040 1318 1047 l 1318 1000 q 1314 993 1318 993 l 1068 993 q 1047 978 1054 993 l 1047 968 q 1096 939 1047 939 l 1318 939 l 1318 896 q 1314 888 1318 888 l 1101 888 q 999 961 999 888 l 999 964 q 1063 1047 1010 1047 l 1314 1047 m 1314 1163 l 1314 1117 l 1058 1117 q 1007 1190 1026 1117 l 1011 1219 q 1051 1214 1042 1214 l 1051 1200 q 1086 1163 1051 1163 l 1314 1163 m 1314 607 l 1314 556 l 1221 556 l 1221 551 q 1314 504 1221 547 l 1314 450 q 1285 463 1292 463 l 1279 458 l 1281 454 l 1276 454 l 1267 463 q 1269 471 1267 465 l 1260 479 q 1217 506 1219 492 q 1211 500 1211 506 q 1196 513 1196 508 q 1026 446 1031 446 l 1026 442 l 1031 442 l 1031 440 l 1022 440 l 1015 442 q 1011 440 1015 440 l 1007 440 l 1007 492 q 1124 542 1007 497 l 1124 543 q 1090 556 1124 553 l 1007 556 l 1007 603 q 1011 607 1007 607 l 1240 607 l 1261 611 q 1272 606 1261 607 q 1285 607 1279 607 l 1314 607 m 1215 -37 l 1165 -37 l 1165 97 l 1151 101 l 1115 101 l 1108 97 q 1107 -8 1107 25 l 1107 -32 l 1058 -32 q 1060 279 1058 43 q 1065 283 1060 283 l 1081 283 q 1114 279 1103 283 q 1108 201 1108 226 l 1108 157 q 1117 149 1115 149 l 1160 149 q 1168 165 1165 149 l 1168 275 q 1175 283 1168 283 l 1219 283 q 1217 -22 1217 1 l 1215 -37 m 1401 224 l 1401 36 q 1321 -31 1401 -18 q 1250 76 1250 -31 l 1250 193 q 1256 242 1250 218 q 1321 300 1272 300 q 1351 293 1325 300 q 1401 224 1401 279 m 1300 667 l 990 667 l 990 713 q 997 717 990 717 l 1171 717 l 1171 722 q 990 782 1054 757 l 990 828 q 997 832 990 832 l 1300 832 l 1300 782 l 1267 782 q 1254 786 1254 782 l 1233 782 l 1124 782 q 1119 792 1124 792 l 1114 792 q 1106 782 1114 782 q 1285 729 1106 775 q 1300 722 1285 722 l 1300 667 m 290 1229 l 293 1229 l 293 1225 q 290 1229 293 1228 m 63 132 l 63 139 q 67 136 67 138 l 63 132 m 63 -18 l 63 -11 l 67 -15 l 67 -18 l 63 -18 m 1407 1229 l 1411 1229 l 1411 1225 q 1407 1229 1408 1229 m 661 -121 l 656 -121 q 657 -119 657 -121 q 661 -121 658 -121 m 1235 -121 q 1239 83 1236 -57 l 1242 83 q 1243 40 1242 47 q 1242 36 1242 40 q 1250 11 1242 29 q 1242 -8 1247 -3 l 1242 -121 l 1235 -121 m 169 -121 l 169 -117 q 174 -114 169 -114 l 476 -114 l 479 -119 l 479 -121 l 169 -121 m 701 850 q 635 793 701 803 q 574 889 574 793 l 574 983 q 579 1019 574 1019 q 632 1078 579 1065 q 701 1024 701 1067 l 701 850 m 869 878 q 883 867 883 872 l 863 867 q 869 878 863 878 m 531 826 l 531 790 l 418 790 l 418 826 l 494 826 q 455 914 497 864 q 414 993 413 964 q 419 1026 413 1010 q 438 1051 425 1043 q 474 1060 451 1060 q 507 1054 494 1060 q 528 1035 519 1049 q 536 988 538 1022 l 501 988 q 501 1003 501 992 q 492 1021 500 1015 q 474 1026 485 1026 q 456 1018 463 1026 q 453 988 450 1010 q 491 928 451 972 q 531 826 531 883 m 288 799 q 269 825 276 807 q 264 885 264 843 q 278 947 264 928 q 310 967 293 965 q 342 961 328 968 l 340 1010 l 274 1010 l 274 1056 l 379 1056 l 383 910 l 338 910 q 322 921 332 925 q 310 883 311 917 q 314 842 310 849 q 326 835 318 835 q 337 844 335 835 q 339 863 339 853 q 339 878 339 872 l 383 878 q 376 818 386 835 q 357 794 369 801 l 354 793 l 353 793 l 288 799 m 63 664 l 63 679 q 67 669 63 674 q 63 664 63 667 m 63 608 l 63 636 q 67 619 63 631 q 63 608 63 615 m 63 594 l 63 608 l 67 597 q 63 594 63 597 m 63 589 q 68 558 63 569 q 67 551 67 554 l 67 426 q 63 414 67 425 l 63 589 m 804 292 l 804 229 l 803 229 l 803 293 l 804 292 m 169 1104 l 169 1113 l 206 1113 l 206 1104 l 169 1104 m 800 369 q 786 372 792 372 l 742 372 l 742 321 l 736 321 l 736 335 l 739 351 q 732 374 739 365 l 667 374 l 661 372 q 656 374 658 374 l 653 374 l 650 372 l 650 374 l 596 374 q 593 368 593 374 l 593 60 l 596 40 q 593 38 593 40 l 597 13 q 593 -8 597 6 l 593 -56 l 794 -56 l 794 -19 l 751 -19 l 699 176 l 692 176 l 692 -14 q 686 -19 692 -19 l 651 -19 q 646 -14 646 -19 l 646 292 l 658 296 l 681 296 l 694 292 q 751 114 717 232 l 757 114 l 757 288 q 763 296 757 296 l 799 296 l 800 369 m 44 682 l 44 619 l 47 619 l 47 682 l 44 682 m 1113 -137 l 1443 -137 l 1443 63 l 1440 -136 l 1438 -136 l 1432 -135 l 1113 -137 m 806 825 l 807 914 q 774 863 774 876 q 778 832 772 840 q 796 824 785 824 q 806 825 801 824 m 810 1135 l 810 1161 l 63 1167 l 63 1188 l 667 1183 l 663 1192 q 678 1196 671 1196 l 678 1200 l 686 1192 l 690 1192 l 686 1183 l 810 1182 l 811 1263 l 826 1263 l 1049 1265 l 51 1265 l 51 1231 l 49 1225 l 49 1188 l 51 1188 l 51 1167 l 49 1167 l 49 1135 l 51 1135 l 51 1100 l 49 1100 l 49 731 q 51 726 50 728 l 51 -137 l 61 -137 l 72 -140 l 108 -140 l 108 -137 l 133 -137 l 133 -142 l 169 -142 l 169 -137 l 478 -137 l 478 -142 l 551 -142 l 560 -137 l 801 -137 l 801 -135 l 793 -135 l 793 -74 l 590 -74 l 590 -121 l 561 -121 l 561 -22 q 556 -19 561 -19 l 565 -10 l 565 126 q 564 128 565 128 q 546 157 553 157 l 546 181 l 551 181 l 557 168 l 561 168 l 561 174 l 556 181 l 556 185 l 557 186 q 556 190 556 186 l 556 193 q 561 215 561 214 l 561 226 q 556 238 561 229 q 561 240 556 240 l 561 263 q 556 264 561 264 l 535 264 l 533 261 l 521 267 l 472 267 l 472 160 l 160 160 l 160 288 l 204 288 l 204 215 q 213 207 208 207 l 282 207 q 293 215 293 211 l 293 268 l 333 268 q 339 263 339 268 l 339 211 q 344 207 339 208 l 414 207 q 422 215 422 211 l 422 267 l 414 267 l 414 271 l 422 271 l 422 288 l 435 288 l 451 289 q 465 288 456 288 l 472 288 l 472 271 q 528 272 504 272 l 551 272 q 556 307 556 296 l 556 394 l 546 394 q 504 399 513 399 l 504 406 l 518 406 l 535 403 q 557 411 549 403 l 557 550 l 556 560 q 557 571 557 563 l 557 692 q 551 696 557 696 l 247 696 l 226 694 q 225 696 226 696 l 201 690 q 179 696 192 690 l 133 696 l 133 -121 l 108 -121 l 108 696 l 63 696 l 63 722 l 281 722 q 293 731 293 725 l 293 735 q 299 729 293 729 l 482 729 q 493 731 488 729 q 804 736 497 729 l 804 768 q 760 771 767 771 l 760 775 l 804 775 l 806 790 l 796 790 q 760 798 774 790 q 741 823 747 806 q 738 857 735 840 q 776 936 735 886 q 807 983 797 961 l 808 1024 l 740 1024 l 740 1060 l 808 1060 l 810 1099 l 763 1099 l 763 1101 l 760 1101 l 753 1099 l 657 1099 q 656 1101 657 1100 q 653 1099 654 1101 l 611 1099 l 606 1101 l 603 1100 l 603 1086 q 575 1049 590 1081 q 568 1017 568 1040 l 568 996 l 564 996 l 564 1011 q 561 1014 561 1013 l 561 1015 l 560 1015 q 556 1033 556 1022 l 575 1065 q 590 1099 589 1089 l 479 1099 q 472 1100 472 1099 l 461 1099 l 331 1099 q 314 1101 315 1101 l 181 1101 q 149 1100 169 1100 l 149 1101 q 143 1100 144 1100 q 140 1101 140 1100 l 131 1100 q 117 1101 121 1100 q 101 1100 107 1100 l 74 1100 q 68 1101 71 1100 q 63 1100 65 1100 l 63 1135 l 810 1135 m 808 1024 l 808 985 q 818 1024 818 1006 l 808 1024 m 810 1099 l 810 1060 l 853 1060 l 853 1024 q 814 922 853 967 l 807 915 l 806 825 q 814 829 810 826 q 823 846 822 833 q 824 863 824 858 l 858 863 q 851 814 860 828 q 829 796 842 800 q 806 790 821 792 l 806 775 l 814 775 q 825 767 822 775 q 806 768 814 767 l 806 736 q 831 738 817 738 l 886 738 l 886 722 q 892 731 892 725 l 892 1099 l 810 1099 m 794 -74 l 793 -114 l 793 -126 l 794 -128 l 860 -126 l 860 -131 q 1439 -129 889 -132 l 1443 271 l 1443 1260 l 813 1261 l 811 1182 l 888 1181 q 889 1160 889 1172 l 811 1161 l 810 1135 l 892 1135 l 892 1229 l 921 1229 l 908 1226 l 908 1188 l 911 1188 l 911 1179 l 908 1179 l 908 1068 q 915 1061 908 1061 l 908 1040 l 908 868 q 915 849 908 857 q 906 840 906 849 l 906 633 q 915 622 915 628 l 924 628 q 928 622 928 628 l 928 551 q 922 485 928 485 l 918 485 l 918 536 l 924 543 l 924 581 q 918 585 924 582 l 915 585 l 915 411 q 924 401 919 401 l 1349 401 l 1349 1229 l 1365 1229 q 1367 1222 1367 1226 l 1367 594 q 1400 603 1389 603 l 1400 599 q 1367 586 1400 593 l 1367 401 l 1411 401 l 1411 376 l 1228 376 l 1228 342 l 1221 342 q 1217 347 1217 342 l 1221 356 l 1221 381 q 1186 356 1193 381 l 1165 356 l 1168 351 l 1168 347 q 1144 351 1161 347 q 1096 344 1117 344 l 1086 344 l 1086 347 q 1099 356 1092 347 l 1096 360 q 1121 363 1111 360 q 1158 360 1139 360 l 1183 360 q 1158 368 1183 368 l 1158 372 l 1175 376 q 1168 382 1175 382 l 1165 382 q 1151 374 1165 374 l 1151 376 l 1138 374 l 1108 382 l 1099 382 q 1076 374 1090 382 q 1069 381 1076 381 l 1039 381 q 1033 374 1033 381 l 1033 360 q 1043 356 1033 356 l 1043 351 q 1031 339 1035 339 q 1029 -121 1029 -4 l 1010 -121 l 1010 -74 l 794 -74 m 1010 -56 l 1010 368 q 1007 376 1010 376 l 947 376 q 946 372 946 376 l 942 382 l 874 382 l 874 381 q 860 360 860 369 l 851 363 l 847 363 l 847 368 l 853 374 l 853 376 l 850 376 l 847 372 l 846 372 l 846 374 q 843 372 846 372 l 842 372 q 829 376 831 376 l 825 376 q 821 372 822 376 q 819 376 819 372 l 807 376 l 807 351 l 808 349 l 804 338 l 804 -14 q 799 -19 804 -19 l 794 -19 l 794 -56 l 1010 -56 m 799 296 q 803 293 801 294 l 803 368 q 800 369 801 369 l 799 296 m 794 -74 l 793 -74 l 794 -56 l 794 -74 m 346 1276 l 446 1276 l 446 1272 l 346 1272 l 346 1276 m 1049 1265 l 1450 1272 l 1450 1267 l 1458 1267 l 1443 63 l 1443 271 l 1450 1100 l 1446 1260 l 1443 1260 l 1443 1265 l 1049 1265 m 1113 -137 l 850 -140 l 850 -139 l 801 -140 l 801 -137 l 1113 -137 m 811 1182 l 811 1161 l 810 1161 l 810 1182 l 811 1182 m 807 915 l 807 983 q 808 985 808 983 l 807 915 m 808 1024 l 808 1060 l 810 1060 l 808 1024 m 806 768 l 804 768 l 804 775 l 806 775 l 806 768 m 800 369 l 804 736 l 806 736 l 800 369 z "},"­":{"ha":669,"x_min":54,"x_max":615,"o":"m 615 632 l 615 493 l 54 493 l 54 632 l 615 632 z "},"-":{"ha":624,"x_min":-8,"x_max":643,"o":"m -3 614 l 0 936 l -6 938 l -6 614 l -3 614 m -4 475 l -4 272 l -3 475 l -4 475 m 136 614 l 590 614 l 590 475 l 136 475 q 139 39 138 290 l 146 39 l 636 35 l 626 938 l 133 939 q 136 614 135 917 m -4 475 l -8 475 l -8 614 l -6 614 l -4 475 m 136 475 l -3 475 l -3 614 l 135 614 l 133 939 l -4 938 l -6 947 l 636 944 l 636 935 l 635 935 l 643 25 l 639 26 l 638 28 l 144 35 l 4 32 l -3 32 l -3 38 l 3 38 l 3 67 l 1 67 l 1 60 l -3 272 l 4 272 l 3 49 l 4 54 l 6 54 l 4 38 l 139 39 l 136 475 z "},".":{"ha":415,"x_min":-1036,"x_max":313,"o":"m 313 7 l 60 7 l 60 279 l 313 279 l 313 7 m -19 -8 l -22 -8 l -26 -7 l -985 -7 l -985 -6 l -1028 -7 l -1028 -1 l -1035 -3 l -1019 1219 l -1015 1219 l -1006 1219 l -10 1222 l -10 1217 l -3 1217 l -19 -8 m -11 1072 l -14 1211 l -1018 1218 l -1035 17 l -1035 6 l -1033 4 l -976 6 l -976 1 q -19 -3 -950 0 l -11 1072 z "},"/":{"ha":343,"x_min":-21,"x_max":358,"o":"m 357 1143 l 63 -101 l -21 -101 l 274 1143 l 357 1143 z "},"↋":{"ha":932,"x_min":-189,"x_max":949,"o":"m 414 -153 q 221 -100 299 -144 q 94 44 131 -49 q 69 278 58 138 q 206 546 100 506 q 49 856 67 625 l 54 922 q 94 1156 58 1063 q 226 1303 131 1249 l 239 1310 l -142 1332 l -142 1279 l -11 1318 l 85 1311 l 19 1314 l -133 1271 l -167 -117 l 414 -153 m 853 1282 l 867 1281 l 939 1279 l 939 1251 l 893 -203 l 946 1260 l 947 1288 l 811 1283 l 853 1282 m 797 1283 l 750 1285 q 833 1185 800 1249 q 869 847 885 1088 l 569 847 q 568 953 569 901 q 549 1038 567 1004 q 479 1075 532 1072 q 393 1035 426 1078 q 370 827 360 993 q 633 671 381 661 l 633 447 q 542 442 588 449 q 383 314 396 424 q 397 148 371 186 q 460 104 422 110 q 531 122 499 99 q 566 193 563 144 q 569 293 569 242 l 864 293 q 820 -3 874 76 q 678 -119 767 -82 q 529 -151 617 -146 l 633 -168 l 582 -158 l 893 -204 l 890 -204 l 761 -189 l 894 -210 l 894 -217 l 696 -181 l 531 -158 q 514 -171 529 -169 l 504 -171 l 504 -164 q 506 -156 504 -158 l -182 -135 l -182 -121 l -187 -124 l -154 1275 l -153 1275 l -153 1339 l 251 1315 l 746 1288 l 811 1283 l 797 1283 m 514 -217 q 496 -201 499 -217 l 496 -194 q 521 -218 521 -208 l 514 -217 m 853 1282 l 867 1281 l 800 1283 l 853 1282 z "},":":{"ha":424,"x_min":63,"x_max":325,"o":"m 324 1031 l 324 772 l 67 772 l 67 1031 l 324 1031 m 321 261 l 321 3 l 63 3 l 63 261 l 321 261 z "},";":{"ha":382,"x_min":49,"x_max":310,"o":"m 303 39 q 244 -136 308 -93 q 49 -154 181 -179 l 49 -54 q 158 -58 125 -76 q 185 39 190 -39 l 50 39 l 50 310 l 303 310 l 303 39 m 306 793 l 53 793 l 53 1065 l 306 1065 l 306 793 z "},"<":{"ha":868,"x_min":-47,"x_max":846,"o":"m -1 -212 l 31 -212 l 17 143 l -1 -212 m -37 -212 l -21 -212 l -21 -197 l -37 -212 m 792 376 l 783 679 l 371 531 l 792 376 m 776 883 l 772 1010 l 43 988 l 42 610 l 776 883 m 40 453 l 39 217 l 32 215 q 24 233 29 225 l 39 -212 l 800 -193 l 796 -190 l 808 -193 l 799 171 l 40 453 m 803 -196 q 785 -207 794 -201 l 794 -206 l 808 -206 l 810 -201 l 803 -196 m 24 1132 l 10 1132 l 8 1129 q 18 1060 14 1096 l 18 1083 l 25 1083 l 24 1132 m 814 1033 q 822 1228 818 1118 l 25 1132 l 25 1138 l 843 1232 l 843 1211 l 842 1179 l 838 1033 l 844 1035 l 831 -210 l 774 -211 l 39 -217 l 39 -221 l 31 -221 l 31 -217 l -1 -217 l -1 -221 l -47 -221 l 14 158 q 7 157 11 158 l -1 172 q 14 194 15 174 l 15 194 l 18 1060 q 25 1004 22 1033 l 38 1006 l 35 1013 l 776 1035 l 778 1032 l 814 1033 z "},"=":{"ha":886,"x_min":14,"x_max":868,"o":"m 42 -121 l 42 -128 l 99 -125 l 97 -128 l 168 -122 l 500 -107 l 165 -117 l 93 -124 l 94 -119 l 42 -121 m 15 1222 l 14 1222 l 21 842 l 21 850 l 15 1222 m 853 250 l 40 250 l 39 -74 q 42 -56 40 -56 l 44 -56 l 42 -121 l 36 -121 l 36 -112 l 38 -18 l 35 -18 l 33 -44 l 21 842 l 31 843 l 31 908 l 847 908 l 847 910 l 838 908 l 839 1226 l 835 1224 l 835 1226 l 15 1222 l 15 1239 l 17 1239 l 17 1235 l 828 1253 l 849 1251 l 851 918 l 849 918 l 849 908 l 856 908 l 856 692 l 854 692 l 867 6 l 864 6 l 861 -43 l 863 -75 l 863 -96 l 500 -107 l 850 -90 l 850 -76 l 849 -54 l 853 -19 l 856 -19 l 853 250 m 849 692 l 39 692 l 40 533 l 40 467 l 851 467 l 849 692 z "},">":{"ha":1076,"x_min":1,"x_max":1071,"o":"m 626 832 l 107 1025 l 107 786 l 642 590 l 107 399 l 107 156 l 1043 503 l 1043 678 l 939 717 l 622 713 l 625 760 l 611 760 l 626 832 m 1071 -47 l 1 -47 l 1 1121 l 664 1121 l 664 1151 l 682 1151 q 686 1082 685 1107 l 696 1083 l 638 719 l 640 717 l 668 718 l 1071 722 l 1071 -47 z "},"?":{"ha":601,"x_min":6,"x_max":610,"o":"m 25 -122 l 25 -129 l 65 -126 l 65 -129 l 114 -124 l 350 -108 l 113 -118 l 63 -125 l 63 -121 l 25 -122 m 7 1221 l 6 1221 l 11 804 l 7 1221 m 588 804 l 589 1225 l 586 1222 l 588 1225 l 7 1221 l 7 1238 l 8 1238 l 8 1233 l 582 1251 l 596 1250 l 599 804 l 600 804 l 610 4 l 607 4 l 606 -44 l 606 -97 l 350 -108 l 597 -92 l 597 -56 l 600 -21 l 601 -21 l 600 249 l 599 249 l 597 804 l 588 804 m 14 804 q 42 925 19 881 q 133 1021 78 994 q 287 1044 189 1047 q 439 1006 385 1040 q 519 905 493 971 q 533 752 546 839 q 465 582 521 665 q 367 433 410 499 q 321 278 325 367 l 153 278 q 207 521 149 417 q 306 683 265 625 q 341 792 347 740 q 300 857 335 843 q 233 847 265 871 q 204 700 201 824 l 24 700 l 24 -75 l 25 -57 l 26 -57 l 25 -122 l 21 -122 l 22 -114 l 22 -19 l 21 -19 l 19 -46 l 11 804 l 14 804 m 229 221 q 313 186 278 221 q 349 103 349 151 q 313 18 349 53 q 229 -17 278 -17 q 145 18 181 -17 q 110 103 110 53 q 145 186 110 151 q 229 221 181 221 z "},"@":{"ha":693,"x_min":3,"x_max":725,"o":"m 6 18 q 4 24 6 21 l 7 -78 l 6 18 m 46 933 l 10 439 q 111 569 46 513 q 396 664 233 676 q 651 535 561 656 l 658 528 l 658 568 l 682 882 l 46 933 m 281 365 q 272 340 281 365 q 253 249 264 315 q 248 152 243 182 q 282 121 253 122 q 324 129 311 119 q 347 163 338 139 q 366 234 357 186 q 380 318 375 282 q 388 380 385 354 q 374 416 390 406 q 328 420 358 426 q 281 365 297 414 m 683 896 l 711 1256 l 69 1257 l 46 936 l 683 896 m 6 249 l 8 438 l 44 933 l 4 938 l 6 249 m 67 -251 l 18 -253 l 18 -247 l 10 -247 l 7 -146 l 7 -118 l 3 24 l 6 207 l 3 940 l 21 938 l 44 936 l 68 1260 l 83 1258 l 715 1269 l 715 1263 l 724 1263 l 674 331 l 582 332 l 554 332 l 551 331 l 608 -28 l 600 -26 q 592 -247 594 -87 l 67 -251 m 554 153 l 525 292 l 539 290 l 536 338 l 592 336 q 589 367 590 353 q 537 483 579 432 q 382 542 494 533 q 185 478 267 550 q 89 292 104 406 q 113 83 74 178 q 251 -17 151 -11 q 385 -3 351 -22 l 411 -111 q 203 -123 332 -136 q 10 13 75 -110 l 7 18 l 7 -103 l 10 -224 l 10 -237 l 11 -240 l 76 -237 l 76 -242 q 576 -242 104 -244 l 578 18 q 550 7 564 11 q 376 74 428 -32 q 265 22 324 24 q 182 35 207 19 q 142 103 157 50 q 134 239 128 156 q 175 398 140 322 q 253 497 210 474 q 346 523 297 521 q 438 501 394 525 q 492 437 482 478 q 488 319 503 396 q 457 157 472 242 q 504 113 450 96 q 554 153 535 121 z "},"A":{"ha":914,"x_min":-47,"x_max":954,"o":"m 319 199 l 504 199 l 413 668 l 319 199 m 513 1219 l 513 1213 q 500 1197 511 1199 l 499 1206 q 513 1219 499 1218 m 142 -237 l 768 -300 l 796 -301 l 799 -299 l 806 -237 l 590 -237 l 551 -43 l 274 -43 l 235 -237 l 142 -237 m 293 1197 l 928 1179 l 928 1163 l 924 1133 l 954 757 l 951 757 l 814 -260 l 813 -306 l 101 -237 l -32 -225 l -47 -224 l -46 -206 l -42 -178 l 42 897 l 43 897 l 8 1160 l 21 1160 l 22 1206 l 267 1199 l 268 1211 q 253 1229 261 1218 l 271 1239 l 276 1239 q 279 1232 278 1236 q 294 1240 285 1238 l 293 1197 m -31 -219 l 229 1103 l 594 1103 l 826 -67 l 928 813 l 936 811 q 914 1176 943 906 l 67 1200 l 40 1201 l 36 1199 l 68 842 l 60 843 q -33 -219 33 679 l -31 -219 z "},"B":{"ha":875,"x_min":-18,"x_max":892,"o":"m 542 1164 q 692 1101 639 1149 q 793 908 779 1026 q 765 689 807 789 q 617 546 722 589 q 767 457 710 521 q 840 293 825 393 q 828 97 854 193 q 804 38 818 67 l 863 39 l 804 1001 l 794 1053 l 819 1183 l 542 1164 m 51 1133 l 0 1133 l 7 21 l 11 29 l 51 29 l 51 1133 m 425 28 l 161 21 l 161 -33 l 456 -33 q 644 17 589 -29 q 661 32 653 25 l 429 28 q 449 17 429 17 l 449 10 l 429 10 q 414 22 414 10 l 425 28 m 161 31 l 665 36 q 721 129 704 76 q 731 276 743 197 q 644 418 719 354 q 379 479 569 482 l 161 479 l 161 31 m 383 582 q 577 620 508 576 q 674 753 646 664 q 683 921 703 842 q 600 1037 663 1000 q 422 1072 538 1074 l 161 1072 l 161 582 l 383 582 m 211 -199 l 865 -201 l 864 -146 l 211 -199 m 728 -58 q 717 -68 722 -64 q 446 -136 632 -137 l 51 -136 l 51 22 l 17 22 q 13 -197 15 -83 l 179 -199 l 864 -142 l 863 36 l 847 33 l 836 36 l 803 35 q 735 -51 778 -12 l 735 -58 l 728 -58 m 832 1186 l 811 1076 l 869 39 l 871 39 l 869 38 l 871 -103 q 892 -97 889 -97 l 892 -104 q 872 -122 892 -111 l 871 -119 l 872 -218 l 4 -215 l 3 -193 l 4 -158 l 0 7 l 0 10 l -7 304 l -6 304 l -18 1149 l -10 1149 l -11 1150 l 832 1186 z "},"C":{"ha":713,"x_min":43,"x_max":696,"o":"m 667 293 l 667 294 l 636 293 l 667 293 m 356 186 l 336 178 l 336 161 l 344 171 l 364 172 q 369 146 364 163 q 383 158 375 157 l 383 172 l 356 186 m 429 449 q 440 472 440 463 l 439 479 q 425 471 438 479 l 425 465 l 429 449 m 436 690 q 443 678 436 678 l 446 678 q 439 692 446 689 l 436 690 m 328 538 q 338 519 333 519 l 344 519 l 344 539 l 328 538 m 496 463 l 515 471 l 515 488 l 508 478 l 488 476 q 482 503 488 486 q 468 490 476 490 l 468 475 l 496 463 m 424 200 q 413 176 413 186 l 413 169 q 428 178 414 169 l 428 183 l 424 200 m 367 110 l 376 71 l 390 89 q 379 110 386 111 l 367 110 m 53 318 l 54 -14 l 54 -39 l 56 -43 l 153 -43 q 92 51 114 -6 q 56 253 61 132 q 53 318 53 285 m 524 110 q 514 128 519 129 l 507 128 l 507 108 l 524 110 m 104 610 q 96 594 97 610 l 97 588 q 108 610 108 600 l 104 610 m 208 388 q 186 360 200 360 l 186 353 l 215 356 l 208 388 m 100 565 l 100 558 q 110 544 101 543 l 114 544 l 114 551 q 106 565 114 564 l 100 565 m 111 460 l 103 453 q 111 438 103 438 l 122 438 l 122 446 q 111 460 111 446 m 415 -43 q 410 -31 415 -29 l 406 -31 q 413 -43 406 -42 l 415 -43 m 468 47 q 478 67 478 58 l 465 65 l 465 60 l 468 47 m 683 293 q 681 253 682 272 q 644 51 675 132 q 569 -56 618 -17 l 693 -58 l 685 1331 l 683 1356 l 683 1358 l 513 1354 l 513 1363 q 46 1374 435 1367 l 50 664 q 56 807 51 742 q 92 1010 61 929 q 188 1131 124 1090 q 368 1172 251 1172 q 549 1131 485 1172 q 644 1010 614 1090 q 681 807 675 929 q 682 781 682 794 l 514 781 q 497 889 510 836 q 451 978 482 950 q 368 1006 421 1006 q 285 978 315 1006 q 240 888 254 950 q 221 763 225 826 q 217 531 217 668 q 221 297 217 393 q 240 155 225 200 q 285 82 254 110 q 368 54 315 54 q 451 82 421 54 q 497 156 482 110 q 515 293 511 200 l 636 293 l 643 261 q 667 289 653 288 l 667 293 l 683 293 m 547 -71 l 75 -68 l 75 -56 l 53 -56 l 50 415 q 49 531 49 469 l 49 557 l 43 1386 l 51 1388 l 65 1383 l 539 1382 l 539 1381 l 664 1383 l 664 1371 l 686 1372 l 694 -71 l 547 -71 z "},"D":{"ha":714,"x_min":47,"x_max":721,"o":"m 165 1035 l 158 319 l 275 318 q 404 338 364 314 q 464 408 444 363 q 493 522 483 453 q 504 685 503 592 q 496 844 506 778 q 469 948 486 910 q 418 1009 451 986 q 314 1033 385 1032 l 165 1035 m 56 217 l 58 586 l 58 644 l 56 217 m 58 206 l 58 215 l 56 215 l 54 206 l 58 206 m 64 1274 l 79 1325 l 647 1306 l 71 1332 l 49 1267 l 49 1222 l 57 1249 l 57 1250 l 58 1274 l 64 1274 m 683 235 l 683 1163 l 681 1264 l 515 1257 l 517 1264 q 61 1264 440 1265 l 64 1274 l 67 1274 l 79 1272 l 542 1278 l 542 1276 l 664 1281 l 664 1272 l 681 1274 l 681 1306 l 685 1306 l 719 221 l 708 219 l 710 214 l 685 213 l 685 206 l 676 206 l 664 207 l 511 207 l 104 194 l 104 196 l 49 194 l 57 1250 l 58 1254 l 60 1260 l 60 808 l 63 1140 l 303 1139 q 472 1106 418 1136 q 553 1026 525 1075 q 596 892 581 978 q 609 686 611 807 q 592 476 607 565 q 547 328 578 388 q 451 239 517 269 q 413 226 435 232 l 683 235 z "},"E":{"ha":738,"x_min":22,"x_max":717,"o":"m 32 933 l 488 931 l 488 761 l 221 763 l 221 608 l 488 607 l 488 440 l 219 442 l 218 242 l 488 240 l 488 74 l 32 76 l 33 -28 l 35 -31 l 215 -24 l 215 -31 q 714 -35 299 -33 l 713 1163 l 713 1185 l 711 1188 l 32 1192 l 32 933 m 31 76 l 24 76 l 31 933 l 29 1203 l 39 1203 l 53 1201 l 715 1199 l 715 -46 l 707 -46 l 692 -43 l 188 -47 l 188 -46 l 54 -51 l 54 -40 l 31 -42 l 31 76 z "},"F":{"ha":901,"x_min":4,"x_max":890,"o":"m 471 317 l 778 317 l 778 667 l 471 667 l 471 835 l 778 835 l 778 1201 l 65 1201 l 65 -131 l 471 -131 l 471 317 m 22 1235 l 889 1235 l 863 -286 l 449 -299 l 426 -247 l 147 -260 l 6 -207 l 22 1235 z "},"G":{"ha":725,"x_min":31,"x_max":740,"o":"m 414 628 q 419 615 414 615 l 424 615 q 417 628 424 626 l 414 628 m 401 150 q 390 126 390 136 l 390 119 q 406 128 392 119 l 406 133 l 401 150 m 346 63 l 356 24 l 369 42 q 358 63 364 63 l 346 63 m 335 136 l 317 128 l 317 111 l 324 121 l 343 122 q 349 97 343 113 q 363 108 354 108 l 363 124 l 335 136 m 485 411 l 472 406 l 461 411 l 485 411 m 40 240 l 43 -83 l 43 -86 l 138 -87 q 79 4 100 -51 q 43 201 49 83 l 40 240 m 403 411 l 417 411 l 417 422 q 401 414 415 422 l 403 411 m 638 240 l 638 242 l 608 240 l 638 240 m 308 479 q 318 461 313 461 l 325 461 l 325 481 l 308 479 m 499 63 q 489 81 494 81 l 483 81 l 483 61 l 499 63 m 90 549 q 82 535 83 549 l 83 528 q 94 549 94 540 l 90 549 m 192 332 q 169 306 183 306 l 169 299 l 199 301 l 192 332 m 86 506 l 86 499 q 96 485 88 485 l 100 485 l 100 493 q 92 506 99 504 l 86 506 m 97 403 l 89 396 q 97 382 89 381 l 108 382 l 108 390 q 97 403 97 389 m 393 -86 q 388 -74 393 -74 l 383 -75 q 390 -87 385 -85 l 393 -86 m 444 0 q 454 19 454 11 l 442 19 l 442 13 l 444 0 m 613 221 l 615 210 q 619 221 618 215 l 613 221 m 665 -101 l 738 -101 l 729 1176 l 729 1197 l 728 1200 l 657 1197 l 665 -101 m 417 411 q 406 392 415 403 l 403 408 l 403 411 l 308 411 l 308 563 l 654 563 l 653 240 l 654 240 q 651 201 653 219 q 615 4 646 83 q 543 -99 592 -61 l 632 -86 l 664 -101 l 656 1197 l 475 1192 l 475 1197 q 35 1194 401 1199 l 38 629 q 43 742 39 689 q 78 938 49 860 q 172 1057 108 1017 q 347 1097 235 1097 q 523 1057 460 1097 q 616 938 586 1017 q 651 742 646 860 q 653 715 653 729 l 489 715 q 472 821 485 769 q 428 908 458 881 q 347 936 399 936 q 266 908 296 936 q 222 821 236 881 q 204 699 207 761 q 200 472 200 606 q 204 244 200 338 q 222 106 207 150 q 266 35 236 63 q 347 8 296 8 q 428 35 399 8 q 472 107 458 63 q 489 222 485 144 l 490 411 l 485 411 l 490 414 l 490 431 l 483 421 l 464 419 q 458 444 464 428 q 444 433 453 433 l 444 418 l 461 411 l 417 411 m 604 -101 l 636 -101 l 631 -97 l 604 -101 m 43 -100 l 43 -103 l 44 -106 l 61 -106 l 61 -99 l 43 -100 m 238 1253 q 33 1293 150 1269 l 33 1285 l 39 1285 l 53 1282 l 238 1253 m 33 1204 l 40 1206 l 53 1203 l 486 1213 q 238 1253 431 1217 l 494 1214 l 499 1214 l 499 1213 l 500 1213 l 656 1217 l 656 1207 l 654 1210 l 635 1210 l 636 1201 l 656 1201 l 656 1217 l 711 1218 l 711 1208 l 732 1210 l 740 -111 l 732 -111 l 719 -110 l 665 -110 l 665 -114 l 657 -114 l 650 -110 l 544 -111 l 522 -114 l 349 -112 l 42 -117 l 40 -100 l 38 353 q 36 463 36 404 l 36 489 l 31 1285 l 33 1285 l 33 1204 z "},"H":{"ha":1347,"x_min":-31,"x_max":1346,"o":"m 1186 -151 l 1133 -189 l 500 -207 l -31 -207 l 36 1285 l 58 1285 l 58 1294 l 1346 1300 l 1344 -42 l 1231 -121 l 1231 1263 l 964 1263 l 964 689 l 324 689 l 324 1263 l 57 1263 l 57 -151 l 324 -151 l 324 444 l 964 444 l 964 -151 l 1186 -151 z "},"I":{"ha":540,"x_min":36,"x_max":656,"o":"m 393 -174 q 618 -189 481 -179 l 613 926 l 611 926 l 643 981 l 654 1175 l 653 1178 l 39 1172 l 46 -129 l 46 -150 l 47 -153 l 143 -156 l 164 1021 l 414 1015 l 393 -174 m 644 979 l 647 979 l 615 925 q 614 926 615 926 l 619 -200 l 614 -200 l 603 -199 l 236 -182 l 236 -181 l 61 -172 l 61 -162 l 44 -164 l 38 1183 l 44 1183 l 54 1182 l 656 1189 l 644 979 z "},"J":{"ha":601,"x_min":-10,"x_max":753,"o":"m 0 60 l 3 60 q 131 66 72 44 q 194 144 189 88 q 197 276 199 201 l 197 1065 l 406 1065 l 406 240 q 383 40 407 128 q 278 -92 358 -49 q 75 -136 199 -136 q 1 -132 38 -136 l 1 -189 l 3 -192 l 750 -186 l 742 1158 l 742 1179 l 740 1182 l 467 1174 l 467 1179 q -7 1176 388 1181 l 0 60 m 0 -132 l -4 -132 l -4 61 q -1 60 -3 61 l -10 1186 l 0 1188 l 13 1185 l 493 1196 l 493 1194 l 721 1201 l 721 1192 l 743 1192 l 751 -196 l 743 -197 l 729 -194 l 0 -201 l 0 -132 z "},"K":{"ha":1315,"x_min":-1,"x_max":1322,"o":"m 1321 -289 l 18 -294 l 15 -292 l 15 -267 l 0 1321 q 828 1325 689 1326 l 826 1317 l 1303 1328 l 1306 1324 l 1306 1299 l 1321 -289 m 444 238 l 604 451 l 918 -250 l 1317 -249 l 838 701 l 1279 1271 l 878 1271 l 878 1268 l 444 668 l 444 1271 l 99 1271 l 99 -249 l 444 -249 l 444 238 z "},"L":{"ha":714,"x_min":6,"x_max":669,"o":"m 344 1229 l 221 1228 l 229 269 l 614 274 l 613 381 l 351 378 l 344 1229 m 36 1271 l 668 1233 l 624 92 l 6 129 l 36 1271 z "},"M":{"ha":1899,"x_min":-17,"x_max":1925,"o":"m 1826 -236 l 1919 -236 l 1897 1294 l 1896 1318 l 1893 1322 l 1196 1313 l 1197 1319 q -11 1315 996 1321 l 11 -215 l 13 -239 l 15 -243 l 82 -242 l 82 1261 l 664 1261 l 665 1260 l 954 231 l 1243 1260 l 1246 1261 l 1826 1261 l 1826 -236 m 408 -242 l 758 -240 l 408 960 l 408 -242 m 1151 -239 l 1500 -237 l 1500 960 l 1151 -239 m 1264 1338 l 1844 1344 l 1844 1333 l 1901 1335 l 1925 -249 l 1903 -249 l 1868 -247 l 7 -254 l -17 1328 l 6 1328 l 40 1326 l 1263 1339 l 1264 1338 z "},"N":{"ha":1636,"x_min":46,"x_max":1626,"o":"m 1553 1238 l 1553 -233 l 1138 -233 l 374 843 l 374 -233 l 68 -233 l 69 -269 l 69 -292 l 72 -296 l 1621 -289 l 1603 1213 l 1603 1235 l 1600 1239 l 1553 1238 m 467 1235 l 1226 200 l 1226 1232 l 1033 1229 l 1033 1236 q 467 1235 917 1238 m 64 -233 l 54 -233 l 54 569 l 46 1244 l 64 1244 l 93 1243 l 1088 1254 l 1560 1261 l 1560 1250 l 1606 1250 l 1625 -301 l 1607 -301 l 1579 -300 l 65 -307 l 64 -233 z "},"O":{"ha":929,"x_min":-4,"x_max":897,"o":"m 890 413 q 886 289 889 344 q 854 118 881 186 q 772 15 828 50 q 617 -19 717 -19 q 461 15 517 -19 q 379 118 406 50 q 347 289 353 186 q 342 523 342 388 q 347 757 342 658 q 379 928 353 860 q 461 1031 406 996 q 617 1065 517 1065 q 772 1031 717 1065 q 854 928 828 996 q 886 757 881 860 q 888 722 888 740 l 885 1164 l 883 1183 l 882 1186 l -1 1181 l 8 -11 l 8 -29 l 11 -32 l 333 -25 l 333 -31 q 894 -28 426 -32 l 890 413 m 506 826 q 499 800 506 826 q 490 719 493 774 q 486 523 486 639 q 490 326 486 407 q 506 206 493 244 q 544 144 518 168 q 617 121 571 121 q 689 144 663 121 q 728 206 715 168 q 743 326 740 244 q 747 523 747 407 q 743 719 747 639 q 728 826 740 774 q 689 901 715 878 q 617 925 663 925 q 544 901 571 925 q 506 826 518 878 m 892 593 l 892 558 l 897 -36 l 888 -37 l 871 -35 l 303 -44 l 33 -50 l 33 -40 l 7 -42 l -4 1190 l 6 1190 l 22 1189 l 886 1196 l 892 593 z "},"P":{"ha":743,"x_min":-12,"x_max":744,"o":"m 350 639 l 350 1015 l 460 1015 q 558 1008 521 1015 q 624 970 596 1000 q 664 885 653 940 q 666 778 675 829 q 633 694 657 726 q 572 651 608 663 q 479 639 535 639 l 350 639 m 350 226 l 350 588 l 482 588 q 681 672 628 588 q 724 851 733 757 q 678 992 715 946 q 594 1053 642 1039 q 481 1067 546 1068 l 293 1067 l 293 226 l 350 226 m 500 1081 l 722 1076 l 722 1069 l 744 1069 l 724 181 l 715 181 l 701 182 l -11 201 l 10 1092 l 18 1092 l 32 1089 l 500 1081 l 500 1081 z "},"Q":{"ha":724,"x_min":19,"x_max":721,"o":"m 199 332 q 218 224 201 268 q 269 159 235 181 q 345 138 304 138 q 418 156 386 138 q 469 219 450 174 q 493 329 488 264 q 497 531 497 415 q 493 733 497 647 q 469 844 488 799 q 418 907 450 889 q 345 925 386 925 q 269 903 304 925 q 218 838 235 882 q 199 731 201 794 q 194 531 194 664 q 199 332 194 399 m 561 -129 l 426 -131 l 29 -136 l 29 -131 l 21 -131 l 40 1157 l 49 1156 l 661 1160 l 711 1161 l 711 1156 l 721 1156 l 701 -128 l 685 -128 l 561 -129 m 39 196 l 36 21 l 40 -125 l 410 -125 q 367 -108 390 -118 q 253 -72 307 -86 q 174 -68 200 -57 q 128 -117 149 -79 l 83 -79 q 138 -33 115 -50 q 190 -10 161 -15 q 204 -8 197 -8 q 150 14 172 0 q 60 122 89 50 q 39 196 46 156 m 567 -126 l 701 -126 l 719 1136 l 719 1149 l 651 1147 l 651 1151 q 47 1150 619 1153 l 44 894 q 60 939 51 918 q 149 1049 89 1013 q 347 1085 210 1085 q 545 1049 485 1085 q 633 940 606 1013 q 667 760 661 867 q 671 531 671 661 q 667 303 671 401 q 633 123 661 196 q 545 14 606 50 q 347 -22 485 -22 q 268 -18 304 -22 q 346 -46 299 -28 q 457 -83 404 -68 q 535 -86 510 -97 q 583 -37 561 -75 l 628 -60 q 572 -122 596 -104 q 567 -126 569 -124 z "},"R":{"ha":763,"x_min":-87,"x_max":783,"o":"m 121 511 l 476 511 q 585 526 542 511 q 656 579 628 540 q 694 682 683 618 q 692 814 706 746 q 646 919 679 882 q 569 965 613 956 q 454 975 525 975 l 121 975 l 121 511 m 701 68 l 738 601 q 713 553 726 576 q 601 467 675 492 l 540 453 q 522 450 532 451 l 701 68 m 54 1038 l 57 1068 l 68 1067 l 68 1104 l 54 1104 l 51 1101 l -21 118 l -28 118 q -86 -153 -37 -26 l -62 -154 l -62 -140 l -58 -115 l -11 167 l -10 167 l 51 997 l 51 1038 l 54 1038 m 758 807 q 769 1082 763 899 l 79 1104 l 68 1104 l 68 1108 l 782 1086 l 782 1069 l 779 1044 l 772 713 l 771 713 l 725 19 l 733 0 l 724 0 l 711 -187 l 699 -187 l 699 -228 l -62 -156 l -62 -154 l 654 -224 l 679 -224 l 683 -222 l 697 0 l 654 0 l 444 449 l 121 449 l 121 3 l 51 3 l 51 997 l 54 1038 l 478 1038 q 610 1021 554 1039 q 708 946 665 1003 q 758 807 744 897 z "},"S":{"ha":681,"x_min":-18,"x_max":675,"o":"m 374 897 q 406 899 389 899 l 415 899 l -12 915 l -12 838 l 7 794 l 4 824 l 4 825 l -3 908 l 374 897 m 444 897 q 474 894 460 896 l 646 889 l 444 897 m -14 915 l -17 915 l -14 843 l -14 915 m 415 899 q 444 897 431 899 q 474 894 460 896 q 525 879 503 889 q 599 813 569 858 q 618 642 628 768 l 525 642 q 519 749 529 697 q 449 817 510 801 q 343 805 388 832 q 294 710 299 778 q 365 598 290 643 q 501 520 439 553 q 599 438 563 488 q 642 311 636 389 q 643 292 643 301 l 650 292 l 651 260 l 646 889 l 649 889 l 653 206 l 658 58 l 649 58 l 649 63 l 646 63 l 635 64 l -8 58 l -14 842 l -12 838 l -7 86 l -7 69 l -6 68 l 649 72 l 643 288 q 625 183 644 225 q 554 102 603 133 q 419 71 506 71 q 288 93 332 71 q 213 158 243 115 q 189 358 183 201 l 283 358 l 283 299 q 307 192 288 215 q 397 153 331 163 q 503 182 464 143 q 540 285 542 221 q 508 387 538 349 q 411 458 479 425 q 292 529 343 492 q 220 602 242 567 q 197 690 199 638 q 217 792 194 742 q 285 869 239 842 q 374 897 321 892 q 406 899 389 899 l 415 899 m -12 915 l -14 915 l -17 1196 l -8 1196 l 4 1194 l 425 1232 l 425 1231 l 654 1208 l 654 1200 l 674 1200 l 649 889 l 646 889 l 672 1172 l 672 1189 l 671 1192 l 403 1213 l 403 1218 q -14 1188 333 1219 l -12 915 m 82 1246 l 82 1249 l 89 1247 l 89 1246 l 82 1246 z "},"T":{"ha":696,"x_min":-49,"x_max":664,"o":"m 32 974 l 197 960 l 132 128 l 317 113 l 383 944 l 549 931 l 561 1094 l 44 1135 l 32 974 m 453 1163 l 644 1153 l 644 1144 l 663 1144 l 583 38 l 575 38 l 564 40 l -49 83 l 32 1190 l 39 1189 l 51 1188 l 453 1164 l 453 1163 z "},"U":{"ha":1251,"x_min":-86,"x_max":1221,"o":"m 133 1197 q -82 1196 33 1197 l -65 -262 l -64 -285 l -62 -287 l 490 -285 q 329 -239 392 -274 q 183 -112 229 -185 q 133 143 138 -39 l 133 1197 m 744 -283 l 1217 -282 l 1200 1176 l 1200 1199 l 1197 1201 l 1131 1196 l 1131 143 q 1083 -105 1131 -25 q 928 -236 1035 -185 q 744 -283 857 -271 m 485 1200 l 479 225 q 494 97 478 135 q 570 40 511 58 q 688 40 629 21 q 764 95 747 58 q 781 225 781 132 l 781 1194 l 674 1193 l 674 1200 l 485 1200 m 214 1210 l 724 1218 l 724 1217 l 1161 1224 l 1161 1213 l 1203 1214 l 1221 -293 l 1204 -294 l 1178 -292 l -68 -300 l -86 1207 l -69 1208 l -43 1206 l 133 1208 l 133 1210 l 214 1210 z "},"V":{"ha":626,"x_min":8,"x_max":582,"o":"m 19 990 l 10 990 l 17 -126 l 17 -143 l 18 -146 l 579 -142 l 572 975 l 572 992 l 571 994 l 557 994 l 392 150 l 183 150 l 19 990 m 421 989 l 367 988 l 367 993 q 154 992 324 993 l 288 306 l 421 989 m 386 1006 l 557 1011 l 557 1003 l 574 1003 l 581 -150 l 574 -150 l 564 -149 l 15 -154 l 8 999 l 15 999 l 25 997 l 386 1007 l 386 1006 z "},"W":{"ha":1260,"x_min":-37,"x_max":1331,"o":"m 1219 -61 l 1324 1108 l 1325 1126 l 1324 1129 l 865 1168 l 867 1174 q 72 1251 735 1189 l -32 83 l -33 65 l -31 63 l 1219 -61 m 911 1183 l 1293 1149 l 1292 1140 l 1329 1138 l 1222 -69 l 1208 -69 l 1185 -65 l -37 53 l 71 1261 l 85 1260 l 107 1256 l 911 1183 l 911 1183 m 593 1 l 558 535 l 417 19 l 96 51 l 54 1099 l 315 1072 l 325 467 l 490 1054 l 731 1029 l 774 421 l 904 1013 l 1165 986 l 914 -32 l 593 1 z "},"X":{"ha":1122,"x_min":-7,"x_max":1122,"o":"m 8 -128 l 404 -128 l 561 244 l 721 -128 l 1117 -128 l 761 581 l 1065 1171 l 699 1171 l 561 864 l 428 1171 l 60 1171 l 367 581 l 8 -128 m 1103 1186 q 1121 -208 1122 14 l 531 -204 l -6 -201 q 49 993 -4 -189 l 32 1224 l 1103 1186 z "},"Y":{"ha":807,"x_min":-32,"x_max":808,"o":"m 150 -261 l 103 -258 l 150 -261 m 789 1333 l 778 1336 l 96 1339 l 789 1333 m 785 1333 l 808 1332 l 806 1160 l 801 1157 l 756 83 l 757 83 l 767 -251 l 768 -282 l 767 -301 l 150 -261 l 757 -294 q 751 31 749 -69 l 744 31 l 797 1328 l 794 1331 l 785 1333 m -10 1074 q -6 171 -10 331 l 1 171 l 14 -11 q 119 -22 71 -26 q 208 4 174 -21 q 250 65 243 29 l 261 117 l -10 1074 m 15 -251 l 15 -247 l 14 -247 l -31 169 l -32 169 l -21 1111 l -21 1165 l -21 1178 l -21 1208 l -19 1226 l 96 1339 l -10 1221 l -10 1165 l 218 1165 l 374 511 l 500 1165 l 760 1165 l 506 -8 q 398 -168 482 -104 q 211 -250 314 -232 q 103 -258 156 -260 l 15 -251 z "},"Z":{"ha":625,"x_min":-18,"x_max":671,"o":"m 31 307 l 346 921 l 81 921 l 31 307 m 392 -107 l -17 -103 l -17 -89 l -12 -67 l -7 219 l -4 221 l 56 921 l 54 1038 l 476 1038 l 657 1064 l 657 1038 l 653 1015 l 669 153 l 668 153 l 622 -47 l 610 -49 l 608 -83 l 465 -106 l 465 -117 q 481 -129 472 -121 l 463 -137 l 457 -137 l 454 -132 q 439 -140 449 -136 l 440 -107 l 399 -107 q 392 -108 396 -108 l 392 -107 m 656 657 q 649 864 653 751 l 482 774 l 656 657 m 647 875 q 639 1057 644 963 l 476 1036 l 476 921 l 156 282 l 476 282 l 476 165 l 18 165 l 18 179 l 11 181 q -4 -99 6 107 l 565 -82 l 592 -81 l 596 -79 l 643 193 l 651 193 q 656 649 667 279 l 461 775 l 647 875 z "},"[":{"ha":372,"x_min":-57,"x_max":375,"o":"m 97 1276 l 39 1276 q 38 -190 40 1236 l 43 -190 l 369 -194 l 368 1275 l 367 1275 l 367 1160 l 226 1160 l 226 -14 l 367 -14 l 367 -133 l 97 -133 l 97 1276 m -50 1274 l -54 1275 l -53 610 l -50 1274 m 38 -190 l 39 1276 l -54 1275 l -54 1285 l 375 1282 l 375 1272 l 374 1272 l 375 -204 l 372 -203 l 371 -201 l 42 -194 l -51 -197 l -57 -197 l -56 -192 l -53 -192 l -53 -162 l -54 -162 l -53 610 l -49 610 l -53 -181 l -51 -175 l -51 -192 l 38 -190 z "},"\\":{"ha":272,"x_min":-43,"x_max":383,"o":"m 51 1131 l 383 -67 l 289 -67 l -43 1131 l 51 1131 z "},"]":{"ha":426,"x_min":-19,"x_max":413,"o":"m 76 -42 l 171 -42 l 171 1132 l 78 1132 q 76 -42 78 858 m -12 1275 l -17 1276 l -15 611 l -15 876 l -14 611 l -11 1247 l -14 1247 l -12 1275 m 76 1251 l 300 1251 l 300 -161 l 75 -161 l 75 -189 l 81 -189 l 407 -193 l 406 1276 l 76 1278 l 76 1251 m 76 1132 q 75 -42 76 833 l 76 -42 l 78 1132 l 76 1132 m 75 -161 l 31 -161 l 31 -42 l 75 -42 l 76 1132 l 31 1132 l 31 1251 l 76 1251 l 76 1278 l -17 1276 l -17 1286 l 413 1283 l 413 1274 l 411 1274 l 413 -203 l 410 -201 l 408 -200 l 79 -193 l -14 -196 l -19 -196 l -18 -190 l -15 -190 l -15 -161 l -17 -161 l -15 611 l -14 611 l -11 611 l -15 -179 l -14 -174 l -14 -190 l 75 -189 l 75 -161 z "},"^":{"ha":583,"x_min":43,"x_max":519,"o":"m 375 1021 l 519 592 l 385 592 l 282 893 l 178 592 l 43 592 l 188 1021 l 375 1021 z "},"_":{"ha":435,"x_min":-1,"x_max":435,"o":"m 435 -18 l 435 -137 l -1 -137 l -1 -18 l 435 -18 z "},"`":{"ha":411,"x_min":96,"x_max":322,"o":"m 250 1344 l 322 1088 l 208 1088 l 96 1344 l 250 1344 z "},"a":{"ha":763,"x_min":-4,"x_max":918,"o":"m 19 89 l 11 -44 l 17 15 q 19 89 15 17 m 85 926 l 76 764 q 89 765 85 778 q 99 783 93 775 q 181 867 125 840 q 335 889 236 893 q 458 831 413 882 q 463 910 463 892 q 460 969 463 928 q 426 1028 457 1010 q 355 1043 396 1046 q 288 1013 314 1040 q 264 917 261 985 l 85 926 m 300 443 q 310 434 300 443 q 348 424 321 425 q 398 437 375 422 q 433 490 421 451 q 451 603 446 528 q 428 706 456 678 q 367 735 400 733 q 311 719 335 736 q 275 674 288 703 q 260 583 263 646 q 268 491 257 521 q 300 443 279 461 m 46 7 q 35 -1 40 -12 q 31 -44 33 -22 l 58 -44 l 46 7 m 754 1011 q 776 1153 764 1082 l 763 1154 l 761 1138 l 758 1106 l 754 1011 m 746 1154 l 719 1156 l 713 800 l 746 1154 m 200 1175 l 108 1179 l 97 1179 l 94 1176 l 89 1029 q 110 1082 97 1057 q 200 1175 140 1144 m 72 217 q 51 31 61 83 l 65 -36 l 676 -44 l 644 113 l 660 113 l 701 660 l 703 675 l 700 674 l 690 726 l 696 728 q 703 710 697 718 l 713 1156 l 556 1157 q 631 1070 607 1124 q 657 954 656 1017 q 647 729 658 892 l 625 276 l 460 285 l 461 331 q 308 272 411 269 q 206 283 249 272 l 72 217 m 42 456 l 49 621 l 51 668 l 39 457 l 42 456 m 685 -189 l 696 -190 l 699 -187 q 693 -118 696 -154 l 692 -142 l 686 -142 l 685 -189 m 33 461 l 68 1085 l 71 1132 l 76 1132 l 78 1185 l 713 1160 l 713 1164 l 719 1163 l 719 1160 l 746 1158 l 746 1161 l 785 1160 l 742 783 l 747 783 l 754 768 q 740 747 740 768 l 739 747 l 693 -118 l 690 -62 l 681 -61 l 682 -69 l 61 -60 l 61 -58 l 29 -57 q 13 -251 22 -142 l 685 -189 l 685 -194 l -4 -254 l -3 -235 l 0 -201 l 11 -57 l 4 -57 l 18 189 l 17 189 l 19 218 l 236 326 l 31 451 l 31 463 l 33 461 m 826 163 l 828 182 q 849 201 828 194 l 864 176 l 826 163 m 889 210 l 876 204 l 871 204 l 872 226 q 889 210 879 226 m 890 565 l 890 557 q 876 543 888 543 l 869 543 l 871 551 q 883 565 871 565 l 890 565 m 918 556 l 917 550 q 897 572 908 550 l 904 571 q 918 556 918 569 m 886 3 l 888 -18 q 867 -39 888 -29 l 850 -14 l 886 3 m 831 -56 l 843 -49 l 849 -49 l 849 -75 q 831 -56 842 -75 m 857 433 l 856 406 l 838 406 l 839 417 q 857 433 839 426 m 764 264 l 779 271 l 785 271 q 790 243 790 247 l 783 243 q 764 264 775 244 m 758 -82 l 758 -76 q 771 -64 761 -64 l 771 -71 q 758 -82 771 -82 m 763 21 l 778 68 l 792 68 q 801 43 792 53 q 776 35 786 35 l 776 0 l 785 -14 l 769 -12 l 763 21 z "},"b":{"ha":1053,"x_min":-65,"x_max":1118,"o":"m 314 404 l 313 371 q 381 208 313 275 q 546 143 450 140 q 708 213 640 144 q 772 376 775 281 q 703 539 771 472 q 539 604 635 606 q 376 533 443 601 q 314 404 322 478 m 14 1235 l 56 1333 l 1040 1260 l 42 1343 l 3 1257 l -1 1197 l 14 1233 l 14 1235 m 1117 733 q 1094 711 1115 714 l 1085 711 q 1117 744 1103 744 l 1117 733 m 1032 726 l 992 400 l 982 -189 l 965 -187 l 968 -197 l 22 -178 l 21 -175 l -65 -174 l 14 1235 l -6 714 l -56 -158 l 17 -160 l -37 22 l -28 154 l -32 64 l 28 -149 l 958 -167 l 907 19 l 931 18 l 943 171 q 864 60 913 111 q 549 -75 735 -72 q 214 44 331 -76 q 96 365 97 164 q 99 424 96 394 l 139 1267 l 354 1257 l 331 765 q 536 818 424 817 q 854 692 722 819 q 971 504 939 610 l 985 665 l 983 704 l 985 733 l 990 1261 l 1001 1261 l 997 831 l 1042 1260 l 1099 1257 l 1036 760 q 1053 736 1051 757 l 1053 724 l 1043 724 q 1032 726 1036 724 m 904 754 l 893 731 q 872 756 871 732 l 874 788 l 886 788 q 904 754 885 756 z "},"c":{"ha":867,"x_min":7,"x_max":883,"o":"m 408 -242 l 408 -235 q 421 -221 410 -221 l 422 -228 q 408 -242 422 -240 m 100 -122 l 96 -203 l 508 -214 l 504 -208 l 518 -200 l 525 -200 l 525 -214 l 790 -224 l 817 -224 l 821 -221 l 743 129 l 751 128 q 869 1172 761 289 l 136 1251 l 110 1251 l 107 1249 l 67 626 q 106 672 82 650 q 190 724 135 701 q 323 743 244 746 q 436 735 401 740 q 528 706 489 726 q 606 647 579 678 q 647 581 633 615 q 661 453 661 546 l 661 382 l 451 392 q 451 411 453 403 q 436 521 451 472 q 406 563 428 547 l 403 563 q 379 575 390 571 l 369 578 q 347 582 358 582 q 297 569 321 582 q 261 531 274 556 q 235 424 242 483 q 224 261 229 364 q 221 179 221 215 l 221 144 q 233 46 221 83 q 267 -7 244 8 q 324 -26 290 -22 q 380 -14 357 -29 q 414 25 403 1 q 439 132 433 71 l 443 167 l 444 181 l 653 169 q 644 71 649 117 q 617 -55 635 -22 q 570 -117 600 -87 q 486 -168 540 -146 q 278 -185 436 -189 q 144 -150 197 -178 q 100 -122 119 -136 m 86 -206 l 79 -206 l 99 167 l 97 171 l 8 169 l 10 194 l 11 213 l 13 213 q 14 256 13 233 l 15 256 l 15 272 q 31 485 21 392 l 79 1211 l 92 1211 l 93 1256 l 882 1175 l 882 1158 l 878 1131 l 769 75 l 768 75 l 847 -183 l 835 -183 l 835 -228 l 650 -221 l 650 -235 q 664 -253 656 -240 l 646 -261 l 640 -261 q 638 -254 639 -258 q 624 -262 632 -260 l 624 -221 l 525 -218 l 526 -231 q 510 -218 519 -232 l 86 -206 m 646 -112 l 633 -171 l 618 -171 q 604 -142 617 -154 q 632 -131 622 -132 l 629 -89 l 618 -74 l 636 -74 l 646 -112 m 567 -139 l 568 -162 q 546 -187 568 -176 l 526 -158 l 567 -139 z "},"d":{"ha":967,"x_min":-86,"x_max":921,"o":"m 704 390 q 646 521 699 464 q 486 599 582 592 q 320 540 390 604 q 244 381 250 476 q 302 215 238 286 q 461 139 367 143 q 628 196 557 132 q 704 356 700 260 l 704 390 m -85 753 q -64 729 -85 732 l -54 729 q -85 763 -71 763 l -85 753 m 128 764 l 138 740 q 160 764 160 740 l 160 796 l 147 796 q 128 764 147 764 m -40 1207 l -42 1207 l -44 1243 l -47 1274 l -46 1274 l -50 1342 l 910 1360 l 911 1324 l 11 1311 l 18 1208 l 15 1208 l 38 844 l 51 1275 l 63 1275 l 46 746 l 47 717 l 44 679 l 51 517 q 175 700 88 621 q 499 813 313 822 q 701 751 611 806 l 697 1243 l 913 1246 l 919 401 q 919 342 921 372 q 788 26 910 140 q 449 -79 667 -89 q 140 69 264 -69 q 65 182 93 122 l 71 29 l 94 29 l 36 -154 l 25 -183 l 28 -175 l 11 -175 l 26 414 l -1 742 q -11 739 -6 739 l -22 739 l -22 753 q -4 775 -19 774 l -40 1207 z "},"e":{"ha":910,"x_min":-4,"x_max":938,"o":"m 917 650 l 817 1208 l 911 1217 l 917 650 m 549 569 l 196 564 q 197 689 196 632 q 226 803 204 757 q 284 869 247 850 q 368 890 321 889 q 456 869 415 890 q 517 802 497 847 q 543 692 538 757 q 549 569 546 646 m 922 -19 l 646 -110 l 931 -74 l 922 -19 m 290 -85 l 296 -96 l 300 -114 l 417 -114 q 517 -92 479 -107 q 610 -47 578 -67 q 631 -35 621 -40 q 674 3 654 -18 q 714 67 697 31 q 751 253 747 143 q 753 344 753 294 l 550 340 q 549 281 550 306 q 526 169 544 214 q 467 101 508 124 q 380 77 426 78 q 296 94 333 76 q 256 126 274 106 l 258 207 l 260 213 l 218 206 q 204 272 208 236 q 199 396 200 329 l 753 404 l 753 489 q 744 724 750 629 q 701 909 736 835 q 592 1024 665 983 q 373 1063 518 1065 q 133 1014 228 1061 q 22 857 44 969 l 22 828 l 14 1072 l 14 1160 l 810 1199 l 917 576 l 931 13 l 931 -18 l 918 1231 l 813 1222 l 813 1224 l 6 1186 l 8 1178 l -4 1178 l 14 657 l 8 556 l 35 497 l 26 172 l 25 172 l 25 161 l 247 200 l 239 -92 l 250 -90 l 290 -85 m 251 -74 q 289 -83 269 -79 l 250 -87 l 251 -74 m 300 -114 l 417 -114 l 639 -110 l 922 -18 l 922 -17 l 931 13 l 931 -37 l 936 -79 l 639 -115 l 300 -114 z "},"f":{"ha":671,"x_min":14,"x_max":665,"o":"m 140 943 l 24 943 l 24 778 l 140 778 l 140 -244 l 353 -244 l 353 778 l 621 778 l 621 943 l 353 943 l 353 1054 q 393 1119 358 1103 q 488 1136 438 1142 q 563 1106 533 1129 l 631 1311 q 458 1336 576 1336 q 265 1291 339 1336 q 158 1176 192 1246 q 142 1032 139 1106 l 140 943 m 664 1378 l 603 -126 l 597 -265 q 15 -258 246 -250 l 15 1361 l 664 1378 z "},"g":{"ha":658,"x_min":-26,"x_max":660,"o":"m 625 747 l 628 817 l 418 826 l 413 728 l 515 722 q 507 606 513 656 q 492 517 503 546 q 460 473 481 489 q 406 458 440 457 q 353 478 372 460 q 326 526 335 497 q 319 615 318 554 q 324 761 319 675 q 333 907 328 847 q 349 985 338 947 q 381 1040 360 1024 q 438 1057 401 1057 q 494 1039 475 1057 q 517 980 513 1021 q 521 897 521 939 l 629 893 q 629 921 629 907 q 612 1049 629 997 q 554 1128 594 1100 q 440 1160 514 1156 q 323 1139 365 1163 q 258 1066 281 1115 q 229 940 236 1017 q 216 766 221 867 q 213 593 211 665 q 230 464 213 515 q 287 385 247 413 q 401 354 326 357 q 517 374 475 350 q 582 447 560 397 q 613 574 604 497 q 625 747 619 646 m 49 1208 l 658 1171 l 585 -26 l -25 11 l 49 1208 z "},"h":{"ha":710,"x_min":-46,"x_max":711,"o":"m 708 44 l 708 40 l 710 56 l 708 44 m -43 1251 l -43 1264 l -36 1264 l -36 1253 l -43 1251 m 44 -4 l 46 1279 l 207 1279 l 207 904 q 375 972 282 968 q 533 940 468 975 q 625 846 597 904 q 650 689 653 788 l 649 -4 l 488 -4 l 489 661 q 460 781 494 731 q 358 830 425 831 q 247 788 290 829 q 207 661 204 747 l 206 -4 l 44 -4 m -36 1297 l -36 1310 l 711 1328 l 711 1325 l 710 1297 l 707 300 l 708 44 l 703 -6 l 696 -6 l 701 49 l 700 297 l 701 297 l 703 1285 l 704 1329 l -36 1297 m -46 390 l -46 394 l -44 394 l -44 390 l -46 390 z "},"i":{"ha":322,"x_min":4,"x_max":283,"o":"m 51 986 l 222 986 l 222 1153 l 51 1153 l 51 986 m 224 885 l 53 885 l 53 146 l 224 146 l 224 885 m 4 1208 l 283 1208 l 283 38 l 4 38 l 4 1208 z "},"j":{"ha":415,"x_min":-14,"x_max":924,"o":"m 314 1064 l 181 1064 l 181 246 q 154 204 178 215 q 96 194 126 190 q 49 214 67 199 l 6 83 q 115 68 40 68 q 235 97 189 68 q 303 169 282 125 q 314 260 315 214 l 314 1064 m 181 1111 l 314 1111 l 314 1239 l 181 1239 l 181 1111 m 583 325 l 594 271 l 619 271 l 606 293 l 606 350 q 644 364 619 350 q 628 404 628 381 l 606 404 l 583 325 m 826 1211 q 806 1235 826 1232 l 794 1235 q 826 1200 813 1200 l 826 1211 m 493 925 q 454 990 454 951 l 446 990 l 446 906 l 493 925 m 569 519 q 603 488 589 488 l 614 488 q 603 531 614 493 l 594 531 l 569 519 m 761 1225 l 751 1225 q 731 1200 731 1225 l 731 1188 l 740 1188 q 761 1211 758 1188 l 761 1225 m 922 486 q 903 469 903 486 l 903 458 q 922 478 919 458 l 922 486 m 608 1200 l 597 1225 q 575 1200 575 1225 l 575 1167 l 588 1167 q 608 1200 588 1200 m 797 640 q 768 668 781 668 l 768 632 l 778 632 l 797 640 m 696 356 l 754 381 l 729 421 q 696 389 696 407 l 696 356 m 710 803 q 682 775 682 790 l 682 756 l 710 756 l 710 803 m 385 3 l -12 3 l -10 883 l -4 883 l 6 1301 l 89 1349 l 128 1253 q 351 1263 135 1263 q 364 1281 351 1272 q 375 1257 375 1269 q 407 1272 379 1257 l 381 1144 l 388 1096 l 385 3 z "},"k":{"ha":822,"x_min":33,"x_max":821,"o":"m 328 376 l 490 -50 l 747 -50 l 525 449 l 732 838 l 497 838 l 493 835 l 328 500 l 328 1018 l 103 1018 l 103 -51 l 328 -51 l 328 376 m 819 0 l 701 -115 l 339 -131 l 33 -131 l 35 1046 l 47 1046 l 47 1054 l 786 1058 l 819 0 z "},"l":{"ha":538,"x_min":14,"x_max":500,"o":"m 163 1276 l 375 1276 l 372 -67 l 158 -67 l 163 1276 m 51 -182 l 51 -228 q 472 -243 150 -217 l 472 -165 q 472 -153 472 -160 l 461 -154 l 460 -157 l 460 -154 q 199 -174 297 -165 q 203 -146 217 -146 q 194 -142 199 -146 l 161 -142 q 149 -165 149 -142 l 149 -169 q 151 -175 149 -174 l 158 -175 l 51 -182 m 26 -117 l 457 -118 l 457 -114 q 465 -103 463 -103 l 463 -85 q 468 -65 463 -79 q 465 0 465 -22 l 465 4 l 465 8 q 474 38 468 38 l 482 38 l 482 72 q 475 71 482 72 l 469 71 q 458 99 461 99 q 468 138 468 131 l 468 158 q 474 165 469 165 q 482 163 475 164 l 482 181 l 472 181 q 468 186 468 181 l 468 203 q 472 208 468 208 l 483 207 l 485 1318 q 465 1315 465 1315 l 63 1326 q 56 1328 61 1328 q 51 1326 51 1326 q 38 1331 44 1328 l 36 1331 q 31 1328 35 1328 l 32 1324 l 32 1321 q 31 1317 32 1317 l 31 1317 l 26 -117 m 32 1306 q 32 1321 32 1311 l 31 1321 l 28 1322 q 26 1321 28 1321 l 22 1321 q 21 1315 21 1317 q 32 1224 32 1203 l 32 1224 l 32 1226 l 32 1236 q 32 1246 32 1242 l 32 1251 q 32 1267 32 1254 q 32 1292 32 1288 q 32 1306 32 1294 m 40 -268 l 39 -185 l 38 -185 l 17 -183 l 17 -181 l 22 -115 l 14 1351 l 494 1351 l 492 -117 l 490 -117 l 490 -140 q 489 -142 489 -140 l 494 -143 l 500 -144 l 500 -147 q 492 -151 500 -151 q 482 -153 486 -153 l 482 -269 l 40 -268 z "},"m":{"ha":2078,"x_min":22,"x_max":2054,"o":"m 2053 1282 l 2039 1283 l 2039 1279 l 2049 1279 l 2031 836 q 2031 793 2032 815 l 2018 497 l 2014 411 l 1993 -115 l 1986 -296 l 1988 -296 q 1990 -293 1990 -294 l 1997 -115 l 2018 411 l 2053 1282 m 672 -272 l 704 -62 l 24 -69 l 29 67 l 39 304 l 81 1357 l 2039 1311 l 2040 1310 l 2039 1283 l 100 1343 q 71 306 136 1231 q 53 64 63 194 q 43 -53 49 8 l 104 -53 l 108 58 l 118 308 l 157 1289 l 479 1275 l 478 1139 q 803 1298 635 1297 q 1075 1235 972 1299 q 1189 1135 1144 1193 q 1535 1265 1342 1267 q 1834 1199 1731 1263 q 1988 1035 1938 1136 q 2031 836 2029 950 l 2018 497 l 2014 411 l 1986 -247 l 1614 -231 l 1621 -81 l 1642 390 l 1654 689 q 1642 808 1657 742 q 1578 910 1628 874 q 1468 942 1529 946 q 1360 910 1407 938 q 1295 828 1314 883 q 1269 706 1276 772 l 1256 369 l 1236 -46 l 1229 -210 l 1228 -210 l 1228 -211 l 857 -196 l 864 -11 l 875 217 l 879 350 l 896 769 q 885 836 893 801 q 820 932 869 896 q 710 971 771 968 q 603 947 649 974 q 539 884 557 919 q 511 742 521 849 l 493 329 l 481 25 l 478 -47 l 713 -44 l 686 -219 l 1974 -294 l 1978 -296 q 1981 -294 1978 -294 l 1986 -296 l 1986 -312 l 672 -272 z "},"n":{"ha":785,"x_min":-46,"x_max":844,"o":"m 474 46 l 475 633 q 453 760 481 717 q 358 802 425 803 q 254 760 290 801 q 221 633 218 719 l 219 72 l 474 46 m 46 632 l -26 139 l -22 124 l -25 94 l 44 86 l 46 632 m 307 -47 l 315 -47 l 315 -29 q 308 -33 311 -32 l 307 -47 m 269 -62 l 269 -69 l 271 -49 l 269 -62 m 408 -43 l 433 -43 l 421 -8 q 408 -21 415 -15 l 408 -43 m 786 813 q 844 861 843 839 l 828 863 q 788 831 793 864 l 786 824 l 786 813 m 746 194 l 786 201 l 788 219 l 771 210 l 728 213 q 719 242 728 222 q 688 231 707 229 l 688 214 l 746 194 m 397 304 q 417 283 406 283 l 431 282 l 432 303 l 397 304 m 726 281 l 710 324 l 679 307 q 701 281 688 282 l 726 281 m 519 365 q 483 344 483 354 l 525 343 l 525 350 l 519 365 m 635 454 q 647 439 635 439 l 656 439 q 642 454 656 450 l 635 454 m 601 190 q 626 214 626 204 l 628 222 q 594 215 624 222 l 594 210 l 601 190 m 751 635 l 782 647 q 835 610 781 613 l 833 590 l 781 593 q 749 606 758 594 l 725 246 l 760 951 l 761 961 l 779 1115 l 379 1136 l 367 1147 q 78 1107 299 1138 l 96 960 l 179 960 l 179 904 q 368 972 268 968 q 533 940 468 975 q 625 846 597 904 q 650 689 653 788 l 649 28 l 696 18 l 713 183 l 715 183 l 697 8 l 686 8 l 668 13 l 649 15 l 488 31 l 44 75 l -39 83 l 46 644 l 94 960 l 76 1118 l 88 1117 l 108 1128 l 374 1164 l 393 1140 l 769 1126 l 769 1117 l 797 1129 l 751 635 m 779 1115 l 781 1115 l 781 1118 l 779 1115 m -46 390 l -46 394 l -44 394 l -44 390 l -46 390 z "},"o":{"ha":1256,"x_min":26,"x_max":1249,"o":"m 547 158 q 781 239 682 150 q 889 463 881 328 q 810 695 900 594 q 588 803 719 796 q 353 724 454 813 q 246 501 253 635 q 325 269 236 368 q 547 158 414 169 m 1192 433 q 983 15 1174 182 q 742 -119 874 -82 l 944 -124 l 942 -119 l 950 -111 l 954 -111 l 954 -124 l 1153 -126 l 1169 -126 l 1171 -125 l 1175 199 l 1181 199 q 1192 433 1182 257 m 1238 1246 q 1239 1274 1239 1258 l 82 1354 l 65 1354 l 64 1351 l 50 836 q 154 953 92 899 q 606 1107 349 1125 q 1038 899 865 1093 q 1194 469 1201 714 q 1222 975 1204 663 l 1001 1135 l 1238 1246 m 1224 992 q 1236 1231 1229 1101 l 1024 1133 l 1224 992 m 108 -106 l 369 -111 q 106 63 219 -61 l 114 -71 l 111 -71 l 108 -106 m 28 481 l 40 822 l 53 1317 l 60 1317 l 61 1358 l 1247 1276 l 1247 1260 l 1244 1235 l 1183 150 l 1189 -89 l 1181 -89 l 1181 -131 l 1033 -129 l 1033 -140 q 1042 -157 1038 -146 l 1032 -165 l 1028 -165 q 1026 -160 1028 -162 q 1018 -167 1024 -164 l 1018 -128 l 958 -128 l 958 -139 q 949 -128 954 -140 l 706 -128 l 113 -131 l 111 -135 l 106 -133 l 64 -132 l 81 0 l 93 -1 q 74 475 104 122 l 26 475 l 26 481 l 28 481 z "},"p":{"ha":778,"x_min":-199,"x_max":768,"o":"m -187 -317 l -178 -360 l -158 -360 l -169 -343 l -169 -296 q -139 -285 -158 -296 q -151 -253 -151 -272 l -169 -253 l -187 -317 m -86 67 q -108 44 -108 57 l -108 29 l -86 29 l -86 67 m -97 -292 l -51 -272 l -71 -239 q -97 -265 -97 -250 l -97 -292 m -17 -62 q -39 -40 -29 -40 l -39 -71 l -32 -71 l -17 -62 m -167 386 l -176 406 q -194 386 -194 406 l -194 360 l -185 360 q -167 386 -185 386 m 85 -186 q 69 -200 69 -186 l 69 -208 q 85 -193 82 -208 l 85 -186 m -44 406 l -53 406 q -69 386 -69 406 l -69 376 l -61 376 q -44 394 -47 376 l -44 406 m -199 -160 q -172 -186 -183 -186 l -162 -186 q -172 -151 -162 -182 l -178 -151 l -199 -160 m -69 381 q -94 425 -94 399 l -100 425 l -100 368 l -69 381 m 8 394 q -10 414 8 411 l -18 414 q 8 386 -3 386 l 8 394 m 757 544 l 746 -250 l 153 -250 l 126 -293 l 17 -246 l 15 174 l 7 174 l 26 1054 l 139 1192 l 767 1197 l 763 918 q 718 981 744 950 q 464 1103 617 1094 q 198 1012 313 1113 q 75 760 83 911 q 74 711 72 735 l 74 15 l 251 15 l 251 421 q 418 369 326 375 q 686 461 571 360 q 757 544 729 499 m 251 718 l 251 746 q 315 877 256 825 q 453 924 374 929 q 583 860 531 919 q 631 724 636 801 q 567 592 625 644 q 429 546 508 540 q 299 610 350 551 q 251 718 256 658 z "},"q":{"ha":796,"x_min":-115,"x_max":801,"o":"m 199 688 q 216 565 201 625 q 261 478 231 506 q 343 451 292 451 q 426 478 396 451 q 471 565 457 506 q 489 688 485 625 l 489 756 q 471 894 485 850 q 426 965 457 938 q 343 992 396 992 q 261 965 292 992 q 216 894 231 938 q 199 756 201 850 l 199 688 m 56 81 q 79 58 79 71 l 79 43 l 56 43 l 56 81 m 40 394 q 65 439 65 413 l 71 439 l 71 382 l 40 394 m 168 44 q 142 21 153 21 l 133 21 q 142 51 133 25 l 149 51 l 168 44 m 18 1142 l 54 1040 l 56 1040 l 18 1142 m -115 21 q -99 10 -99 21 l -99 1 q -115 15 -112 1 l -115 21 m -37 519 q -21 536 -37 533 l -12 536 q -37 513 -26 513 l -37 519 m 35 718 l 24 419 q 39 400 39 419 l 39 390 l 31 390 q 22 393 26 390 l 7 -26 l 8 -26 l 8 -39 l 29 -40 l 40 -24 q 65 -40 61 -31 l 121 -43 q 122 -35 122 -39 l 140 -35 l 142 -43 l 793 -62 l 783 1013 l 729 1161 l 388 1151 q 543 1065 486 1143 l 543 1124 l 671 1124 l 672 39 l 515 39 l 515 358 q 343 290 453 290 q 165 331 229 290 q 72 449 101 371 q 35 644 42 526 l 35 718 m 283 1149 l 18 1142 l 10 1163 l 733 1182 l 790 1040 l 800 -74 l 146 -53 l 157 -90 l 149 -128 l 129 -128 l 140 -112 l 140 -72 q 108 -64 129 -72 q 118 -53 114 -58 l 67 -51 l 67 -69 l 21 -53 l 22 -50 l 8 -49 l 8 -57 l 1 -57 l -14 -49 q -1 -32 -7 -37 l 15 406 q 14 408 14 407 l 14 419 l 15 419 l 38 1040 l 54 1040 l 64 1013 l 46 1013 l 40 861 q 71 994 50 938 q 165 1113 101 1072 q 283 1149 211 1140 z "},"r":{"ha":592,"x_min":35,"x_max":601,"o":"m 38 1044 l 38 1026 l 42 1135 l 60 1225 l 550 1203 l 53 1232 l 36 1160 l 36 1088 l 38 1054 l 36 1104 l 38 1044 m 496 782 l 490 761 q 479 782 479 761 l 479 808 l 485 808 q 496 782 485 782 m 38 1044 l 54 311 l 76 314 l 61 388 l 63 388 l 49 1103 l 201 1103 l 201 1031 q 323 1124 256 1115 q 476 1108 390 1132 l 429 950 q 309 966 361 976 q 231 912 257 956 q 207 757 204 868 l 207 388 l 69 388 l 82 324 l 543 344 l 514 496 l 525 496 l 536 713 l 536 767 l 525 1203 l 531 1203 l 540 849 l 551 1203 l 579 1203 l 561 792 q 569 774 568 790 l 569 761 l 564 761 q 560 764 561 761 l 547 493 l 556 328 l 547 328 l 549 321 l 79 299 l 79 301 l 50 299 l 38 1054 l 38 1044 m 600 774 q 590 753 600 756 l 586 753 q 600 782 594 782 l 600 774 z "},"s":{"ha":683,"x_min":-10,"x_max":690,"o":"m -8 1244 l 208 1099 l -8 982 l -8 1244 m 139 149 l 185 168 l 165 201 q 139 175 139 190 l 139 149 m 321 254 q 306 240 306 254 l 306 232 q 321 247 318 232 l 321 254 m 38 281 q 64 254 53 254 l 74 254 q 64 289 74 258 l 58 289 l 38 281 m 244 835 q 226 854 244 851 l 218 854 q 244 826 233 826 l 244 835 m 624 518 l 528 56 l 13 50 l 17 171 l 0 171 l 3 964 l 238 1090 l 233 1093 l 242 1097 l 35 1233 l 39 1233 q 44 1246 40 1239 l 46 1274 l 567 1274 l 588 1310 l 681 1271 l 682 917 l 689 917 l 688 829 l 664 717 q 628 807 656 772 q 539 881 592 851 l 532 883 q 482 914 508 899 q 461 926 471 919 l 460 925 q 392 981 414 951 q 366 1065 368 1015 q 397 1143 364 1114 q 485 1169 431 1172 q 559 1139 540 1167 q 574 1029 578 1111 l 667 1029 q 647 1169 671 1128 q 579 1233 624 1211 q 463 1253 535 1256 q 344 1219 390 1251 q 281 1142 299 1188 q 267 1035 263 1097 q 306 929 271 974 q 394 857 342 885 q 401 853 397 854 q 453 822 425 838 l 472 810 l 474 811 q 542 756 519 785 q 568 657 567 721 q 537 563 569 593 q 449 537 504 533 q 371 573 394 540 q 357 701 347 606 l 257 699 q 278 532 250 572 q 350 469 306 492 q 467 449 394 447 q 585 483 539 451 q 624 518 607 499 m 49 124 l 58 81 l 78 81 l 67 97 l 67 144 q 97 156 78 144 q 85 188 85 168 l 67 188 l 49 124 z "},"t":{"ha":603,"x_min":21,"x_max":569,"o":"m 307 104 l 108 111 l 92 75 l 22 117 l 32 471 l 26 471 l 47 883 l 163 881 l 144 340 q 154 244 142 290 q 224 167 175 199 q 351 133 272 135 q 367 132 360 132 l 307 104 m 458 176 l 426 282 q 375 264 406 267 q 313 276 342 261 q 286 321 289 289 l 304 876 l 450 872 l 453 994 l 308 999 l 317 1263 l 174 1268 l 165 1003 l 53 1006 l 63 1215 l 139 1328 l 568 1319 l 568 1300 l 375 1197 l 563 1076 l 540 215 l 458 176 m 561 1290 l 556 1086 l 390 1197 l 561 1290 z "},"u":{"ha":967,"x_min":0,"x_max":967,"o":"m 818 1100 l 925 1100 l 925 372 q 890 157 925 246 q 771 22 854 68 q 549 -24 688 -24 q 328 22 411 -24 q 209 157 244 68 q 174 372 174 246 l 175 1100 l 282 1100 l 282 360 q 307 206 282 269 q 392 110 332 143 q 549 76 450 76 q 708 110 649 76 q 793 206 768 142 q 818 360 818 269 l 818 1100 m 938 -151 l 964 -151 l 965 -144 l 961 -144 l 942 508 l 944 567 l 938 1143 l 132 1143 l 1 1033 l 15 -103 l 18 -107 q 19 808 19 156 l 8 808 l 10 813 l 11 824 l 11 825 l 78 825 l 78 817 l 61 817 l 60 808 l 22 808 l 33 228 l 19 -75 l 19 -81 l 18 -108 l 25 -117 l 919 -108 l 939 415 l 938 -151 z "},"v":{"ha":967,"x_min":-189,"x_max":1011,"o":"m 878 814 l 674 69 l 857 65 l 838 217 l 847 217 l 876 751 l 878 814 m -183 511 l -187 440 l -186 440 l -183 511 m 885 1242 l 261 1243 l 324 1240 l 324 1239 l 885 1242 m -183 511 l -156 1236 l -147 1236 l -147 1272 l 64 1256 l 64 1254 l -119 1269 l -136 1269 l -139 1267 l -183 511 m 964 860 q 974 890 974 871 l 976 890 l 975 850 l 964 860 m 956 878 l 958 878 q 964 864 964 878 l 964 856 l 960 857 q 954 869 956 857 l 956 878 m 890 1242 l 890 1219 l 906 1219 l 907 1242 l 932 1240 l 929 1218 l 907 918 l 878 532 l 868 47 l 860 47 l 861 40 l -181 65 l -182 90 l 293 78 l 60 1250 l 261 1243 l 133 1243 l 135 1239 l 324 1239 l 486 274 l 729 1226 l 885 1219 l 885 1242 l 890 1242 m 1000 863 l 1003 876 q 1010 861 1010 875 l 1008 843 l 1006 843 q 1000 863 1006 861 m 936 871 q 942 885 936 882 l 946 885 q 935 864 939 864 l 936 871 z "},"w":{"ha":1790,"x_min":-62,"x_max":1851,"o":"m 711 1188 l 703 1208 q 683 1189 685 1210 l 682 1161 l 692 1160 q 711 1188 693 1189 m 890 1185 q 875 1206 892 1201 l 867 1207 q 890 1175 879 1176 l 890 1185 m 600 960 q 572 1018 569 985 l 565 1019 l 560 947 l 600 960 m 839 1200 l 829 1200 q 811 1181 813 1201 l 810 1171 l 819 1169 q 838 1188 833 1169 l 839 1200 m 621 258 l 628 211 l 647 210 l 638 229 l 640 278 q 674 288 653 278 q 663 324 661 303 l 644 324 l 621 258 m 621 424 q 647 394 635 394 l 656 393 q 649 431 656 399 l 642 432 l 621 424 m 910 376 q 893 363 893 378 l 892 354 q 908 369 904 353 l 910 376 m 815 513 q 793 538 804 538 l 792 507 l 799 507 l 815 513 m 753 656 q 728 633 729 646 l 726 617 l 750 615 l 753 656 m 764 296 l 756 313 l 747 289 l 764 296 m 107 1229 l 386 1201 l 415 118 l 743 1167 l 1036 1138 l 1156 44 l 1394 1103 l 1700 1072 l 1369 -275 l 1615 -296 l 1644 -299 l 1649 -296 l 1733 821 l 1743 818 q 1835 1124 1799 1044 l 154 1351 l 124 1354 l 119 1351 l 107 1229 m 253 -179 l 143 -169 l 89 1046 l 10 263 l 0 265 q -46 -154 -14 156 l 253 -179 m 922 -236 l 831 546 l 756 313 l 746 332 q 718 306 718 322 l 715 278 l 747 289 l 588 -208 l 922 -236 m 1368 -279 l 924 -246 l 922 -242 l -61 -157 l -60 -137 l -53 -104 l -17 329 l -14 328 l 86 1308 l 100 1307 l 106 1360 l 1850 1128 l 1849 1107 l 1842 1075 l 1760 756 l 1758 756 l 1683 -253 l 1668 -251 l 1664 -304 l 1368 -279 z "},"x":{"ha":601,"x_min":-15,"x_max":942,"o":"m 942 419 l 942 413 q 925 397 939 397 l 926 406 q 942 419 926 419 m 542 497 l 560 1171 l 561 1194 l 563 1208 l 174 1210 l 221 1210 l 271 1035 l 324 1208 l 510 1207 l 385 907 l 379 899 l 542 497 m 11 493 l 8 283 l 6 261 l 6 246 l 532 243 l 532 282 l 538 282 l 542 486 l 351 489 l 267 708 l 178 490 l 11 493 m 36 1210 l 35 1174 l 31 1174 l 14 592 l 13 564 l 158 901 l 153 910 l 36 1210 m 774 675 l 772 638 l 750 638 l 750 653 q 774 675 751 665 m 668 293 l 686 357 l 704 356 q 717 324 704 336 q 686 313 697 313 l 685 267 l 696 249 l 676 249 l 668 293 m 154 1211 l 579 1213 q 557 515 563 656 l 553 515 l 547 210 l 546 208 l 535 208 l -15 204 l 15 1211 l 19 1213 l 154 1211 m 871 1001 l 871 993 q 846 1021 860 993 l 854 1021 q 871 1001 871 1018 m 628 775 l 589 760 l 590 828 l 597 828 q 628 775 597 796 m 658 449 l 679 458 l 685 458 q 693 422 693 426 l 685 422 q 658 449 674 422 m 819 1014 l 819 1001 q 801 983 817 983 l 793 985 l 793 994 q 811 1014 794 1014 l 819 1014 m 696 994 q 679 968 679 996 l 669 968 l 669 996 q 688 1015 669 1015 l 696 994 m 842 543 l 826 538 l 819 538 l 819 567 q 842 543 829 567 m 758 317 l 758 343 q 786 368 758 358 l 804 335 l 758 317 z "},"y":{"ha":621,"x_min":42,"x_max":608,"o":"m 574 175 l 593 981 l 431 293 q 346 181 411 224 l 317 167 l 569 138 l 572 147 l 574 175 m 603 1078 l 86 1101 l 68 1101 l 67 1100 l 65 1024 l 60 178 l 119 178 l 119 193 l 121 281 q 188 272 157 271 q 243 288 221 272 q 271 325 265 303 l 278 357 l 106 1035 l 264 1032 l 354 619 l 440 1028 l 594 1025 l 594 1067 l 603 1078 m 199 164 l 43 163 l 43 175 l 44 196 l 43 464 l 44 464 l 49 1072 l 57 1072 l 57 1104 l 606 1079 l 608 1079 l 607 1069 l 579 133 l 578 133 l 578 124 l 286 156 l 199 164 z "},"z":{"ha":760,"x_min":-3,"x_max":746,"o":"m 3 106 l 683 47 l 690 135 l 696 147 l 694 499 q 701 875 697 743 l 297 308 l 665 286 l 654 104 l 67 142 l 78 322 l 490 890 l 115 914 l 126 1094 l 713 1058 l 714 1060 l 714 1108 l 711 1108 l 729 1125 l 743 1138 l 733 1139 l 733 1144 l 744 1143 l 744 1142 l 746 1140 l 715 1007 l 713 914 l 710 644 l 710 631 l 707 150 l 696 131 l 690 46 l 690 35 l 7 100 l -3 101 l -3 110 l 92 1201 l 93 1213 l 732 1168 l 732 1167 l 96 1211 l 96 1200 l 97 1200 l 97 1206 l 732 1157 l 732 1139 l 100 1196 l 97 1183 l 3 106 z "},"{":{"ha":389,"x_min":-8,"x_max":483,"o":"m 8 -240 l 8 -247 l 40 -244 l 40 -247 l 81 -240 l 271 -225 l 79 -236 l 38 -242 l 38 -237 l 8 -240 m -7 1206 l -8 1206 l -4 796 l -4 806 l -7 1206 m 371 1210 l 369 1132 q 248 1010 240 1154 q 258 726 256 865 q 133 535 261 588 q 257 344 260 483 q 247 61 254 206 q 369 -61 240 -83 l 371 -150 q 213 -103 272 -164 q 157 79 153 -42 q 165 333 161 200 q 7 529 169 460 l 7 -189 q 8 -169 7 -169 l 10 -169 l 8 -240 l 4 -240 l 4 -231 l 6 -129 l 4 -129 l 3 -158 l -1 533 q -7 535 -4 533 q -1 536 -4 536 l -4 796 l 6 799 l 7 540 q 165 739 169 611 q 157 992 161 871 q 213 1174 153 1113 q 261 1208 233 1196 l -7 1206 l -7 1219 l 460 1239 l 471 1238 l 474 879 l 472 879 l 482 -104 l 481 -104 l 479 -156 l 479 -212 l 271 -225 l 472 -207 l 472 -167 l 474 -132 l 475 -131 l 471 869 l 465 868 l 465 1210 l 463 1207 l 464 1210 l 371 1210 z "},"|":{"ha":504,"x_min":240,"x_max":319,"o":"m 319 1154 l 319 -211 l 240 -211 l 240 1154 l 319 1154 z "},"}":{"ha":476,"x_min":-11,"x_max":504,"o":"m 503 -96 l 493 292 l 492 292 l 493 282 l 503 -96 m 464 1132 l 464 1139 l 431 1138 l 432 1140 l 392 1135 l 197 1263 l 393 1131 l 433 1135 l 433 1132 l 464 1132 m 503 -96 l 503 -96 l 504 -112 l 503 -112 l 503 -110 l 199 -114 l 25 -115 l 17 224 l 18 225 l -11 1154 l -10 1154 l -8 1203 l -10 1236 l -10 1256 l 197 1263 l -3 1251 l -1 1214 l -3 1179 l -4 1179 l 19 233 l 25 233 l 31 -89 l 33 -86 l 32 -89 l 60 -90 l 60 -65 q 171 60 181 -85 q 156 343 161 204 q 271 536 150 482 q 150 725 150 586 q 153 1008 150 864 q 36 1128 157 1153 l 33 1217 q 183 1172 126 1232 q 239 992 240 1113 q 236 738 238 871 q 403 539 235 606 q 244 333 238 465 q 257 79 250 200 q 218 -92 263 -31 l 503 -96 m 464 1132 l 467 1132 l 468 1028 l 469 1028 l 471 1054 l 492 292 l 483 290 l 475 604 l 467 1085 l 465 1065 l 464 1065 l 464 1132 z "},"~":{"ha":1242,"x_min":31,"x_max":1217,"o":"m 226 488 q 188 478 226 488 q 101 403 150 468 l 31 468 q 124 550 72 519 q 244 591 176 581 q 388 585 311 601 q 600 528 464 568 q 838 463 736 488 q 1018 457 940 438 q 1146 542 1096 476 l 1217 478 q 1123 394 1175 425 q 1003 353 1071 364 q 859 360 936 343 q 647 417 782 376 q 406 483 511 457 q 226 488 301 508 z "},"¡":{"ha":425,"x_min":-11,"x_max":411,"o":"m 331 701 l 331 -125 l 144 -125 l 144 701 l 331 701 m 332 785 l 144 785 l 144 974 l 332 974 l 332 785 m -4 -78 l -1 -221 l 399 -222 l 410 1021 l 410 1032 l 410 1033 l 368 1032 l 368 1035 q 3 1035 349 1038 l -4 -78 m 1 1040 l 4 1040 l 7 1039 l 374 1043 l 404 1044 l 404 1039 l 410 1040 l 399 -224 l 389 -224 l -4 -232 l -4 -226 l -10 -228 l 1 1040 z "},"¢":{"ha":924,"x_min":7,"x_max":939,"o":"m 646 -112 l 633 -171 l 618 -171 q 604 -142 617 -154 q 632 -131 622 -132 l 629 -89 l 618 -74 l 636 -74 l 646 -112 m 567 -139 l 568 -162 q 546 -187 568 -176 l 526 -158 l 567 -139 m 228 65 l 418 550 q 406 563 413 557 l 403 563 q 379 575 390 571 l 369 578 q 347 582 358 582 q 297 569 321 582 q 261 531 274 556 q 235 424 242 483 q 224 261 229 364 q 221 179 221 215 l 221 144 q 228 65 221 101 m 486 724 l 511 786 l 565 781 l 535 703 q 607 646 582 676 q 647 581 633 615 q 661 453 661 546 l 661 382 l 451 392 q 451 411 453 403 q 446 478 451 447 l 260 0 q 268 -7 263 -3 q 317 -24 290 -22 q 381 -8 343 -26 l 381 -11 q 414 25 403 1 q 439 132 433 71 l 443 167 l 444 181 l 653 169 q 644 71 649 117 q 617 -55 635 -22 q 570 -117 600 -87 q 486 -168 540 -146 q 368 -189 436 -189 l 367 -186 q 275 -183 333 -186 q 193 -169 229 -181 l 179 -204 l 508 -214 l 504 -208 l 518 -200 l 525 -200 l 525 -214 l 846 -224 l 872 -224 l 876 -221 l 799 129 l 807 128 q 925 1172 817 289 l 136 1251 l 110 1251 l 107 1249 l 67 626 q 106 672 82 650 q 190 724 135 701 q 323 743 244 746 q 436 735 401 740 q 486 724 463 731 m 408 -242 l 408 -235 q 421 -221 410 -221 l 422 -228 q 408 -242 422 -240 m 10 194 l 11 213 l 13 213 q 14 256 13 233 l 15 256 l 15 272 q 31 485 21 392 l 79 1211 l 92 1211 l 93 1256 l 938 1175 l 938 1158 l 933 1131 l 825 75 l 824 75 l 903 -183 l 890 -183 l 890 -228 l 650 -221 l 650 -235 q 664 -253 656 -240 l 646 -261 l 640 -261 q 638 -254 639 -258 q 624 -262 632 -260 l 624 -221 l 525 -218 l 526 -231 q 510 -218 519 -232 l 178 -208 l 176 -212 l 122 -207 l 86 -206 l 79 -206 l 99 167 l 97 171 l 8 169 l 10 194 m 96 -203 l 124 -203 l 144 -150 q 100 -122 119 -136 l 96 -203 z "},"£":{"ha":779,"x_min":1,"x_max":772,"o":"m 76 1097 l 53 1099 l 51 1099 l 76 1097 m 26 540 l 99 540 l 97 674 q 119 895 94 829 q 201 1002 143 961 q 341 1042 260 1043 q 475 1008 422 1042 q 563 913 528 975 q 594 690 599 851 l 493 690 q 420 913 501 865 q 268 914 339 960 q 204 690 197 868 l 207 540 l 453 540 l 453 443 l 208 443 l 214 122 l 601 122 l 601 13 l 106 13 l 100 443 l 26 443 l 28 160 l 19 160 q 26 -147 21 81 l 722 -19 l 746 -18 l 749 -17 l 700 179 l 708 179 q 753 1076 707 317 l 76 1097 l 763 1082 l 764 1067 l 761 1043 l 728 136 l 726 136 l 771 19 l 760 18 l 763 -21 l 17 -151 l 15 -137 l 17 -112 l 1 203 l 3 203 l 4 1060 l 15 1061 l 13 1099 l 51 1099 l 29 1097 l 26 1094 l 26 540 z "},"¤":{"ha":638,"x_min":-18,"x_max":710,"o":"m 118 539 q 241 441 160 465 q 396 458 322 417 q 494 581 469 500 q 476 736 518 661 q 353 835 433 813 q 199 815 274 857 q 100 693 122 774 q 118 539 78 613 m 579 71 l 592 71 l 594 72 l 654 1057 l 661 1056 q 708 1326 668 1200 l 689 1329 l 689 1314 l 686 1289 l 646 1008 l 579 71 m 4 388 q -7 286 0 297 l 571 71 l 579 71 l 579 67 l -17 283 l -17 299 l -14 419 l 43 1363 l 53 1361 l 53 1403 l 689 1331 l 689 1329 l 90 1399 l 69 1399 l 67 1396 l 40 922 l 54 936 l 132 857 q 164 879 146 868 q 375 903 264 935 q 471 856 429 889 l 544 929 l 589 886 l 515 813 q 542 771 529 793 q 565 560 599 671 q 518 464 550 506 l 590 388 l 549 346 l 475 419 q 433 393 456 407 q 222 369 332 338 q 119 424 163 386 l 43 349 l 4 388 m 22 600 l 13 414 l 6 415 l 4 399 l 78 469 q 56 503 67 485 q 22 600 29 550 m 38 865 l 28 699 q 32 713 29 706 q 86 817 49 772 l 38 865 z "},"¥":{"ha":681,"x_min":-7,"x_max":689,"o":"m 25 1015 q 24 840 24 924 l 26 1011 l 25 1015 m 338 -51 l 686 4 q 685 15 686 6 l 683 15 l 683 10 l 338 -51 m 22 528 l 164 528 l 164 578 l 22 578 l 22 528 m 19 1114 l 18 1107 l 21 1063 l 21 1114 l 25 1114 l 25 1129 l 26 1128 l 26 1125 l 28 1119 l 28 1114 l 26 1114 l 26 1015 l 11 1060 l 11 1014 q 10 733 11 861 l 13 733 l 11 950 l 14 733 l 24 733 l 25 840 l 25 733 l 115 733 l 28 1011 l 29 1114 l 204 1114 l 289 824 l 374 1114 l 583 1114 l 464 733 l 597 733 l 597 578 l 415 578 l 415 528 l 597 528 l 597 374 l 415 374 l 415 22 l 164 22 l 164 374 l 24 374 q 22 72 22 156 l 24 17 l 24 -61 l 26 -61 l 11 -78 l 0 -90 l 10 -92 l 10 -96 l 0 -94 l 0 -93 l -1 -93 l 14 58 l 13 374 l 10 374 q 10 28 8 47 l 10 29 l -6 -106 l -4 -106 l 11 -104 l 11 -92 l 679 21 l 682 32 l 669 1139 l 28 1128 l 28 1129 l 669 1139 l 669 1154 l 668 1154 l 11 1139 l 11 1132 l 17 1131 l 18 1114 l 19 1131 l 19 1114 m 275 -62 l 13 -110 l 13 -107 l 11 -104 l 0 -107 l 11 -107 l 11 -110 l -6 -108 l 10 28 l 8 26 l 8 578 l 10 733 l 10 1140 l 668 1156 l 671 1156 l 671 1139 l 675 1139 l 675 1129 l 676 1129 l 676 1119 l 689 15 l 688 15 l 688 14 l 689 7 l 689 4 l 275 -62 z "},"¦":{"ha":386,"x_min":128,"x_max":246,"o":"m 128 629 l 128 1204 l 243 1204 l 243 629 l 128 629 m 131 -160 l 131 415 l 246 415 l 246 -160 l 131 -160 z "},"§":{"ha":701,"x_min":3,"x_max":679,"o":"m 436 100 l 376 50 l 118 50 l 3 54 l 11 1154 l 107 1268 l 671 1274 l 679 301 l 636 265 l 636 297 q 607 392 632 356 q 621 417 615 404 q 634 520 638 457 q 601 620 631 583 q 528 682 571 657 l 522 685 q 479 710 503 697 l 463 719 l 461 719 q 406 765 424 740 q 383 835 385 794 q 410 901 382 876 q 483 923 438 925 q 544 898 528 921 q 556 807 560 875 l 633 807 q 617 923 636 888 q 561 977 599 958 q 464 994 524 996 q 366 965 404 992 q 312 901 328 938 q 300 812 296 864 q 333 722 304 760 l 339 717 q 314 678 322 699 q 301 589 297 640 q 335 500 306 538 q 408 439 364 463 l 414 436 q 457 411 433 424 l 474 401 q 531 356 513 379 q 553 273 551 326 q 527 194 554 219 q 454 173 500 169 q 389 203 408 176 q 376 310 369 231 l 294 307 q 311 169 288 203 q 371 117 335 135 q 436 100 399 103 m 546 449 q 529 458 538 454 l 524 463 q 481 488 504 475 q 464 497 472 492 l 463 496 q 407 543 425 518 q 385 613 386 572 q 400 665 383 644 q 407 661 403 664 l 413 658 q 456 633 432 646 l 472 624 l 472 625 q 529 578 511 603 q 551 496 550 549 q 546 449 553 469 m 24 99 l 14 81 l 35 81 l 24 99 m 297 267 q 281 251 281 267 l 281 243 q 297 260 294 243 l 297 267 m 214 893 q 196 914 214 911 l 188 914 q 214 883 201 883 l 214 893 z "},"¨":{"ha":824,"x_min":89,"x_max":707,"o":"m 328 1063 l 89 1063 l 89 1297 l 328 1297 l 328 1063 m 707 1063 l 465 1063 l 465 1297 l 707 1297 l 707 1063 z "},"©":{"ha":1261,"x_min":-14,"x_max":1228,"o":"m 399 1217 q 476 1264 426 1243 q 599 1282 526 1285 q 703 1274 671 1279 q 786 1247 751 1267 q 860 1193 835 1222 q 897 1132 885 1164 q 910 1014 910 1100 l 910 950 l 718 960 l 718 976 q 704 1076 717 1033 q 675 1115 694 1101 l 672 1117 q 651 1126 661 1122 l 642 1131 q 622 1133 631 1133 q 575 1122 597 1133 q 542 1086 553 1110 q 519 988 525 1043 q 508 839 513 932 q 504 763 506 797 l 504 731 q 518 631 506 675 q 548 593 528 607 q 593 576 568 579 q 653 592 618 574 l 653 588 q 682 621 672 600 q 706 719 700 664 l 710 751 l 710 764 l 901 754 q 894 664 899 706 q 869 548 885 578 q 826 491 853 518 q 749 443 799 464 q 640 425 703 425 l 639 428 q 556 431 608 426 q 435 460 483 435 q 363 515 388 486 q 325 576 338 544 q 306 765 311 621 q 326 1044 300 910 q 399 1217 353 1179 m 585 397 q 916 512 775 386 q 1069 826 1057 638 q 956 1158 1082 1017 q 642 1311 831 1300 q 309 1199 451 1324 q 156 882 167 1074 q 269 552 143 693 q 585 397 394 411 m 133 1124 q 250 1264 176 1200 q 357 1340 300 1310 l 117 1358 l 160 1203 l 140 1204 l 133 1124 m 83 396 l 85 538 l 71 397 l 83 396 m -12 624 q 4 640 -12 640 l 13 640 q -14 615 -3 614 l -12 624 m 28 399 l 53 599 q 39 618 40 600 l 39 629 l 47 628 q 56 625 53 628 l 67 814 q 67 889 64 851 q 74 956 68 924 l 97 1376 l 111 1375 l 110 1383 l 1156 1304 l 1156 1301 l 1226 1296 l 1163 144 l 1156 -54 l 1150 -53 l 1150 -58 l -1 -8 l 0 -7 l 1 -4 l 10 190 l 1 192 l 14 297 l 18 364 l 18 394 l 22 393 l 24 399 l 28 399 m 83 396 l 71 397 l 49 186 l 15 190 q 4 -8 11 110 l 1014 -49 l 1144 -50 l 1160 214 l 1133 154 l 92 182 l 86 182 l 44 183 l 82 183 l 83 396 m 1167 269 l 1167 271 l 1179 568 l 1219 1285 l 1160 1289 l 1204 1136 l 1197 1028 l 1200 1101 l 1150 1281 l 936 1296 q 1022 1217 982 1263 q 1157 822 1172 1047 q 974 445 1143 594 q 578 310 804 296 q 203 493 353 324 q 96 669 129 575 l 96 618 l 93 396 l 175 392 l 93 396 l 92 183 l 1122 161 l 1156 243 l 1157 244 l 1163 261 l 1168 349 l 1169 350 l 1168 340 l 1167 269 z "},"ª":{"ha":497,"x_min":72,"x_max":438,"o":"m 203 622 q 207 611 203 622 q 224 590 211 601 q 252 578 236 578 q 283 589 268 578 q 303 626 297 600 q 310 703 310 651 q 294 773 311 754 q 257 792 278 792 q 222 780 236 793 q 201 747 208 767 q 194 684 194 726 q 203 622 194 642 m 331 517 q 238 470 301 472 q 142 489 175 468 q 92 550 108 510 q 74 636 76 590 q 75 732 72 682 q 93 815 81 781 q 143 876 110 856 q 238 896 176 896 q 315 861 285 894 q 315 916 315 904 q 313 956 315 928 q 290 995 310 983 q 244 1003 271 1007 q 204 981 218 1000 q 192 913 190 961 l 76 913 q 93 1022 75 976 q 149 1090 111 1068 q 260 1110 186 1113 q 366 1088 333 1108 q 415 1031 399 1068 q 434 952 432 994 q 435 797 436 910 l 433 485 l 331 485 l 331 517 z "},"«":{"ha":835,"x_min":15,"x_max":842,"o":"m 42 -279 l 42 -285 l 97 -282 l 96 -285 l 164 -279 l 486 -267 l 161 -276 l 93 -281 l 93 -278 l 42 -279 m 17 840 l 15 840 l 22 524 l 22 531 l 17 840 m 249 842 l 17 840 l 17 854 l 18 854 l 18 851 l 803 865 l 822 865 l 825 588 l 822 588 l 840 -174 l 838 -174 l 835 -214 l 836 -257 l 486 -267 l 824 -254 l 824 -242 l 822 -222 l 826 -194 l 829 -194 l 821 579 l 811 579 l 813 843 l 808 842 l 810 843 l 790 843 l 585 461 l 793 75 l 557 75 l 350 461 l 554 843 l 485 842 l 279 461 l 488 75 l 251 75 l 44 461 l 249 842 m 42 -279 l 38 -279 l 38 -193 l 36 -193 q 33 -215 35 -193 l 22 524 l 39 525 l 40 267 l 40 -240 l 42 -225 l 44 -225 l 42 -279 z "},"⟨":{"ha":688,"x_min":-19,"x_max":714,"o":"m 38 -249 l 64 -249 l -3 107 l 38 -249 m 7 -249 l 21 -249 l 21 -233 l 7 -249 m 654 -232 q 639 -243 647 -237 l 647 -242 l 658 -242 l 660 -237 l 654 -232 m 678 -229 l 706 -229 l 701 -226 l 714 -229 l 688 742 l 678 -229 m 3 1096 l -8 1096 l -10 1093 q -1 1024 -6 1060 l -1 1047 l 3 1047 l 3 1096 m 242 958 l 21 951 l 17 181 l 11 179 q 1 197 8 189 l 72 -249 l 678 -229 l 678 -246 l 629 -247 l 71 -253 l 71 -257 l 64 -257 l 64 -253 l 38 -253 l 38 -257 l -1 -257 l -6 122 q -11 121 -8 122 l -18 136 q -6 158 -4 138 l -4 158 l -1 1024 q 4 968 1 997 l 14 969 l 13 976 l 632 999 l 633 996 l 664 997 q 671 1094 667 985 l 3 1096 l 3 1101 l 688 1099 l 688 1078 l 686 1046 l 683 997 l 689 999 l 688 742 l 681 974 l 481 967 l 272 393 l 481 -183 l 244 -183 l 38 393 l 242 958 z "},"⟩":{"ha":542,"x_min":1,"x_max":546,"o":"m 481 393 l 274 969 l 38 969 l 246 393 l 38 -183 l 274 -183 l 481 393 m 1 1028 l 546 1028 l 546 -287 l 1 -287 l 1 1028 z "},"¬":{"ha":571,"x_min":0,"x_max":567,"o":"m 1 1128 l 0 1128 l 4 683 l 4 693 l 1 1128 m 11 17 l 11 10 l 39 13 l 39 10 l 72 15 l 388 33 l 71 21 l 36 14 l 36 19 l 11 17 m 11 450 l 10 72 l 11 93 l 13 93 l 11 17 l 8 17 l 8 136 q 7 106 7 136 l 4 683 l 13 685 l 11 494 l 476 494 l 476 232 l 357 232 l 357 375 l 11 375 l 11 450 m 521 1132 l 1 1128 l 1 1143 l 549 1164 l 560 1163 l 533 774 l 532 772 l 565 165 l 564 164 l 563 108 l 564 71 l 564 47 l 388 33 l 557 53 l 557 96 l 558 135 l 560 135 l 531 763 l 526 763 l 554 1132 l 553 1129 l 553 1133 l 521 1132 z "},"®":{"ha":1340,"x_min":38,"x_max":1293,"o":"m 379 1063 l 324 301 l 318 301 q 314 261 317 282 q 318 258 315 260 l 332 342 l 333 342 l 385 1036 l 385 1065 q 379 1063 382 1064 m 982 1042 q 864 1111 928 1086 l 499 1122 q 390 1069 442 1103 l 740 1069 q 851 1056 804 1071 q 933 993 897 1040 q 975 876 964 953 q 982 1042 978 936 m 442 629 l 739 629 q 830 642 794 629 q 889 687 865 654 q 922 773 913 719 q 919 883 931 826 q 881 971 908 940 q 817 1010 853 1001 q 721 1018 781 1018 l 442 1018 l 442 629 m 928 260 l 957 706 q 936 665 949 685 q 843 593 906 614 l 793 581 q 778 579 786 581 l 928 260 m 379 1063 q 326 1021 351 1043 q 154 665 165 881 q 281 296 139 454 l 314 261 q 293 149 308 203 q 299 144 296 146 l 318 258 l 332 342 l 333 342 l 385 1036 l 386 1067 q 385 1065 385 1067 l 385 1069 l 386 1069 l 389 1094 l 399 1094 l 399 1125 l 386 1125 l 383 1124 l 379 1063 m 856 1114 q 699 1146 783 1142 q 508 1125 599 1153 l 856 1114 m 953 207 q 1007 250 981 226 q 1178 603 1165 392 q 1051 975 1193 817 q 992 1035 1024 1008 l 986 797 l 985 797 l 946 219 l 953 207 m 293 149 q 269 75 283 111 l 289 74 l 289 86 l 292 107 l 299 144 q 293 149 296 146 m 938 85 l 935 46 l 925 46 l 925 13 l 754 29 q 626 24 693 21 q 460 57 539 29 l 289 74 l 460 57 q 299 144 372 88 q 293 149 296 146 q 207 231 247 185 q 54 674 38 419 q 260 1094 69 926 q 703 1246 450 1263 q 1125 1042 957 1232 q 1276 599 1293 851 q 1071 176 1261 344 q 938 85 1008 121 m 318 258 q 635 122 449 135 q 924 189 794 114 l 924 203 l 888 203 l 713 578 l 442 578 l 442 206 l 385 206 l 385 1036 l 333 342 l 332 342 l 318 258 m 756 29 l 888 15 l 908 15 l 911 18 l 915 75 q 756 29 839 40 z "},"¯":{"ha":574,"x_min":10,"x_max":572,"o":"m 69 -229 l 569 -231 l 569 -204 l 69 -229 m 18 -229 l 61 -229 l 569 -201 l 568 -114 l 565 -115 l 563 -114 l 29 -122 l 29 -121 l 19 -121 q 18 -229 19 -172 m 564 1267 l 568 1267 l 568 1321 l 564 1321 l 564 1267 m 568 269 l 568 1132 l 564 1132 l 568 269 m 564 1132 l 64 1132 l 64 1267 l 564 1267 l 564 1132 m 568 269 l 571 -112 l 571 -239 l 17 -237 l 17 -210 l 15 -128 l 14 19 l 11 1299 l 13 1299 l 13 1326 l 564 1326 l 564 1321 l 15 1318 l 17 -121 l 18 -117 l 568 -112 l 568 269 m 568 1267 l 569 1267 l 569 1132 l 568 1132 l 568 1267 z "},"°":{"ha":397,"x_min":40,"x_max":590,"o":"m 147 811 q 208 785 172 785 q 271 810 244 785 q 298 872 297 836 q 274 932 299 907 q 213 958 249 958 q 150 933 176 958 q 123 872 124 908 q 147 811 122 836 m 526 1244 l 54 1244 l 40 1174 l 40 1124 l 46 1154 l 60 1236 l 526 1244 m 526 1244 l 526 1247 l 532 1246 l 532 1244 l 526 1244 m 47 892 q 96 986 54 946 q 211 1034 143 1035 q 328 985 279 1033 q 374 869 375 938 q 325 753 374 801 q 209 706 276 706 q 94 756 142 707 q 49 844 56 794 l 49 7 l 78 6 l 53 156 l 53 190 l 82 15 l 546 69 l 542 222 l 551 222 l 538 756 l 536 788 l 536 811 l 526 1244 l 532 1244 l 540 892 l 547 1244 l 550 1242 l 557 833 q 564 814 563 831 l 564 803 l 560 803 q 556 806 558 803 l 556 51 l 549 51 l 550 44 l 81 -10 l 81 -7 l 46 -6 l 46 1154 l 47 892 m 504 828 l 500 810 q 490 829 490 810 l 490 856 l 496 856 q 504 828 496 829 m 589 811 q 582 793 590 794 l 578 793 q 589 819 583 821 l 589 811 z "},"±":{"ha":1110,"x_min":24,"x_max":1092,"o":"m 93 469 l 85 469 l 94 64 l 86 64 q 85 26 86 44 l 90 26 l 101 113 l 93 469 m 40 1344 l 26 1344 l 24 1342 l 79 721 l 86 721 l 31 1308 l 42 1308 l 40 1344 m 93 469 l 86 721 l 385 721 l 385 1103 l 636 1103 l 636 721 l 1018 721 l 1018 469 l 636 469 l 636 88 l 385 88 l 385 469 l 93 469 m 249 -225 l 72 -225 l 72 -208 l 92 -210 l 92 -196 l 93 -169 l 90 26 l 1018 26 l 1018 -225 l 258 -225 l 1039 -276 l 1063 -275 l 1065 -274 l 1050 711 l 1058 710 q 901 1394 1060 794 l 50 1344 l 40 1344 l 40 1349 l 914 1399 l 914 1383 l 911 1358 l 1075 663 l 1074 663 l 1090 -237 l 1081 -237 l 1081 -279 l 249 -225 z "},"²":{"ha":469,"x_min":46,"x_max":417,"o":"m 78 662 q 91 686 78 662 q 156 768 104 711 q 265 872 208 825 q 331 985 322 919 q 288 1081 340 1050 q 178 1080 236 1111 q 125 933 119 1049 l 51 933 q 74 1081 49 1040 q 138 1143 100 1121 q 235 1166 176 1165 q 337 1140 294 1167 q 397 1069 379 1113 q 408 968 415 1025 q 359 863 401 911 q 258 758 317 814 q 167 660 199 703 q 125 556 136 617 l 397 556 l 397 474 l 46 474 l 46 556 q 78 662 53 613 z "},"³":{"ha":514,"x_min":53,"x_max":450,"o":"m 292 938 q 285 1015 297 997 q 255 1036 274 1033 q 222 1028 236 1039 q 205 994 207 1017 q 203 947 203 971 l 64 947 q 84 1088 58 1050 q 151 1142 110 1125 q 259 1158 193 1160 q 368 1133 325 1157 q 428 1065 411 1108 q 440 954 444 1021 q 382 826 425 846 q 450 681 442 789 l 447 649 q 428 538 444 582 q 366 469 411 494 q 255 444 321 443 q 146 463 189 446 q 78 525 103 479 q 61 685 54 571 l 203 685 q 203 635 203 658 q 213 594 204 611 q 246 576 221 578 q 287 595 271 575 q 298 694 303 615 q 172 768 293 772 l 172 874 q 217 876 194 872 q 292 938 285 885 z "},"´":{"ha":557,"x_min":92,"x_max":385,"o":"m 383 1331 l 238 1000 l 92 1000 l 185 1331 l 383 1331 z "},"µ":{"ha":764,"x_min":-8,"x_max":992,"o":"m 15 -240 l 15 -247 l 65 -244 l 64 -247 l 125 -240 l 414 -225 l 122 -236 l 61 -242 l 61 -237 l 15 -240 m 972 1142 l 972 1146 l 963 1142 l 972 1142 m 990 1128 q 992 1135 992 1126 l 990 1128 m -7 1206 l -8 1206 l -3 796 l -1 796 l -1 806 l -7 1206 m 15 -240 l 11 -240 l 11 -231 l 13 -129 l 10 -129 l 8 -158 l -1 796 l 13 799 l 14 465 l 14 -189 q 17 -169 15 -169 l 18 -169 l 15 -240 m 707 1135 l 707 1210 l 703 1207 l 704 1210 l -7 1206 l -7 1224 l -6 1224 l -6 1219 l 697 1239 l 715 1238 l 717 1135 l 728 183 l 732 -104 l 729 -104 l 726 -156 l 728 -190 l 728 -212 l 414 -225 l 717 -207 l 717 -167 l 719 -132 l 722 -131 l 719 183 l 568 183 l 565 274 q 470 235 519 243 q 372 235 421 228 q 279 274 324 243 l 276 21 l 81 21 l 85 1135 l 310 1135 l 310 581 q 322 500 313 538 q 358 443 332 463 q 422 424 386 425 q 485 443 457 425 q 521 500 511 463 q 533 581 531 538 l 533 1135 l 707 1135 z "},"◯":{"ha":1711,"x_min":-24,"x_max":1718,"o":"m 1561 908 q 1620 292 1718 613 q 1228 -183 1522 -28 q 611 -243 931 -340 q 133 150 292 -146 q 76 766 -24 446 q 469 1243 175 1086 q 1083 1302 764 1399 q 1561 908 1403 1206 m 1506 879 q 1065 1242 1360 1151 q 500 1188 771 1332 q 136 749 226 1043 q 190 183 46 454 q 628 -179 332 -87 q 1194 -125 924 -271 q 1558 313 1468 18 q 1506 879 1649 607 z "},"⊚":{"ha":1250,"x_min":56,"x_max":1168,"o":"m 611 336 q 736 388 686 336 q 786 511 786 439 q 735 636 786 585 q 611 688 685 688 q 487 636 538 688 q 436 511 436 585 q 487 387 436 438 q 611 336 538 336 m 353 511 q 428 694 353 618 q 611 771 504 771 q 794 695 718 771 q 871 511 871 619 q 795 329 871 406 q 613 254 719 253 q 430 329 506 253 q 353 511 354 406 m 158 538 q 271 208 146 349 q 583 57 396 68 q 915 169 774 43 q 1065 482 1056 294 q 953 813 1078 671 q 639 964 829 954 q 311 852 451 978 q 158 538 171 726 m 646 1053 q 1019 872 871 1040 q 1154 478 1168 703 q 972 104 1140 253 q 579 -31 803 -44 q 206 151 354 -18 q 71 546 57 319 q 253 917 85 768 q 646 1053 421 1067 z "},"⌾":{"ha":1096,"x_min":1,"x_max":1064,"o":"m 968 492 q 860 806 979 672 q 561 951 740 940 q 246 844 381 964 q 101 546 111 725 q 208 230 89 365 q 508 85 326 94 q 822 192 688 72 q 968 492 956 311 m 877 129 q 797 58 877 129 q 501 0 717 -14 q 145 174 288 13 q 17 549 3 335 q 190 906 29 764 q 565 1035 351 1049 q 922 861 781 1022 q 1051 485 1064 700 q 877 129 1038 272 m 828 500 q 754 713 835 622 q 553 810 674 803 q 341 739 432 819 q 243 536 250 658 q 315 324 235 415 q 517 226 394 233 q 729 299 639 218 q 828 500 819 379 m 767 256 q 713 208 767 256 q 513 169 658 160 q 272 286 368 178 q 186 539 176 394 q 303 781 194 685 q 556 867 411 876 q 797 750 701 858 q 883 496 892 642 q 767 256 875 351 z "},"☉":{"ha":1760,"x_min":36,"x_max":1714,"o":"m 736 531 q 771 428 732 472 q 868 382 810 383 q 974 415 929 375 q 1018 514 1018 456 q 983 617 1022 575 q 885 664 944 660 q 783 631 826 669 q 736 531 739 592 m 189 563 q 359 65 171 276 q 831 -164 547 -147 q 1331 5 1118 -185 q 1558 478 1543 194 q 1389 976 1576 763 q 915 1206 1201 1190 q 420 1037 632 1226 q 189 563 208 847 m 925 1339 q 1490 1066 1265 1321 q 1692 472 1714 811 q 1417 -92 1671 132 q 825 -296 1163 -317 q 260 -22 485 -276 q 57 575 36 233 q 332 1135 78 910 q 925 1339 586 1361 z "},"◉":{"ha":1585,"x_min":51,"x_max":1538,"o":"m 793 110 q 494 231 618 107 q 368 533 369 356 q 492 834 368 710 q 793 958 617 958 q 1095 834 971 958 q 1218 533 1219 710 q 1096 233 1219 358 q 793 110 972 107 m 188 569 q 338 129 171 317 q 756 -72 506 -58 q 1198 76 1010 -92 q 1400 494 1386 244 q 1251 937 1417 747 q 831 1139 1085 1126 q 392 989 579 1157 q 188 569 204 821 m 839 1257 q 1338 1015 1140 1240 q 1518 489 1536 790 q 1274 -10 1500 189 q 750 -190 1049 -208 q 251 52 450 -174 q 71 581 53 278 q 315 1077 90 878 q 839 1257 539 1276 z "},"◎":{"ha":1539,"x_min":58,"x_max":1447,"o":"m 781 90 q 1104 247 975 103 q 1222 589 1233 392 q 1065 911 1211 781 q 725 1028 919 1042 q 401 873 531 1019 q 283 532 271 726 q 440 208 294 336 q 781 90 586 79 m 75 519 q 244 1010 58 800 q 710 1236 431 1219 q 1203 1067 993 1254 q 1428 601 1413 881 q 1260 110 1447 319 q 792 -117 1072 -100 q 302 52 513 -133 q 75 519 92 238 m 775 149 q 1059 286 946 160 q 1164 583 1172 413 q 1026 866 1153 753 q 725 968 899 979 q 440 833 554 961 q 339 535 326 706 q 476 252 347 364 q 775 149 604 140 m 768 274 q 558 345 647 267 q 463 543 469 424 q 535 752 454 663 q 733 847 615 842 q 943 775 853 854 q 1039 578 1033 696 q 967 370 1046 458 q 768 274 888 282 z "},"¶":{"ha":718,"x_min":8,"x_max":690,"o":"m 31 -214 l 31 -221 l 76 -218 l 75 -221 l 131 -214 l 397 -199 l 129 -210 l 72 -215 l 72 -212 l 31 -214 m 10 1176 l 8 1176 l 14 783 l 14 792 l 10 1176 m 579 1181 l 579 -54 l 442 -54 l 442 1061 l 339 1061 l 339 -54 l 201 -54 l 201 836 q 51 913 82 843 q 33 1053 21 982 q 89 1156 44 1125 q 133 1178 110 1169 l 10 1176 l 10 1194 l 11 1194 l 11 1190 l 658 1208 l 675 1208 l 678 863 l 675 863 l 690 -83 l 688 -83 l 685 -132 l 686 -167 l 686 -187 l 397 -199 l 676 -182 l 676 -168 l 675 -144 l 678 -110 l 681 -108 l 674 853 l 665 853 l 667 1181 l 664 1178 l 664 1181 l 579 1181 m 31 -214 l 26 -214 l 26 -206 l 28 -107 l 25 -107 l 24 -135 l 14 783 l 28 785 l 29 464 l 29 -165 q 31 -146 29 -146 l 32 -146 l 31 -214 z "},"⦿":{"ha":1093,"x_min":1,"x_max":1064,"o":"m 550 271 q 369 332 446 264 q 286 504 292 400 q 348 684 279 607 q 521 767 417 761 q 702 705 625 774 q 785 533 779 636 q 722 353 790 431 q 550 271 653 276 m 968 492 q 860 806 979 672 q 561 951 740 940 q 246 844 381 964 q 101 546 111 725 q 208 230 89 365 q 508 85 326 94 q 822 192 688 72 q 968 492 956 311 m 501 0 q 145 174 288 13 q 17 549 3 335 q 190 906 29 764 q 565 1035 351 1049 q 922 861 781 1022 q 1051 485 1064 700 q 877 129 1038 272 q 501 0 717 -14 z "},"⦾":{"ha":1539,"x_min":57,"x_max":1564,"o":"m 525 529 q 606 367 533 432 q 775 308 678 303 q 935 387 871 314 q 994 558 1000 460 q 917 721 990 656 q 747 779 844 786 q 584 701 649 774 q 525 529 519 628 m 507 769 q 553 820 507 769 q 739 881 599 872 q 982 797 878 890 q 1093 564 1086 704 q 1010 319 1103 422 q 779 207 917 215 q 536 292 640 200 q 424 524 432 385 q 507 769 415 665 m 722 -40 q 1147 106 967 -56 q 1343 510 1328 267 q 1199 935 1360 753 q 796 1129 1038 1117 q 369 987 551 1147 q 174 581 186 826 q 317 158 156 339 q 722 -40 479 -24 m 58 1300 l 60 1300 l 58 1343 l 64 1343 l 63 1350 l 1538 1325 l 1538 1313 l 1563 -153 l 1557 -153 l 1557 -160 l 79 -136 l 79 -133 l 81 -128 l 58 1300 m 875 -146 l 1413 -153 l 1551 -149 l 1536 1325 l 82 1349 l 69 1349 l 71 1292 l 67 1292 q 74 701 67 1275 q 293 1071 119 917 q 799 1244 511 1263 q 1282 1010 1090 1228 q 1456 504 1474 792 q 1221 22 1439 213 q 875 -146 1067 -114 m 78 368 q 85 -135 81 146 l 625 -142 q 233 82 396 -100 q 78 368 118 213 z "},"⥀":{"ha":1094,"x_min":1,"x_max":1065,"o":"m 572 1035 q 924 861 783 1019 q 1051 486 1065 700 q 878 129 1039 271 q 501 0 717 -12 q 146 174 289 14 q 17 550 3 335 q 190 907 29 764 q 481 1033 318 1019 l 574 1172 l 667 1172 l 572 1035 m 565 950 l 667 801 l 574 801 l 475 949 q 247 844 347 932 q 101 543 111 725 q 208 230 89 364 q 508 83 328 96 q 823 192 689 72 q 968 490 957 311 q 861 806 981 671 q 565 950 743 939 z "},"⥁":{"ha":1094,"x_min":1,"x_max":1065,"o":"m 614 1029 q 924 861 797 1004 q 1051 486 1065 700 q 878 129 1039 271 q 501 0 717 -12 q 146 174 289 14 q 17 550 3 335 q 190 907 29 764 q 517 1036 333 1032 l 424 1172 l 517 1172 l 614 1029 m 615 944 l 518 801 l 425 801 l 525 951 q 247 844 368 950 q 101 543 111 725 q 208 230 89 364 q 508 83 328 96 q 823 192 689 72 q 968 490 957 311 q 861 806 981 671 q 615 944 760 919 z "},"·":{"ha":417,"x_min":119,"x_max":308,"o":"m 308 426 l 119 426 l 119 611 l 308 611 l 308 426 z "},"¸":{"ha":506,"x_min":171,"x_max":371,"o":"m 171 6 l 171 114 q 328 36 286 110 q 351 -113 369 -37 q 277 -224 332 -189 q 171 -258 222 -258 l 171 -147 q 213 -132 190 -146 q 242 -87 235 -118 q 233 -28 250 -56 q 171 6 217 0 z "},"¹":{"ha":351,"x_min":40,"x_max":624,"o":"m 613 1221 l 613 1222 l 581 1224 l 579 1222 l 613 1221 m 621 119 l 614 106 l 600 13 l 76 4 l 607 6 l 622 75 l 622 122 l 621 119 m 621 119 l 613 515 l 613 1221 l 617 1221 l 621 119 m 49 1121 l 292 1156 l 294 483 l 201 483 l 200 1079 l 50 1054 l 49 1058 l 49 1011 l 76 4 l 71 4 l 61 351 l 42 410 l 43 1106 l 42 1119 l 43 1119 l 43 1206 l 51 1206 l 50 1213 l 578 1225 l 578 1222 l 579 1222 l 575 1215 l 50 1201 l 49 1121 m 76 4 l 76 3 l 71 3 l 71 4 l 76 4 z "},"º":{"ha":432,"x_min":40,"x_max":414,"o":"m 226 1054 q 165 1040 188 1054 q 133 990 143 1025 q 119 896 122 956 q 117 763 117 836 q 119 631 117 690 q 132 538 121 572 q 165 489 143 503 q 226 475 188 475 q 289 489 267 475 q 322 538 311 503 q 335 631 332 572 q 338 763 338 690 q 335 896 338 836 q 322 990 332 956 q 289 1040 311 1025 q 226 1054 267 1054 m 226 1128 q 329 1110 293 1128 q 382 1051 365 1093 q 406 939 399 1008 q 414 765 414 869 q 406 590 414 660 q 382 478 399 519 q 329 419 365 436 q 226 401 293 401 q 125 419 161 401 q 72 478 89 436 q 47 590 54 521 q 40 765 40 660 q 47 939 40 869 q 72 1051 54 1008 q 125 1110 89 1093 q 226 1128 161 1128 z "},"»":{"ha":832,"x_min":86,"x_max":840,"o":"m 839 -186 l 840 -186 l 833 163 l 833 156 l 839 -186 m 815 1129 l 817 1135 l 765 1132 l 767 1135 l 704 1129 l 411 1032 l 707 1125 l 769 1131 l 769 1128 l 815 1129 m 815 1129 l 821 1129 l 821 1121 l 819 1035 l 821 1035 l 824 1058 l 833 163 l 819 161 l 817 446 l 818 1086 l 815 1069 l 814 1069 l 815 1129 m 108 131 l 246 386 l 101 656 l 108 131 m 100 774 l 274 774 l 481 386 l 274 0 l 110 0 l 113 -189 l 115 -186 l 115 -189 l 839 -186 l 839 -201 l 838 -201 l 838 -197 l 122 -214 l 103 -212 l 100 0 l 99 114 l 90 675 l 89 774 l 86 929 l 89 929 l 92 974 l 92 1003 l 90 1022 l 411 1032 l 103 1018 l 103 983 l 100 953 l 97 953 l 100 774 m 786 386 l 579 0 l 343 0 l 551 386 l 343 774 l 579 774 l 786 386 z "},"⟶":{"ha":2911,"x_min":24,"x_max":2872,"o":"m 25 828 l 1875 828 l 1410 1331 l 2131 1331 l 2871 522 l 2131 -289 l 1410 -289 l 1879 221 l 26 221 l 25 828 z "},"¼":{"ha":951,"x_min":43,"x_max":881,"o":"m 643 1122 l 311 -75 l 217 -75 l 549 1122 l 643 1122 m 690 232 l 690 413 l 617 232 l 690 232 m 489 110 l 490 232 l 654 649 l 817 649 l 817 232 l 881 232 l 881 110 l 817 110 l 815 -49 l 689 -49 l 690 110 l 489 110 m 283 1076 l 286 375 l 197 375 l 196 997 l 51 971 l 43 1039 l 283 1076 z "},"⟵":{"ha":2639,"x_min":-125,"x_max":2593,"o":"m 2579 1333 l 2579 1336 l 2532 1338 l 2531 1335 l 2579 1333 m 2590 -140 l 2581 -160 l 2561 -283 l 1363 -279 l 763 -279 l 760 -278 l -76 -275 l 2569 -293 l 2592 -200 l 2592 -136 l 2590 -139 l 2590 -140 m 2590 -140 l 2578 390 l 2579 1333 l 2585 1333 l 2590 -140 m 760 -278 l 28 524 l 763 1325 l 1476 1325 l 1015 826 l 2575 826 l 2571 226 l 1011 226 l 1476 -279 l 1363 -279 l 760 -278 m -76 -275 l -76 -278 l -83 -276 l -83 -275 l -76 -275 m 2531 1335 l 2525 1325 l -114 1328 l -115 1072 l -76 -275 l -83 -275 l -97 190 l -125 268 l -124 1332 l -112 1332 l -114 1342 l 2528 1339 l 2528 1335 l 2531 1335 z "},"½":{"ha":957,"x_min":-8,"x_max":863,"o":"m -7 1079 l -8 1079 l -1 775 l -1 783 l -7 1079 m 19 -135 l 19 -140 l 78 -139 l 76 -140 l 149 -135 l 488 -121 l 146 -131 l 74 -136 l 74 -133 l 19 -135 m 19 -135 l 14 -135 l 14 -126 l 15 -37 l 14 -37 q 11 -62 13 -37 l -1 775 l 15 776 l 18 485 l 18 -90 q 21 -72 19 -72 l 22 -72 l 19 -135 m 615 1082 l 289 -94 l 194 -94 l 521 1082 l 283 1081 l 286 389 l 197 389 l 196 1011 l 51 985 l 43 1053 l 218 1081 l -7 1079 l -7 1094 l -6 1094 l -6 1092 l 526 1101 l 526 1103 l 564 1103 l 822 1108 l 843 1107 l 846 847 l 843 847 l 851 481 q 853 425 856 454 l 863 -15 l 858 -15 l 856 -60 l 857 -92 l 857 -110 l 488 -121 l 844 -106 l 844 -93 l 843 -71 l 847 -39 l 850 -39 l 846 389 q 803 313 833 349 q 701 208 760 264 q 610 110 642 153 q 568 6 579 67 l 840 6 l 840 -76 l 489 -76 l 489 6 q 522 112 496 63 q 599 218 547 161 q 708 322 651 275 q 774 435 765 369 q 731 531 783 500 q 621 530 679 561 q 568 383 563 499 l 494 383 q 517 531 492 490 q 581 593 543 571 q 678 616 619 615 q 780 590 738 617 q 840 518 822 563 q 844 508 843 514 l 842 839 l 831 839 l 833 1083 l 828 1081 l 829 1083 l 615 1082 z "},"¾":{"ha":921,"x_min":19,"x_max":921,"o":"m 253 822 q 183 767 247 774 q 143 764 164 763 l 143 667 q 258 599 254 671 q 248 508 263 526 q 210 490 233 489 q 180 506 188 492 q 172 543 172 521 q 171 589 171 565 l 40 589 q 57 442 35 485 q 119 385 79 400 q 219 369 158 369 q 321 391 279 368 q 378 455 363 414 q 396 557 394 496 l 399 586 q 336 721 390 686 q 389 838 376 739 q 378 940 394 899 q 323 1003 363 981 q 223 1026 283 1025 q 124 1011 163 1028 q 62 960 85 994 q 43 831 39 926 l 171 831 q 173 874 171 853 q 189 906 175 896 q 219 913 203 915 q 247 894 236 911 q 253 822 258 878 m 679 215 l 610 215 l 681 386 l 679 215 m 610 1126 l 271 -76 l 360 -76 l 697 1121 l 867 1124 l 921 82 l 799 11 l 799 99 l 860 99 l 860 215 l 800 215 l 800 608 l 646 608 l 489 215 l 489 99 l 679 99 l 678 -51 l 692 -51 l 531 -146 l 19 -146 l 19 1056 l 610 1126 z "},"↉":{"ha":1090,"x_min":-6,"x_max":1074,"o":"m 242 1063 q 303 1046 282 1061 q 335 996 325 1031 q 345 901 344 961 q 344 768 346 842 q 338 637 342 696 q 322 543 333 578 q 288 495 311 508 q 225 483 265 482 q 165 499 186 485 q 133 549 143 514 q 122 642 122 583 q 124 774 122 701 q 130 907 125 847 q 146 1001 135 967 q 180 1049 157 1035 q 242 1063 203 1064 m 344 -42 l 686 1069 l 1074 1060 l 1043 -61 l 821 -56 q 840 -46 832 -51 q 906 22 888 -22 q 928 132 924 65 l 931 163 q 867 311 925 272 q 928 436 911 329 q 919 547 935 503 q 862 617 904 592 q 753 646 819 643 q 645 632 688 649 q 576 578 603 615 q 553 439 550 542 l 692 436 q 694 483 692 460 q 713 516 697 506 q 746 524 728 526 q 776 502 764 521 q 779 424 788 483 q 703 365 772 372 q 658 364 681 363 l 656 257 q 779 180 776 258 q 765 82 782 101 q 724 65 749 63 q 691 83 699 67 q 683 124 683 100 q 685 174 683 147 l 543 176 q 555 17 532 64 q 621 -47 578 -29 q 628 -50 624 -49 l 344 -42 m 592 1072 l 250 -40 l -6 -33 l 25 1088 l 99 1086 q 86 1063 92 1075 q 59 952 68 1021 q 47 779 50 883 q 49 603 44 674 q 71 491 54 533 q 123 430 88 449 q 224 410 158 411 q 327 424 290 408 q 381 482 364 440 q 408 593 399 524 q 421 768 418 663 q 418 942 424 872 q 397 1054 413 1013 q 386 1078 392 1067 l 592 1072 z "},"¿":{"ha":604,"x_min":-8,"x_max":554,"o":"m 10 -283 l 10 -289 l 47 -286 l 47 -289 l 93 -283 l 313 -229 l 92 -279 l 44 -285 l 44 -282 l 10 -283 m -6 899 l -8 899 l -4 575 l -3 575 l -3 583 l -6 899 m 10 -283 l 7 -283 l 7 -154 l 6 -154 l 4 -176 l -3 575 l 7 576 l 10 314 l 8 -201 l 10 -186 l 11 -186 l 10 -283 m 231 917 l 528 925 l 542 924 l 543 640 l 542 640 l 547 258 l 550 258 q 549 157 553 201 l 554 -135 l 551 -135 l 550 -175 l 550 -219 l 313 -229 l 542 -215 l 542 -185 l 544 -156 l 546 -156 l 544 111 q 521 33 536 64 q 431 -62 486 -36 q 277 -85 375 -89 q 125 -47 179 -82 q 44 53 71 -12 q 31 206 18 119 q 99 376 43 293 q 197 526 154 460 q 243 681 239 592 l 411 681 q 357 438 415 542 q 258 276 299 333 q 223 167 217 218 q 264 101 229 115 q 331 111 299 88 q 360 258 363 135 l 543 258 l 540 633 l 533 632 l 535 901 l 532 899 l 533 901 l 444 901 q 454 856 454 881 q 419 772 454 807 q 335 738 383 738 q 251 772 286 738 q 215 856 215 807 q 222 900 215 879 l -6 899 l -7 910 l 231 917 z "},"×":{"ha":722,"x_min":-8,"x_max":676,"o":"m 14 -242 l 14 -247 l 60 -244 l 58 -247 l 115 -242 l 382 -229 l 113 -237 l 56 -243 l 56 -240 l 14 -242 m -7 938 l -8 938 l -3 604 l -3 611 l -7 938 m 14 -242 l 10 -242 l 10 -235 l 11 -151 l 8 -151 l 7 -174 l -3 604 l 11 604 l 13 333 l 13 -200 l 14 -183 l 15 -183 l 14 -242 m 651 678 l 510 531 l 663 382 l 660 663 l 651 663 l 651 678 m 676 -131 l 674 -131 l 671 -172 l 672 -201 l 672 -218 l 382 -229 l 663 -215 l 663 -203 l 661 -182 l 664 -153 l 667 -153 l 663 343 l 538 214 l 365 381 l 197 208 l 49 351 l 217 525 l 43 693 l 188 842 l 361 674 l 528 847 l 651 726 l 653 940 l 650 939 l 650 940 l -7 938 l -7 951 l -6 951 l -6 949 l 644 964 l 661 964 l 661 671 l 676 -131 z "},"÷":{"ha":700,"x_min":10,"x_max":694,"o":"m 11 1151 l 10 1151 l 15 793 l 15 800 l 11 1151 m 672 856 l 671 856 l 676 654 l 672 856 m 32 -114 l 32 -121 l 78 -118 l 76 -121 l 133 -115 l 400 -101 l 131 -111 l 74 -117 l 74 -112 l 32 -114 m 672 856 l 669 924 l 671 1154 l 668 1151 l 668 1154 l 11 1151 l 11 1167 l 13 1167 l 13 1163 l 663 1179 l 679 1179 l 679 864 l 694 4 l 692 4 l 689 -40 l 690 -71 l 690 -90 l 400 -101 l 681 -86 l 681 -72 l 679 -51 l 682 -19 l 685 -19 l 681 513 l 676 654 l 681 554 l 678 857 l 672 856 m 31 585 l 621 585 l 621 446 l 31 446 l 31 -71 l 32 -53 l 33 -53 l 32 -114 l 28 -114 l 28 -107 l 29 -18 l 26 -18 l 25 -43 l 15 793 l 29 793 l 31 585 m 451 1015 l 451 757 l 194 757 l 194 1015 l 451 1015 m 449 246 l 449 -12 l 190 -12 l 190 246 l 449 246 m 671 856 l 669 856 l 669 872 l 671 856 z "},"☕":{"ha":1500,"x_min":92,"x_max":1431,"o":"m 738 1051 l 697 1019 l 703 1007 q 729 1007 717 1013 q 728 1033 732 1025 l 761 1046 l 776 1043 l 771 1057 l 738 1051 m 883 1204 l 883 1235 l 835 1215 l 838 1210 q 883 1204 860 1219 m 624 1014 l 622 997 l 625 992 q 651 996 649 994 l 650 1003 q 624 1014 646 1010 m 753 1074 q 768 1093 749 1086 l 765 1100 l 746 1093 q 738 1074 732 1088 l 753 1074 m 494 868 l 521 879 l 514 894 l 504 890 q 494 868 494 886 m 746 979 l 728 972 q 717 946 717 968 l 746 942 l 746 979 m 799 947 l 804 949 q 778 958 801 957 l 779 953 q 799 947 786 942 m 775 981 l 783 983 q 792 1001 796 990 l 789 1007 l 782 1004 q 772 986 768 999 l 775 981 m 724 819 l 729 822 q 736 838 739 828 l 729 835 q 724 819 719 831 m 607 856 l 608 868 l 606 874 l 585 865 q 607 856 588 858 m 629 1165 q 763 1156 763 1158 q 882 1119 861 1126 l 918 1097 q 922 1093 922 1097 l 925 1093 q 931 1086 928 1093 l 929 1086 q 939 1081 931 1081 q 946 1076 942 1078 q 947 1075 946 1075 l 947 1072 l 949 1072 l 949 1074 l 950 1074 q 951 1072 951 1074 q 950 1071 951 1071 l 951 1068 l 985 1042 l 986 1042 l 986 1040 q 985 1039 985 1040 l 989 1035 q 988 1032 988 1032 l 989 1029 l 1010 1007 l 1010 997 l 1011 996 l 1010 996 l 1011 994 l 1010 988 l 1011 983 q 1010 982 1010 983 l 1011 976 l 1010 974 l 1010 972 q 1015 964 1014 965 l 1015 963 q 1013 961 1013 963 l 1013 960 l 1017 960 q 1010 949 1017 957 q 1010 911 1017 911 l 1015 907 l 1015 906 l 1013 897 q 1014 896 1014 897 l 1014 893 q 1010 883 1011 883 q 1013 879 1011 881 q 1010 878 1010 879 l 1011 875 q 988 860 988 860 l 988 857 q 985 851 988 851 l 983 849 l 983 844 q 983 844 983 844 q 982 833 982 839 l 982 831 l 981 831 l 981 829 q 979 822 979 825 l 979 818 q 982 817 982 818 l 981 814 q 981 811 981 813 q 979 810 979 811 l 951 776 q 953 775 953 776 l 950 767 l 951 764 l 949 760 l 949 757 l 950 756 q 946 750 949 756 l 943 750 l 942 746 l 942 746 l 943 746 l 946 749 l 947 749 l 947 743 q 944 739 947 743 l 946 738 q 943 735 946 736 l 942 735 l 942 733 q 942 733 942 733 q 940 732 940 733 l 943 729 l 943 728 l 942 729 q 939 726 940 729 l 942 722 l 940 722 l 940 724 q 932 722 938 722 l 928 721 l 926 722 l 926 719 l 928 717 l 928 714 l 926 713 q 922 714 924 714 l 922 710 l 926 711 l 926 708 l 925 708 l 925 710 q 919 707 919 708 l 919 706 l 922 706 l 924 707 l 924 706 q 919 703 924 704 q 917 706 918 706 l 918 708 l 915 708 l 917 706 q 914 700 914 701 q 911 706 913 700 l 911 708 l 908 708 l 908 704 l 907 700 l 907 700 q 910 699 907 699 l 910 696 l 904 696 q 903 692 904 694 q 903 690 903 690 q 899 681 899 681 l 899 678 l 894 676 l 892 675 l 893 674 l 889 669 q 878 663 886 667 q 796 632 819 633 q 690 611 700 613 l 631 610 q 619 610 626 610 l 618 610 l 617 610 q 614 610 614 610 q 600 610 604 610 l 585 608 q 399 628 399 622 q 363 643 396 629 l 326 660 l 325 660 l 324 657 q 313 664 314 661 q 296 672 310 664 q 256 696 269 682 l 250 699 l 251 701 l 251 701 q 240 713 240 713 l 239 711 q 235 718 238 718 l 235 718 l 235 714 l 233 714 l 233 719 q 172 788 225 731 q 154 847 156 840 q 161 931 157 931 q 193 986 192 985 q 344 1090 294 1064 q 471 1143 463 1143 l 629 1165 m 935 151 q 936 149 936 150 q 931 106 933 149 l 931 92 q 933 89 932 89 q 946 100 943 96 q 957 114 949 101 q 965 125 960 114 q 979 143 978 143 q 986 160 979 144 q 994 181 992 172 q 1003 211 1000 196 q 1004 214 1003 214 q 996 225 1003 225 q 985 231 994 228 q 957 206 976 231 q 947 194 954 206 q 939 168 940 189 l 935 151 m 125 850 q 157 749 128 801 q 197 703 172 725 q 222 682 204 696 q 246 667 229 678 q 342 622 279 644 q 422 599 357 614 q 453 594 438 597 q 517 585 486 588 l 518 585 l 535 585 l 535 585 q 582 583 547 583 l 583 583 l 588 583 l 590 583 l 592 583 l 601 585 l 611 583 l 621 585 q 639 585 635 585 l 646 586 l 649 585 q 706 592 661 588 q 789 607 711 592 q 818 614 790 608 q 985 683 932 649 q 1000 690 996 689 l 1001 689 l 994 619 q 992 594 992 607 q 993 593 993 594 l 993 592 l 994 588 q 1031 615 1006 590 q 1044 618 1040 618 q 1056 604 1051 613 l 1057 603 l 1057 601 q 1063 597 1057 600 l 1063 597 q 1065 597 1064 597 q 1107 579 1071 594 q 1139 565 1110 575 q 1238 536 1186 550 l 1267 524 q 1304 501 1290 514 q 1331 446 1329 485 q 1310 349 1332 413 q 1253 203 1271 246 l 1253 201 l 1254 200 l 1256 200 q 1307 304 1272 213 q 1333 369 1314 317 q 1388 518 1367 454 q 1399 585 1399 557 q 1321 665 1396 640 q 1196 704 1275 685 q 1122 717 1169 711 q 1099 729 1110 721 q 1078 744 1086 729 q 1071 754 1075 744 q 1082 769 1071 756 q 1117 851 1118 835 q 1122 892 1121 858 l 1122 899 q 1071 1026 1119 967 q 1007 1085 1039 1064 q 899 1142 946 1124 q 804 1169 867 1156 q 696 1185 750 1182 l 696 1185 q 604 1188 646 1189 l 596 1186 q 490 1171 551 1182 q 336 1118 394 1146 q 219 1043 274 1089 q 125 850 122 953 m 1029 500 l 1031 499 l 1028 496 l 1028 492 l 1028 490 l 1028 489 l 1028 488 l 1025 481 q 1028 478 1026 478 l 1026 472 l 1026 463 l 1025 460 l 1026 456 l 1024 453 q 1025 451 1024 451 q 1022 440 1024 444 l 1022 439 q 1021 429 1022 436 q 1022 428 1022 429 q 1021 428 1021 428 l 1022 426 l 1021 426 l 1021 424 q 1017 397 1018 397 l 1015 396 l 1014 396 l 1003 404 l 1001 403 l 1003 396 q 1000 388 999 392 l 1001 386 q 1000 379 1000 381 q 999 369 1000 378 l 1000 368 q 999 364 999 365 l 1000 360 q 997 351 999 353 q 999 349 997 350 q 997 340 997 343 l 999 339 q 999 335 999 336 q 999 335 999 335 l 999 328 q 999 318 999 324 q 1000 307 1000 313 l 1004 306 l 1008 306 q 1031 310 1032 306 q 1038 306 1033 306 l 1042 307 l 1043 301 q 1044 304 1044 301 q 1054 300 1051 300 l 1056 300 l 1056 301 l 1057 300 q 1061 303 1061 300 l 1065 303 l 1067 301 q 1068 304 1067 304 q 1072 301 1072 303 l 1075 301 l 1075 303 l 1079 301 l 1085 301 q 1089 307 1086 306 l 1090 307 l 1089 304 l 1089 303 l 1094 304 l 1094 301 q 1101 304 1100 304 l 1103 304 l 1104 303 l 1104 304 l 1111 304 q 1114 306 1114 306 l 1115 306 l 1117 306 q 1119 306 1118 306 l 1121 306 l 1125 306 q 1131 301 1125 304 q 1132 303 1132 301 l 1133 301 l 1136 304 l 1138 304 q 1142 300 1138 303 l 1142 299 l 1143 299 l 1143 301 l 1146 300 l 1147 301 q 1150 304 1147 304 l 1151 304 l 1156 301 q 1158 304 1158 301 l 1160 304 l 1161 303 l 1163 303 l 1167 304 l 1167 303 l 1168 304 q 1171 300 1169 300 q 1174 303 1171 301 l 1175 303 l 1185 306 q 1189 303 1185 303 q 1194 308 1189 304 l 1199 304 q 1200 313 1200 306 l 1197 314 l 1196 314 q 1176 321 1193 317 q 1164 325 1174 322 q 1147 331 1164 326 q 1111 340 1131 338 q 1086 350 1108 343 q 1051 371 1063 360 q 1040 386 1040 381 q 1047 449 1043 424 l 1047 450 q 1050 474 1049 468 l 1053 485 q 1051 488 1051 486 q 1054 506 1053 488 l 1056 506 q 1054 508 1054 507 q 1058 526 1056 508 l 1063 557 l 1064 558 q 1053 567 1064 567 q 1051 568 1053 568 l 1044 568 q 1038 536 1040 568 q 1033 511 1035 531 q 1029 500 1032 511 m 1085 550 q 1056 392 1056 397 l 1056 386 q 1076 368 1056 382 q 1197 331 1179 332 q 1244 321 1236 322 q 1290 467 1292 453 q 1292 471 1292 467 q 1263 501 1278 496 q 1222 519 1247 515 q 1085 550 1203 526 m 1118 301 l 1118 300 l 1119 300 l 1119 303 l 1118 301 m 1154 297 l 1157 297 l 1156 300 q 1154 297 1154 299 m 588 1219 q 735 1214 733 1219 q 818 1199 803 1207 q 940 1151 919 1163 q 1021 1110 1017 1114 q 1078 1057 1078 1057 q 1119 992 1119 999 q 1139 929 1139 944 q 1142 885 1140 910 q 1121 747 1121 753 l 1121 743 q 1168 724 1117 729 q 1314 693 1226 718 q 1388 654 1382 657 q 1422 619 1421 622 q 1429 578 1422 618 q 1415 488 1431 542 l 1303 178 q 1272 138 1278 139 q 1231 117 1250 119 q 1210 111 1217 111 l 1194 111 q 1088 138 1186 111 q 1026 163 1038 160 l 1025 163 q 1007 103 1014 113 q 954 13 961 21 q 886 -56 889 -56 q 774 -101 778 -101 l 660 -118 q 519 -104 525 -107 l 419 -54 q 335 25 335 24 q 281 119 283 111 q 175 511 183 468 q 113 771 150 628 q 93 860 94 817 q 100 936 96 936 l 133 997 q 167 1038 142 1018 q 218 1086 196 1068 q 339 1153 321 1149 q 454 1194 396 1178 q 588 1219 471 1201 m 1247 1292 l 1207 1261 l 1213 1249 q 1240 1249 1226 1254 q 1239 1274 1242 1267 l 1271 1288 l 1288 1285 l 1282 1299 l 1247 1292 m 1133 1254 l 1132 1238 l 1135 1233 q 1163 1238 1158 1236 l 1160 1243 q 1133 1254 1157 1251 m 1004 1108 l 1031 1119 l 1025 1136 l 1014 1131 q 1004 1108 1004 1128 m 1257 1221 l 1238 1214 q 1226 1186 1226 1208 l 1256 1182 l 1257 1221 m 1235 1061 l 1239 1063 q 1246 1078 1250 1069 l 1240 1076 q 1235 1061 1231 1072 m 1117 1097 l 1118 1110 l 1115 1115 l 1094 1107 q 1117 1097 1097 1099 z "},"Ⓜ":{"ha":1733,"x_min":-8,"x_max":1682,"o":"m 1192 1315 q 1571 1067 1411 1250 q 1678 914 1633 994 l 1669 1336 l 1651 1336 l 1192 1315 m 1533 897 l 1528 135 q 1639 471 1626 283 q 1533 897 1657 707 m 1424 14 l 1311 14 l 1318 828 l 1074 15 l 832 17 l 601 833 l 594 18 l 461 18 q 897 -175 639 -156 q 1403 -6 1186 -196 l 1424 14 m 381 108 l 388 942 q 250 567 264 781 q 381 108 231 310 m 443 1006 l 760 1004 l 761 1003 l 956 358 l 1160 999 l 1161 1000 l 1453 999 q 994 1213 1267 1196 q 486 1046 706 1235 l 443 1006 m 50 -271 l 50 -272 l 444 -262 l 50 -271 m 1671 111 l 1672 25 l 1679 -117 l 1675 -115 l 1678 -226 l 1678 -237 l 1668 -236 l 1672 -251 l 481 -251 l 479 -218 l 561 -219 q 317 -25 426 -149 q 115 578 90 233 q 397 1147 138 921 q 621 1289 501 1239 l 407 1279 l 408 1260 l 26 1285 l 31 1275 l 26 1278 l 81 756 l 75 -253 l 54 -253 l 54 -250 l 60 -250 l 51 756 l -7 1264 l -6 1304 l 396 1289 l 396 1283 l 1649 1361 l 1675 1361 l 1681 910 l 1671 111 m 1671 -228 l 1668 -124 l 1672 -124 l 1667 21 l 1665 103 q 1490 -107 1599 -12 q 1297 -233 1399 -186 l 1611 -237 l 1671 -228 m 1665 103 l 1671 111 l 1665 103 z "},"☢":{"ha":1403,"x_min":46,"x_max":1374,"o":"m 78 661 q 286 1064 101 901 q 432 1163 356 1126 l 63 1158 l 61 951 l 78 661 m 1351 1179 l 1351 1181 l 1278 1182 l 1275 1181 l 1351 1179 m 296 350 q 221 594 224 460 l 544 594 q 569 514 546 549 q 629 456 594 475 l 468 179 q 296 350 374 240 m 710 496 q 625 546 660 496 q 610 596 610 567 q 651 672 610 638 q 704 690 676 690 l 708 690 q 793 642 757 690 q 804 594 804 618 l 804 590 q 761 514 804 547 q 710 496 738 496 m 690 1076 l 710 1076 q 946 1010 838 1076 l 786 731 q 707 753 750 753 l 701 753 q 628 733 663 753 l 467 1010 q 690 1076 574 1076 m 793 461 q 865 589 865 517 l 865 594 l 1189 594 l 1189 582 q 971 196 1189 361 q 943 175 957 186 l 782 454 l 793 461 m 124 -142 l 124 -144 l 111 -143 l 111 -142 l 124 -142 m 607 72 l 629 117 l 660 65 l 672 64 q 1055 196 892 50 q 1232 558 1218 342 q 1102 942 1247 778 q 739 1118 957 1106 q 355 989 519 1133 q 178 624 190 844 q 308 242 163 406 q 607 72 431 104 m 767 -142 l 747 -142 l 621 81 l 504 -143 l 493 -143 l 493 -142 l 124 -142 l 494 -139 l 557 -22 q 232 175 368 22 q 90 442 124 296 l 124 -142 l 111 -142 l 90 236 l 46 299 l 47 1163 l 65 1163 l 63 1169 l 1271 1183 l 1272 1181 l 1275 1181 l 1265 1172 l 963 1169 q 1176 1010 1083 1115 q 1333 554 1350 814 q 1122 119 1318 292 q 719 -39 947 -33 l 778 -136 l 1324 -132 l 1356 -32 l 1369 -17 l 1371 -51 l 1371 -15 l 1374 -12 l 1372 -65 l 1338 -142 l 768 -142 l 767 -142 m 1369 -17 l 1351 413 l 1351 1179 l 1361 1179 l 1371 -15 l 1369 -17 z "},"⊛":{"ha":958,"x_min":31,"x_max":1431,"o":"m 74 664 l 289 792 l 92 924 l 74 664 m 351 274 l 47 285 l 47 283 l 428 271 l 428 272 l 399 272 q 361 274 381 272 l 351 274 m 1388 244 l 1389 244 l 1394 243 l 1397 307 l 1399 307 l 1399 385 l 1411 756 l 1394 382 l 1394 303 l 1390 303 l 1388 244 m 79 1214 l 728 1189 l 1329 1171 l 1329 1168 l 1376 1161 l 1410 1161 l 1429 1160 l 1411 756 l 1424 1146 l 1410 1147 l 1388 1147 l 1354 1153 l 1354 1157 l 736 1182 q 782 1135 760 1161 q 911 760 925 974 q 738 403 899 544 q 515 286 638 315 l 736 276 l 1342 244 q 1322 249 1322 247 l 1324 250 l 1388 244 l 1388 239 l 1379 239 l 1285 244 l 1285 243 q 1311 239 1285 242 l 428 272 l 428 274 q 399 272 414 272 l 351 274 q 56 399 181 288 l 47 285 l 31 286 l 31 288 l 35 288 l 72 1210 l 72 1214 l 79 1214 m 96 976 l 175 1075 l 368 904 l 442 1172 l 610 1114 l 507 871 l 763 879 l 763 711 l 504 725 l 600 474 l 432 421 l 361 669 l 172 522 l 74 656 l 63 508 l 68 503 q 368 357 188 369 q 683 465 549 346 q 828 764 817 585 q 721 1079 840 944 q 574 1189 656 1153 l 436 1193 l 428 1183 l 231 1196 q 106 1117 164 1168 l 96 976 z "},"ɟ":{"ha":414,"x_min":-14,"x_max":924,"o":"m 583 325 l 594 271 l 619 271 l 606 293 l 606 350 q 644 364 619 350 q 628 404 628 381 l 606 404 l 583 325 m 826 1211 q 806 1235 826 1232 l 794 1235 q 826 1200 813 1200 l 826 1211 m 493 925 q 454 990 454 951 l 446 990 l 446 906 l 493 925 m 569 519 q 603 488 589 488 l 614 488 q 603 531 614 493 l 594 531 l 569 519 m 761 1225 l 751 1225 q 731 1200 731 1225 l 731 1188 l 740 1188 q 761 1211 758 1188 l 761 1225 m 922 486 q 903 469 903 486 l 903 458 q 922 478 919 458 l 922 486 m 608 1200 l 597 1225 q 575 1200 575 1225 l 575 1167 l 588 1167 q 608 1200 588 1200 m 797 640 q 768 668 781 668 l 768 632 l 778 632 l 797 640 m 696 356 l 754 381 l 729 421 q 696 389 696 407 l 696 356 m 710 803 q 682 775 682 790 l 682 756 l 710 756 l 710 803 m 314 388 l 386 388 l 385 3 l -12 3 l -10 883 l -4 883 l 6 1301 l 89 1349 l 128 1253 q 351 1263 135 1263 q 364 1281 351 1272 q 375 1257 375 1269 q 407 1272 379 1257 l 381 1144 l 388 1096 l 386 515 l 314 515 l 314 1064 l 181 1064 l 181 515 l 99 515 l 99 388 l 181 388 l 181 246 q 154 204 178 215 q 96 194 126 190 q 49 214 67 199 l 6 83 q 115 68 40 68 q 235 97 189 68 q 303 169 282 125 q 314 260 315 214 l 314 388 z "},"ˆ":{"ha":596,"x_min":174,"x_max":444,"o":"m 356 1342 l 356 1342 l 443 1122 l 361 1122 l 308 1276 l 303 1258 l 257 1124 l 174 1124 l 261 1343 l 356 1343 l 356 1342 z "},"ˇ":{"ha":600,"x_min":208,"x_max":479,"o":"m 297 1113 l 296 1113 l 208 1332 l 292 1332 l 343 1178 l 350 1196 l 396 1331 l 478 1331 l 390 1111 l 296 1111 l 297 1113 z "},"˘":{"ha":608,"x_min":96,"x_max":500,"o":"m 189 1232 q 222 1152 189 1183 q 299 1121 254 1121 q 374 1152 343 1121 q 403 1232 406 1183 l 499 1232 q 440 1085 500 1144 q 298 1024 381 1025 q 156 1082 215 1024 q 96 1232 96 1140 l 189 1232 z "},"˙":{"ha":685,"x_min":203,"x_max":453,"o":"m 451 1069 l 203 1069 l 203 1314 l 451 1314 l 451 1069 z "},"˚":{"ha":665,"x_min":214,"x_max":533,"o":"m 485 1300 q 531 1190 531 1256 q 485 1081 532 1125 q 376 1031 442 1032 q 265 1075 310 1031 q 216 1190 217 1124 q 260 1300 215 1256 q 374 1347 308 1346 q 485 1300 440 1347 m 435 1132 q 460 1191 460 1156 q 431 1250 460 1226 q 372 1272 407 1272 q 313 1249 336 1272 q 290 1190 290 1225 q 317 1132 290 1156 q 377 1106 343 1106 q 435 1132 411 1106 z "},"˛":{"ha":554,"x_min":206,"x_max":394,"o":"m 394 -201 l 394 -289 l 392 -289 q 263 -237 317 -290 q 208 -106 208 -182 q 260 22 207 -31 q 390 78 313 78 q 394 78 392 78 l 394 -7 q 321 -36 349 -7 q 293 -104 293 -64 q 322 -172 293 -144 q 394 -201 353 -201 l 394 -201 z "},"˜":{"ha":690,"x_min":57,"x_max":567,"o":"m 567 1213 q 493 1149 529 1164 q 426 1133 457 1133 q 365 1143 396 1133 q 315 1161 335 1153 q 253 1185 296 1169 q 178 1194 211 1201 q 121 1144 146 1186 l 58 1193 q 128 1253 90 1238 q 195 1269 167 1268 q 254 1261 224 1271 q 304 1243 285 1251 q 365 1219 324 1235 q 440 1211 407 1204 q 503 1261 474 1218 l 567 1213 z "},"˝":{"ha":835,"x_min":111,"x_max":938,"o":"m 686 1335 l 557 1040 l 426 1040 l 508 1335 l 686 1335 m 447 1335 l 318 1040 l 188 1040 l 269 1335 l 447 1335 m 113 1338 l 111 1338 l 118 1214 l 118 1217 l 113 1338 m 138 901 l 138 900 l 193 901 l 192 900 l 260 901 l 582 907 l 257 903 l 189 901 l 189 903 l 138 901 m 113 1338 l 113 1343 l 114 1343 l 114 1342 l 899 1347 l 918 1347 l 921 1239 l 918 1239 l 936 943 l 933 943 l 931 928 l 932 917 l 932 910 l 582 907 l 919 913 l 919 917 l 918 924 l 922 935 l 925 935 l 917 1236 l 907 1236 l 908 1339 l 904 1338 l 906 1339 l 113 1338 m 138 901 l 133 901 l 133 935 l 132 935 q 129 926 131 935 l 118 1214 l 135 1214 l 136 1114 l 136 917 l 138 924 l 140 924 l 138 901 z "},"–":{"ha":740,"x_min":-31,"x_max":715,"o":"m 3 207 l 675 207 l 675 204 l 678 204 l 685 478 l 11 478 l 3 207 m -21 -172 l -24 -178 l -24 -181 l -19 -181 l -15 -182 q -21 -172 -18 -178 m 707 -171 l 682 150 l 682 139 l 707 -171 m 686 229 l 686 204 l 688 204 l 686 229 m 713 -233 l 713 -231 l 714 -231 l 714 -233 l 713 -233 m 675 204 l 3 204 l 3 207 l 0 207 l -1 157 l 28 153 l 28 151 l -4 157 l -7 144 l 28 140 l -8 144 l -22 -169 l -19 -167 l -19 -169 l 713 -226 l 707 -171 l 713 -233 l 711 -233 l 713 -231 l -12 -186 l -31 -185 l 3 933 l 6 933 l 11 1004 l 11 1022 l 535 992 l 535 988 l 707 985 l 706 978 l 697 617 l 697 478 l 693 478 l 686 229 l 685 254 l 682 150 l 679 174 q 676 158 678 167 l 675 160 l 672 118 l 618 118 l 503 125 l 28 139 l 503 126 l 503 129 l 672 118 l 675 204 m 15 617 l 692 617 l 701 982 l 535 983 l 535 988 l 17 1018 q 13 932 18 1008 l 25 932 l 15 617 m 503 131 l 28 147 l 28 149 l 503 132 l 503 131 m 618 118 l 672 115 l 503 122 l 503 124 l 618 118 z "},"—":{"ha":1697,"x_min":8,"x_max":1683,"o":"m 1683 614 l 1683 475 l 8 475 l 8 614 l 1683 614 z "},"‘":{"ha":485,"x_min":-14,"x_max":478,"o":"m 3 622 l 3 619 l 35 621 l 35 619 l 75 622 l 265 629 l 74 625 l 32 621 l 32 624 l 3 622 m -12 1314 l -14 1314 l -10 1118 l -10 1122 l -12 1314 m 319 1315 q 363 1308 340 1313 l 363 1201 q 236 1205 281 1225 q 197 1082 192 1185 l 361 1082 l 361 810 l 89 810 l 89 1082 q 153 1279 83 1222 q 242 1314 188 1307 l -12 1314 l -12 1319 l 454 1329 l 465 1329 l 468 1157 l 467 1157 l 476 688 l 475 688 l 474 663 l 474 636 l 265 629 l 467 638 l 467 657 l 468 674 l 469 675 l 465 1153 l 460 1153 l 460 1315 l 457 1314 l 458 1315 l 319 1315 m 3 622 l -1 622 l -1 626 l 0 675 l -1 675 l -3 661 l -10 1118 l 0 1118 l 1 960 l 1 646 q 3 656 1 656 l 4 656 l 3 622 z "},"’":{"ha":435,"x_min":-93,"x_max":399,"o":"m -76 96 l -76 90 l -44 92 l -44 90 l -4 94 l 186 107 l -6 99 l -47 94 l -47 97 l -76 96 m -92 1192 l -93 1192 l -89 881 l -89 888 l -92 1192 m -76 96 l -81 96 l -81 103 l -79 179 l -81 179 l -82 158 l -89 881 l -79 882 l -78 631 l -78 133 q -76 149 -78 149 l -75 149 l -76 96 m 182 100 l 181 101 q 182 100 182 101 m 186 101 l 188 101 l 188 100 q 185 99 186 100 l 185 100 q 186 101 186 100 m 107 1208 l 107 1210 l 157 1210 l 375 1217 l 386 1217 l 389 943 l 388 943 l 397 199 l 396 199 l 394 160 l 394 117 l 186 107 l 388 121 l 388 150 l 389 178 l 390 178 l 386 936 l 381 936 l 381 1194 l 379 1193 l 379 939 q 316 742 385 797 q 106 711 247 686 l 106 819 q 232 815 188 796 q 271 939 276 835 l 107 939 l 107 1193 l -92 1192 l -92 1203 l 107 1208 z "},"‚":{"ha":403,"x_min":8,"x_max":500,"o":"m 483 603 l 485 607 l 451 606 l 451 607 l 411 603 l 221 593 l 413 600 l 454 604 l 454 601 l 483 603 m 499 -247 l 500 -247 l 496 -7 l 496 -11 l 499 -247 m 26 -146 q 149 -149 106 -168 q 188 -25 194 -129 l 25 -25 l 25 246 l 296 246 l 296 -25 q 233 -222 301 -167 q 186 -249 213 -239 l 499 -247 l 499 -256 l 32 -267 l 21 -265 l 18 -54 l 21 -54 l 10 522 l 11 522 l 13 553 l 13 586 l 221 593 l 19 583 l 19 560 l 18 539 l 17 539 l 21 -49 l 28 -49 l 26 -146 m 483 603 l 488 603 l 488 597 l 486 538 l 488 538 q 489 554 489 538 l 496 -7 l 486 -7 l 485 189 l 485 572 q 483 561 485 561 l 483 603 z "},"“":{"ha":813,"x_min":89,"x_max":736,"o":"m 106 1051 q 179 1244 107 1193 q 392 1261 251 1296 l 385 1154 q 258 1166 304 1183 q 213 1044 213 1149 l 375 1035 l 360 764 l 89 781 l 106 1051 m 450 1026 q 524 1219 453 1168 q 736 1238 596 1271 l 729 1129 q 603 1141 650 1158 q 557 1019 557 1124 l 721 1010 l 704 740 l 433 756 l 450 1026 z "},"”":{"ha":735,"x_min":32,"x_max":732,"o":"m 38 -28 l 38 -35 l 83 -36 l 83 -39 l 140 -39 l 411 -47 l 138 -33 l 79 -35 l 81 -31 l 38 -28 m 53 1322 l 51 1322 l 47 940 l 47 949 l 53 1322 m 38 -28 l 33 -28 l 33 -19 l 36 75 l 35 75 l 32 49 l 47 940 l 61 940 l 54 629 l 38 19 l 39 38 l 42 38 l 38 -28 m 426 1292 l 378 1296 l 361 1047 q 285 855 357 906 q 72 839 213 804 l 81 947 q 206 934 160 917 q 254 1054 253 951 l 90 1065 l 108 1318 l 53 1322 l 53 1339 l 54 1339 l 54 1336 l 108 1332 l 108 1336 l 379 1318 l 379 1315 l 715 1296 l 732 1293 l 725 958 l 724 958 l 713 40 l 711 40 l 707 -8 l 707 -61 l 411 -47 l 696 -56 l 697 -42 l 697 -18 l 700 15 l 703 15 l 721 950 l 713 950 l 724 1268 l 719 1265 l 721 1268 l 696 1271 l 679 1022 q 603 830 676 881 q 392 815 531 779 l 399 922 q 525 910 479 893 q 572 1031 571 926 l 408 1042 l 426 1292 z "},"„":{"ha":753,"x_min":13,"x_max":663,"o":"m 325 204 l 325 475 l 53 475 l 53 204 l 217 204 q 178 81 222 100 q 51 85 133 61 l 51 -24 q 262 7 193 -49 q 325 204 331 63 m 644 201 l 644 472 l 372 472 l 372 201 l 536 201 q 497 78 542 97 q 371 82 453 58 l 371 -26 q 581 4 513 -51 q 644 201 650 60 m 13 844 l 663 844 l 663 -117 l 13 -117 l 13 844 z "},"‟":{"ha":731,"x_min":-28,"x_max":682,"o":"m 403 1161 l 403 906 q 462 720 397 772 q 660 692 526 668 l 660 793 q 541 790 583 771 q 504 906 499 808 l 658 906 l 658 1161 l 403 1161 m 65 1161 l 65 906 q 124 720 60 772 q 322 692 189 668 l 322 793 q 203 790 246 771 q 167 906 161 808 l 321 906 l 321 1161 l 65 1161 m -28 1301 l 682 1301 l 682 614 l -28 614 l -28 1301 z "},"†":{"ha":628,"x_min":26,"x_max":596,"o":"m 588 686 l 385 686 l 385 3 l 246 3 l 246 686 l 35 686 l 35 825 l 246 825 l 246 1036 l 385 1036 l 385 825 l 586 825 l 586 1053 l 43 1038 l 35 1038 l 33 1036 l 36 -143 l 579 -129 l 588 -129 l 589 -126 l 588 686 m 590 825 l 596 825 l 596 686 l 590 686 l 592 -132 l 32 -146 l 32 -111 l 26 1006 l 31 1006 l 29 1040 l 590 1056 l 590 825 z "},"‡":{"ha":631,"x_min":25,"x_max":928,"o":"m 36 214 l 39 -112 l 39 -129 l 40 -132 l 925 -128 l 921 260 q 917 150 919 200 q 911 356 911 60 q 917 561 911 651 q 918 531 918 546 l 914 1017 l 914 1033 l 913 1036 l 385 1033 l 385 825 l 596 825 l 596 686 l 385 686 l 385 353 l 596 353 l 596 214 l 385 214 l 385 3 l 246 3 l 246 214 l 36 214 m 246 1032 l 28 1032 l 35 350 l 35 353 l 246 353 l 246 686 l 35 686 l 35 825 l 246 825 l 246 1032 m 922 418 l 922 388 l 928 -136 l 917 -136 l 901 -135 l 64 -147 l 64 -139 l 38 -140 l 26 1039 l 36 1040 l 53 1039 l 917 1044 l 922 418 z "},"⸸":{"ha":631,"x_min":-17,"x_max":597,"o":"m 385 214 l 594 214 l 596 17 l 385 15 l 385 214 m -7 13 l -8 15 l -8 33 l -15 1336 l 588 1342 l 589 1339 l 589 1319 l 592 767 q 590 801 592 785 q 586 567 586 904 q 588 353 586 417 l 385 353 l 385 1036 l 246 1036 l 246 353 l 35 353 l 35 214 l 246 214 l 246 14 l -7 13 z "},"•":{"ha":525,"x_min":104,"x_max":400,"o":"m 118 489 q 136 592 106 544 q 224 651 167 639 q 327 633 279 664 q 388 547 375 603 q 369 446 400 493 q 282 386 338 399 q 178 404 226 374 q 118 489 131 435 z "},"…":{"ha":1254,"x_min":8,"x_max":1167,"o":"m 742 -19 l 553 -19 l 553 165 l 742 165 l 742 -19 m 326 -19 l 138 -19 l 138 165 l 326 165 l 326 -19 m 1160 165 l 1158 340 q 1153 217 1157 272 q 1146 451 1146 114 q 1153 685 1146 788 q 1154 650 1154 668 l 1150 1203 l 1150 1222 l 1147 1225 l 13 1219 l 26 -83 l 26 -101 l 28 -104 l 1164 -100 l 1163 -19 l 974 -19 l 974 165 l 1160 165 m 1160 521 l 1160 486 l 1167 -108 l 1153 -110 l 1132 -107 l 57 -122 l 57 -112 l 24 -114 l 10 1229 l 22 1229 l 43 1228 l 1153 1235 l 1160 521 z "},"‰":{"ha":1414,"x_min":-10,"x_max":1449,"o":"m 1132 594 q 1071 580 1093 594 q 1038 531 1049 565 q 1025 436 1028 496 q 1022 303 1022 376 q 1024 172 1022 231 q 1038 78 1026 113 q 1071 29 1049 43 q 1132 15 1093 15 q 1194 29 1172 15 q 1227 78 1217 43 q 1240 172 1238 113 q 1243 303 1243 231 q 1240 436 1243 376 q 1227 531 1238 496 q 1194 580 1217 565 q 1132 594 1172 594 m 721 593 q 660 578 682 593 q 627 529 638 564 q 614 435 617 494 q 611 301 611 375 q 613 170 611 229 q 626 76 615 111 q 660 28 638 42 q 721 14 682 14 q 783 28 761 14 q 816 76 806 42 q 829 170 826 111 q 832 301 832 229 q 829 435 832 375 q 816 529 826 494 q 783 578 806 564 q 721 593 761 593 m 226 1054 q 165 1040 188 1054 q 133 990 143 1025 q 119 896 122 956 q 117 763 117 836 q 119 631 117 690 q 132 538 121 572 q 165 489 143 503 q 226 475 188 475 q 289 489 267 475 q 322 538 311 503 q 335 631 332 572 q 338 763 338 690 q 335 896 338 836 q 322 990 332 956 q 289 1040 311 1025 q 226 1054 267 1054 m 1132 668 q 1235 651 1199 668 q 1288 591 1271 633 q 1312 479 1304 549 q 1319 306 1319 410 q 1312 130 1319 200 q 1288 18 1304 60 q 1235 -41 1271 -24 q 1132 -58 1199 -58 q 1031 -41 1067 -58 q 977 19 994 -24 q 953 131 960 61 q 946 306 946 200 q 953 479 946 410 q 977 591 960 549 q 1031 651 994 633 q 1132 668 1067 668 m 7 -75 l 7 -76 l 258 -67 l 260 -67 l 7 -75 m 1353 -115 q 1363 -117 1357 -115 l 1353 -115 m 1446 -103 l 1447 -104 l 1438 -37 l 1435 -36 l 1446 -103 m 1439 -35 l 1442 -31 l 1443 -31 l 1439 76 l 1410 551 l 1435 72 l 1439 -35 m 354 -67 l 354 -67 l 397 -67 l 354 -67 m 806 -49 l 1382 -106 q 1374 -103 1374 -104 l 1374 -100 l 1442 -103 l 1446 -103 l 1442 -111 l 1432 -111 l 1336 -110 l 1336 -112 q 1353 -115 1336 -114 l 397 -67 l 397 -40 l 611 -37 q 567 17 582 -21 q 542 129 549 60 q 535 304 535 199 q 542 478 535 408 q 566 590 549 547 q 619 649 583 632 q 721 667 656 667 q 824 649 788 667 q 876 590 860 632 q 901 478 893 547 q 908 304 908 408 q 901 128 908 199 q 876 17 893 58 q 824 -42 860 -25 q 806 -49 815 -46 m 354 -67 l 353 -67 l 258 -67 l 258 -67 l 354 -67 m 589 1118 l 347 1117 l 349 1101 l 343 1101 q 382 1050 368 1085 q 406 939 399 1008 q 414 765 414 869 q 406 590 414 660 q 382 478 399 519 q 329 419 365 436 q 226 401 293 401 q 125 419 161 401 q 72 478 89 436 q 47 590 54 521 q 40 765 40 660 q 47 939 40 869 q 72 1050 54 1008 q 114 1104 86 1086 l 24 1104 l 26 1097 l 22 1100 l 7 -75 l -10 -75 l -10 -74 l -6 -74 l -4 1088 l -4 1119 l 1358 1140 l 1379 1142 l 1410 551 l 1374 1121 l 1336 1121 l 683 1118 l 354 -67 l 260 -67 l 589 1118 m 1439 -35 l 1439 -37 l 1438 -37 l 1439 -35 z "},"‹":{"ha":604,"x_min":7,"x_max":610,"o":"m 31 -21 l 47 -19 l 40 272 l 31 -21 m 13 -21 l 21 -21 l 21 -7 l 13 -21 m 588 -7 q 578 -15 583 -11 l 583 -14 l 590 -14 l 592 -11 l 588 -7 m 54 985 l 593 1003 q 594 1006 594 1004 l 54 988 l 54 985 m 44 1083 l 38 1083 l 36 1081 l 42 1025 l 42 1044 l 44 1044 l 44 1083 m 600 1003 l 600 1006 l 594 1006 q 599 1161 596 1075 l 44 1083 l 44 1088 l 608 1165 l 608 1122 l 606 1003 l 610 1003 l 601 -18 l 572 -19 l 51 -24 l 51 -26 l 47 -26 l 47 -24 l 31 -24 l 31 -26 l 7 -26 l 39 285 q 36 283 38 283 l 31 296 q 39 314 39 296 l 42 1025 q 44 979 43 1001 l 51 979 l 50 985 l 54 985 l 53 389 l 258 774 l 494 774 l 286 386 l 494 0 l 258 0 l 53 385 l 51 332 l 49 332 q 43 346 47 339 l 51 -19 l 586 -4 l 585 -1 l 592 -4 l 600 1001 l 593 1003 l 600 1003 z "},"›":{"ha":556,"x_min":-37,"x_max":565,"o":"m 542 785 l 525 785 l 532 489 l 542 785 m 560 786 l 551 786 l 551 772 l 560 786 m -15 771 q -6 781 -11 776 l -11 779 l -18 779 l -19 776 l -15 771 m -28 -256 l -28 -258 l 518 -239 l 518 -236 l -28 -256 m -29 -254 l -33 -254 l -37 -256 l -29 783 l 0 785 l 521 789 l 521 792 l 525 792 l 525 789 l 542 789 l 542 792 l 565 792 l 533 476 l 538 476 l 542 464 q 533 446 533 464 q 528 -231 529 -254 l 521 -231 l 522 -236 l 518 -236 l 521 426 l 524 428 q 529 414 525 419 l 521 785 l 147 774 l 274 774 l 481 386 l 274 0 l 38 0 l 246 386 l 39 771 l -14 768 l -12 767 l -18 768 l -28 -253 l -21 -254 l -28 -254 l -28 -256 l -29 -256 l -29 -254 z "},"€":{"ha":688,"x_min":44,"x_max":681,"o":"m 407 -72 q 401 -60 407 -60 l 397 -61 q 404 -74 399 -71 l 407 -72 m 458 14 q 468 33 468 25 l 456 33 l 456 26 l 458 14 m 513 76 q 503 94 508 94 l 497 94 l 497 75 l 513 76 m 349 150 l 331 142 l 331 125 l 338 135 l 357 136 q 363 111 357 126 q 376 122 368 122 l 376 138 l 349 150 m 415 164 q 404 140 404 150 l 404 133 q 419 142 406 133 l 419 147 l 415 164 m 360 76 l 369 38 l 383 56 q 372 76 378 76 l 360 76 m 285 44 q 361 22 314 22 q 442 49 413 22 q 486 121 472 76 q 504 254 500 164 l 622 254 l 629 224 q 651 250 638 250 l 651 254 l 668 254 q 665 215 667 233 q 629 18 660 97 q 557 -85 606 -47 l 646 -72 l 678 -87 l 669 1265 l 669 1290 l 668 1293 l 501 1289 l 503 1296 q 47 1307 426 1300 l 51 633 q 57 756 53 699 q 92 952 63 874 q 185 1071 122 1031 q 361 1111 249 1111 q 537 1071 474 1111 q 630 952 600 1031 q 665 756 660 874 q 667 729 667 743 l 503 729 q 486 835 499 783 q 442 922 472 894 q 361 950 413 950 q 280 922 310 950 q 235 835 250 894 q 218 713 221 775 q 215 633 217 675 l 474 633 l 474 525 l 214 525 l 214 475 l 474 475 l 474 365 l 214 365 q 217 300 215 331 l 306 300 l 304 240 l 321 240 l 285 44 m 51 297 l 51 365 l 49 365 l 49 475 l 50 475 l 50 525 l 49 525 l 49 633 l 44 1319 l 53 1321 l 67 1318 l 526 1315 l 528 1314 l 649 1317 l 650 1306 l 671 1306 l 679 -100 l 671 -100 l 644 -83 l 536 -100 l 225 -99 l 288 292 l 283 294 l 247 294 l 51 292 l 51 297 l 51 297 z "},"℗":{"ha":836,"x_min":14,"x_max":850,"o":"m 246 456 q 342 383 289 410 l 681 392 q 743 436 713 410 l 763 456 l 438 456 l 438 388 l 396 388 l 396 456 l 246 456 m 396 838 l 168 838 q 146 728 149 788 q 233 468 135 579 l 243 458 l 396 458 l 396 838 m 219 1028 q 529 1135 353 1146 q 789 1028 681 1126 l 785 1139 l 800 1139 q 794 1221 793 1210 l 215 1190 l 215 1188 l 29 1185 l 40 838 l 43 838 l 56 456 l 58 456 l 58 458 l 153 458 q 75 733 65 579 q 93 838 78 788 l 43 838 l 43 840 l 94 840 q 219 1028 128 947 m 688 722 q 538 660 647 660 l 438 660 l 438 458 l 765 458 q 808 513 790 483 l 797 838 l 721 838 q 688 722 721 776 m 721 840 l 797 840 l 793 922 q 775 944 785 933 q 528 1065 675 1057 q 265 976 378 1075 q 168 840 199 918 l 396 840 l 396 1019 l 536 1019 q 622 1008 586 1019 q 685 963 657 997 q 719 857 713 928 q 721 840 721 849 m 679 838 l 438 838 l 438 697 l 535 697 q 606 706 578 697 q 651 739 633 715 q 676 801 668 763 q 679 838 679 819 m 679 840 q 675 882 679 861 q 644 947 665 924 q 595 975 624 969 q 521 981 567 981 l 438 981 l 438 840 l 679 840 m 343 383 q 482 347 407 351 q 681 392 592 340 l 343 383 m 58 456 l 61 375 l 221 383 q 182 422 200 401 q 156 456 167 439 l 58 456 m 46 478 l 44 456 l 47 456 l 46 478 m 22 103 l 51 393 l 51 404 l 22 103 m 17 44 l 15 43 l 14 47 l 17 46 l 17 44 m 818 93 l 821 93 l 825 94 l 828 94 l 818 93 m 815 410 q 803 397 808 404 l 815 399 l 815 410 m 835 653 l 836 654 l 849 158 l 846 157 l 849 96 l 847 96 l 847 90 l 814 89 l 329 63 l 133 51 l 133 53 l 18 47 l 18 44 l 17 44 l 22 103 l 17 50 l 822 104 l 821 107 l 825 104 l 825 150 l 658 96 l 529 89 l 617 94 l 821 160 l 818 288 l 549 279 q 490 276 521 276 l 39 261 l 39 264 l 469 278 q 225 381 329 289 l 122 374 l 61 375 l 60 414 l 57 413 q 53 426 56 421 l 51 404 l 47 503 l 46 478 l 24 1182 l 24 1189 l 215 1192 l 215 1194 l 801 1224 l 803 1207 l 821 1140 l 824 1140 l 835 653 m 815 399 l 803 397 q 789 385 796 392 q 567 281 690 299 l 818 289 l 815 399 m 826 100 l 824 101 l 822 100 l 826 100 z "},"™":{"ha":2839,"x_min":35,"x_max":2813,"o":"m 585 -282 l 914 -282 l 914 1267 l 1515 1267 l 1813 197 l 2110 1267 l 2711 1267 l 2711 -286 l 2807 -286 l 2783 1296 l 2782 1321 l 2779 1324 l 2061 1314 l 2063 1322 q 68 1318 1857 1324 l 71 1267 l 817 1267 l 817 1017 l 569 1015 l 574 -281 l 585 -282 m 63 1015 q 65 -279 61 606 l 296 -279 l 292 1017 l 63 1015 m 2375 -282 l 2375 944 l 2017 -282 l 2375 -282 m 1608 -282 l 1250 944 l 1250 -282 l 1608 -282 m 146 -282 l 53 -281 l 53 -272 l 56 -258 l 47 1015 l 43 1015 l 43 1267 l 47 1267 l 43 1306 l 56 1306 l 54 1318 l 35 1318 l 35 1325 l 54 1325 l 54 1328 l 35 1326 l 35 1328 l 2131 1342 l 2131 1340 l 2729 1347 l 2729 1336 l 2788 1336 l 2811 -299 l 2789 -299 l 2753 -297 l 2508 -297 l 2508 -310 l 1779 -301 l 90 -306 l 90 -294 l 68 -294 l 68 -289 l 53 -289 l 51 -282 l 146 -282 z "},"℠":{"ha":2082,"x_min":17,"x_max":2085,"o":"m 586 -235 l 988 -235 l 988 1269 l 1324 1269 l 1325 1268 l 1506 225 l 1685 1268 l 1686 1269 l 2022 1269 l 2022 -231 l 2079 -231 l 2054 1300 l 2054 1324 l 2050 1328 l 1308 1318 l 1310 1325 q 22 1321 1094 1326 l 39 261 q 40 286 39 274 l 217 286 l 217 174 q 260 -24 224 19 q 426 -95 303 -76 q 620 -42 549 -114 q 689 149 692 31 q 631 339 686 268 q 451 470 576 410 q 232 600 326 531 q 99 735 138 669 q 56 897 60 801 q 92 1086 51 993 q 218 1231 133 1179 q 441 1283 303 1282 q 661 1247 579 1285 q 797 1125 743 1208 q 833 810 851 1042 l 661 810 q 651 1007 668 911 q 521 1131 633 1103 q 326 1110 408 1160 q 235 935 243 1060 q 365 728 228 811 q 617 585 503 644 q 800 434 732 525 q 878 199 868 343 q 847 -39 888 54 q 715 -189 806 -132 q 586 -235 664 -221 m 1181 -233 l 1422 -233 l 1181 1051 l 1181 -233 m 1588 -232 l 1829 -232 l 1829 1051 l 1588 -232 m 42 97 l 47 -210 l 47 -233 l 50 -237 l 332 -236 q 224 -206 267 -226 q 86 -85 142 -165 q 42 97 51 -35 m 1379 1343 l 1999 1350 l 1999 1339 l 2060 1340 l 2085 -243 l 2061 -243 l 2024 -242 l 42 -249 l 17 1333 l 40 1333 l 78 1332 l 1379 1344 l 1379 1343 z "},"⅓":{"ha":958,"x_min":-15,"x_max":975,"o":"m 121 1153 l 163 1147 l 356 1140 l 121 1153 m 0 1146 l 104 1151 l 60 1142 l 0 1146 m 75 -79 l 11 -81 l 10 -57 l -12 1144 l 4 -65 l 4 -87 l 124 -79 l 75 -79 m 60 1142 l -14 1150 l -14 1157 l 121 1153 l 60 1142 m 399 246 l 311 -72 l 408 -68 q 399 246 404 97 m 299 -72 l 217 -72 l 390 553 q 374 1121 375 1047 q 390 554 375 1047 l 549 1125 l 643 1125 l 400 246 q 410 -82 404 93 l 408 -69 l 124 -79 l 299 -72 m 297 1107 l 300 435 l 207 435 l 206 1031 l 56 1006 l 47 1071 l 297 1107 m 763 438 q 756 514 768 496 q 727 534 744 532 q 694 526 710 536 q 678 493 679 515 q 676 447 676 471 l 542 447 q 561 583 536 547 q 626 637 586 619 q 731 653 667 654 q 838 628 796 651 q 895 561 879 604 q 907 454 911 518 q 850 331 893 349 q 917 188 908 294 l 914 157 q 895 50 911 93 q 835 -18 879 7 q 726 -42 790 -43 q 621 -24 663 -40 q 556 36 579 -8 q 539 192 532 81 l 676 192 q 677 143 676 167 q 686 103 678 119 q 718 87 694 88 q 757 106 742 86 q 768 201 772 125 q 647 272 764 278 l 647 376 q 689 379 668 375 q 763 438 757 388 m 372 1133 l 218 1140 l 372 1139 l 372 1136 l 936 1144 l 938 1135 l 943 1136 l 974 -32 l 971 -33 l 975 -86 l 410 -93 l 410 -87 l 965 -81 l 963 -36 l 849 -75 l 764 -74 l 822 -72 l 954 -29 l 924 1129 l 372 1133 m 372 1139 q 322 1147 372 1149 l 372 1149 l 372 1139 z "},"‐":{"ha":553,"x_min":-22,"x_max":569,"o":"m -12 1254 l -21 1257 l -15 622 l -12 1254 m 217 446 q 219 -68 218 221 l 233 -67 l 233 -64 l 557 -67 l 540 1269 l 210 1263 q 215 585 211 1181 l 529 585 l 529 446 l 217 446 m 215 585 l 210 1263 l -19 1257 l -21 1285 l 556 1288 l 556 1261 l 549 1261 l 549 1260 l 553 1260 l 568 -96 l 563 -90 l 560 -86 l 231 -78 l -1 -85 l -1 -86 l -6 -86 l -6 -85 l -7 -85 l -14 -86 l -12 -71 l -6 -71 l -4 17 l -6 17 l -7 -6 l -14 622 l -3 622 l -3 -39 l -1 -21 l 0 -21 l -1 -69 l 219 -68 l 215 446 l 29 446 l 29 585 l 215 585 z "},"−":{"ha":635,"x_min":-10,"x_max":640,"o":"m -3 1243 l -8 1244 l -7 579 l -3 1243 m 135 585 l 549 585 l 549 446 l 135 446 q 136 346 135 396 l 143 346 l 633 342 l 624 1244 l 131 1246 q 135 585 132 1213 m 135 446 l 29 446 l 29 585 l 135 585 l 131 1246 l -7 1244 l -8 1254 l 633 1251 l 633 1242 l 632 1242 l 640 332 l 636 333 l 635 335 l 142 342 l 1 339 l -6 339 l -6 344 l 0 344 l 0 374 l -1 374 l -1 367 l -6 579 l 1 579 l 0 356 l 1 361 l 3 361 l 1 344 l 136 346 l 135 446 z "},"∞":{"ha":854,"x_min":19,"x_max":1369,"o":"m 72 738 q 106 657 72 690 q 189 625 140 624 q 279 663 243 629 q 346 743 315 697 q 276 818 314 783 q 188 853 239 853 q 104 817 136 853 q 72 738 72 781 m 569 858 q 481 819 518 858 q 413 733 444 779 q 481 651 444 688 q 569 617 518 615 q 658 651 621 615 q 694 738 694 688 q 658 824 696 790 q 569 858 621 858 m 24 682 l 24 788 l 21 1046 l 19 1108 l 26 1108 l 25 1119 l 1360 1096 l 1360 1092 l 1358 1076 l 1368 279 l 1363 279 l 1363 268 l 25 292 l 25 296 l 26 303 l 24 682 m 29 668 q 31 293 31 515 l 1204 279 l 1356 285 l 1357 1094 l 46 1118 l 33 1118 l 32 1117 l 35 1033 l 31 1033 q 29 803 29 1014 q 64 851 42 829 q 182 904 114 903 q 315 854 260 907 q 376 786 351 821 q 436 863 404 832 q 574 915 493 921 q 702 865 653 913 q 750 738 751 817 q 697 616 750 667 q 569 565 644 565 q 442 615 494 565 q 382 688 408 647 q 322 619 354 651 q 183 568 274 569 q 63 618 108 569 q 29 668 42 642 z "},"≠":{"ha":869,"x_min":14,"x_max":840,"o":"m 821 467 l 821 692 l 458 692 l 406 467 l 821 467 m 375 692 l 39 692 l 40 533 l 40 467 l 321 467 l 375 692 m 614 -103 l 725 -104 l 824 -101 l 824 -96 l 614 -103 m 15 1222 l 14 1222 l 21 842 l 21 850 l 15 1222 m 229 -115 l 165 -117 l 93 -124 l 94 -119 l 75 -119 l 65 -121 l 42 -121 l 42 -128 l 99 -125 l 97 -128 l 168 -122 l 300 -115 l 229 -115 m 583 1225 l 510 908 l 819 908 l 818 1225 l 824 1225 l 829 926 l 828 926 l 839 -57 l 832 -57 l 833 -121 l 300 -115 l 500 -107 l 229 -115 l 138 -114 l 75 -119 l 65 -121 l 68 -106 l 149 -96 l 583 -103 l 588 -103 l 824 -90 l 822 250 l 354 250 l 289 -24 l 206 -24 l 271 250 l 40 250 l 39 -74 q 42 -56 40 -56 l 44 -56 l 42 -121 l 36 -121 l 36 -112 l 38 -18 l 35 -18 l 33 -44 l 21 842 l 31 843 l 31 908 l 426 908 l 500 1225 l 15 1222 l 15 1239 l 17 1239 l 17 1235 l 828 1253 l 828 1226 l 583 1225 z "},"≤":{"ha":872,"x_min":-47,"x_max":846,"o":"m 803 -196 q 785 -207 794 -201 l 794 -206 l 808 -206 l 810 -201 l 803 -196 m 24 -42 l 17 143 l -1 -212 l 31 -212 l 26 -101 l 24 -101 l 24 -42 m -37 -212 l -21 -212 l -21 -197 l -37 -212 m 792 376 l 783 679 l 371 531 l 792 376 m 776 883 l 772 1010 l 43 988 l 42 610 l 776 883 m 35 -101 l 39 -212 l 800 -193 l 796 -190 l 808 -193 l 806 -101 l 35 -101 m 800 90 l 799 171 l 40 453 l 39 217 l 32 215 q 24 233 29 225 l 28 90 l 800 90 m 24 1132 l 10 1132 l 8 1129 q 18 1060 14 1096 l 18 1083 l 25 1083 l 24 1132 m 814 1033 q 822 1228 818 1118 l 25 1132 l 25 1138 l 843 1232 l 843 1211 l 842 1179 l 838 1033 l 844 1035 l 831 -210 l 774 -211 l 39 -217 l 39 -221 l 31 -221 l 31 -217 l -1 -217 l -1 -221 l -47 -221 l 14 158 q 7 157 11 158 l -1 172 q 14 194 15 174 l 15 194 l 18 1060 q 25 1004 22 1033 l 38 1006 l 35 1013 l 776 1035 l 778 1032 l 814 1033 z "},"≥":{"ha":1086,"x_min":1,"x_max":1071,"o":"m 107 399 l 107 156 l 1043 503 l 1043 678 l 107 1025 l 107 786 l 642 590 l 107 399 m 1 1121 l 1071 1121 l 1071 -306 l 1 -306 l 1 1121 m 106 108 l 106 -111 l 1019 -111 l 1019 108 l 106 108 z "},"⊙":{"ha":1569,"x_min":46,"x_max":1544,"o":"m 792 436 q 726 515 742 463 q 736 617 710 567 q 814 681 761 665 q 914 671 867 697 q 978 594 963 646 q 969 493 994 542 q 891 428 943 444 q 792 436 839 411 m 1526 254 l 1504 210 q 1069 -149 1363 -57 q 1014 -164 1042 -158 l 1488 -161 l 1524 -67 l 1539 -53 l 1526 254 m 1400 267 q 1444 738 1519 493 q 1140 1100 1368 982 q 670 1147 914 1222 q 307 843 426 1071 q 261 372 188 618 q 567 8 335 126 q 1035 -37 792 -112 q 1400 267 1279 39 m 1519 1254 l 1519 1256 l 1435 1257 l 1433 1254 l 1519 1254 m 1540 -51 l 1543 -49 l 1543 -97 l 1503 -169 l 133 -169 l 689 -167 q 507 -97 597 -144 q 148 335 239 43 q 201 896 57 628 q 571 1236 326 1138 l 65 1231 l 63 1004 l 133 -189 l 119 -189 l 96 224 l 46 292 l 49 1235 l 68 1235 l 65 1243 l 606 1249 l 1428 1258 l 1429 1256 l 1433 1254 l 1422 1246 l 1117 1243 q 1196 1207 1157 1226 q 1519 871 1419 1089 l 1519 1254 l 1529 1254 l 1533 838 l 1540 -51 m 133 -189 l 133 -192 l 121 -190 l 119 -189 l 133 -189 z "},"⨀":{"ha":1424,"x_min":15,"x_max":1411,"o":"m 463 117 q 874 79 661 13 q 1192 343 1086 146 q 1231 755 1297 540 q 967 1072 1165 969 q 554 1113 768 1179 q 235 846 340 1047 q 196 436 129 649 q 463 117 263 224 m 97 406 q 57 533 97 406 q 143 897 17 661 q 522 1213 267 1133 q 1014 1167 778 1292 q 1330 787 1250 1043 q 1283 296 1410 531 q 904 -21 1160 57 q 411 26 649 -99 q 97 406 176 150 m 658 493 q 603 562 618 517 q 611 649 588 607 q 678 707 633 692 q 768 699 724 722 q 825 630 811 676 q 815 542 839 583 q 748 485 793 499 q 658 493 703 471 z "},"⏎":{"ha":939,"x_min":4,"x_max":913,"o":"m 588 1033 l 588 301 l 406 301 l 406 449 l 101 215 l 406 -15 l 406 132 l 769 132 l 769 1033 l 588 1033 m 40 186 q 42 -93 42 65 l 394 -83 l 40 186 m 39 242 l 460 564 l 460 356 l 533 356 l 533 1088 l 824 1088 l 824 78 l 460 78 l 460 -82 l 865 -71 l 879 -68 l 882 -65 l 853 285 l 857 285 q 904 1210 865 432 l 49 1222 l 35 1221 l 33 1218 l 31 646 q 39 242 36 664 m 460 -93 l 410 -96 l 18 -115 l 18 -100 l 19 -75 l 14 207 l 4 214 l 14 221 l 13 264 l 13 319 q 15 514 13 429 l 19 1181 l 26 1182 l 25 1224 l 911 1214 l 911 1197 l 868 239 l 868 238 l 894 -29 l 888 -29 l 889 -71 l 460 -93 z "},"⚘":{"ha":1332,"x_min":22,"x_max":1310,"o":"m 856 476 q 776 497 819 486 q 826 419 803 456 q 1069 228 1051 249 q 1100 178 1090 203 q 1107 150 1107 164 q 1115 157 1111 153 q 1111 216 1132 175 q 1056 297 1090 257 q 1153 276 1108 282 q 1208 292 1199 269 q 1215 308 1213 301 q 1174 300 1199 300 q 1115 313 1146 300 q 856 476 1089 321 m 857 374 q 996 174 979 190 q 1038 142 1017 153 q 1078 135 1058 131 q 1086 139 1083 136 q 1081 176 1090 157 q 1051 221 1069 199 q 857 374 1038 238 m 892 7 q 903 47 904 24 q 893 97 901 69 q 769 318 885 121 q 819 76 811 97 q 846 31 831 49 q 882 7 861 13 l 892 7 m 761 372 q 913 99 904 125 q 922 40 924 67 q 915 11 922 24 q 925 14 919 13 q 944 69 947 24 q 925 165 940 115 q 1005 108 965 131 q 1063 100 1044 85 q 1078 118 1072 108 q 1038 124 1057 115 q 986 157 1010 135 q 814 407 968 178 q 744 457 781 431 q 761 372 753 411 m 847 743 q 1049 882 1032 867 q 1079 924 1068 904 q 1086 965 1090 944 q 1085 974 1086 968 q 1044 967 1065 978 q 1000 939 1024 958 q 847 743 983 924 m 1214 779 q 1174 790 1199 792 q 1124 779 1150 789 q 903 658 1101 774 q 1146 707 1125 697 q 1192 733 1172 718 q 1214 768 1211 747 l 1214 779 m 849 649 q 1124 800 1097 790 q 1182 810 1156 810 q 1211 803 1199 808 q 1207 811 1208 806 q 1154 830 1200 833 q 1056 813 1108 826 q 1113 891 1090 851 q 1121 950 1136 931 q 1104 964 1114 958 q 1099 924 1107 944 q 1064 872 1088 897 q 814 700 1044 854 q 764 632 790 669 q 849 649 810 640 m 861 572 q 1181 615 1154 617 q 1239 603 1214 614 q 1265 583 1254 594 q 1222 621 1264 606 q 1125 642 1179 636 q 1210 693 1174 665 q 1239 743 1247 721 q 1231 760 1236 754 q 1208 725 1225 742 q 1157 693 1189 706 q 858 631 1132 683 q 786 589 824 610 q 861 572 825 581 m 479 733 q 339 933 357 918 q 297 966 318 954 q 257 974 276 978 q 247 971 253 972 q 253 931 243 951 q 282 889 264 910 q 479 733 299 871 m 442 1101 q 431 1063 429 1086 q 442 1010 432 1039 q 565 790 449 989 q 514 1033 524 1011 q 488 1078 503 1060 q 453 1100 474 1097 q 442 1101 449 1101 m 575 735 q 421 1010 431 983 q 414 1068 411 1042 q 419 1099 414 1083 q 410 1094 415 1097 q 391 1042 388 1088 q 410 943 394 996 q 329 1001 368 978 q 272 1008 290 1024 q 258 993 264 1000 q 299 985 278 994 q 347 951 324 975 q 521 701 368 932 q 590 650 553 678 q 575 735 582 696 m 486 364 q 288 226 303 243 q 255 185 265 206 q 249 143 244 164 q 250 135 249 139 q 290 140 269 131 q 335 169 313 151 q 486 364 351 185 m 119 329 q 160 318 136 317 q 211 328 183 318 q 432 451 233 336 q 189 401 210 410 q 144 374 163 389 q 121 340 125 360 q 119 329 119 335 m 488 463 q 213 308 238 317 q 153 300 179 297 q 122 306 138 301 q 126 297 125 303 q 181 278 136 275 q 279 297 226 282 q 222 216 244 256 q 214 158 199 176 q 231 144 222 151 q 236 185 229 164 q 271 235 247 211 q 519 407 290 254 q 571 476 543 440 q 488 463 525 468 m 478 536 q 154 493 183 492 q 96 506 119 494 q 69 524 81 513 q 114 488 72 501 q 210 465 156 474 q 124 415 161 442 q 96 365 88 388 q 104 347 99 356 q 126 383 108 367 q 178 415 146 401 q 476 478 203 425 q 549 521 511 499 q 478 536 511 528 m 649 744 q 606 1068 604 1040 q 618 1125 607 1101 q 638 1151 626 1140 q 601 1110 614 1150 q 581 1011 588 1067 q 528 1097 556 1060 q 478 1125 500 1133 q 461 1117 468 1122 q 496 1094 479 1113 q 529 1044 514 1076 q 590 746 540 1019 q 633 674 611 711 q 649 744 642 710 m 672 -83 q 628 -87 653 -89 q 581 -40 594 -83 q 568 31 568 3 q 526 -28 556 6 q 464 -51 496 -62 q 432 -35 444 -44 q 383 -21 408 -37 q 359 39 356 -6 q 372 110 363 83 q 311 72 351 93 q 246 74 271 51 q 222 104 231 88 q 179 135 199 111 q 182 200 161 160 q 222 261 203 240 q 152 249 197 251 q 92 275 107 247 q 81 310 83 294 q 57 354 64 326 q 83 415 49 386 q 143 454 118 443 q 74 472 117 457 q 29 521 31 488 q 31 547 28 535 q 26 593 24 568 q 73 640 29 626 q 143 653 117 653 q 85 694 118 665 q 61 756 51 724 q 76 788 68 775 q 92 836 76 811 q 152 863 107 867 q 222 847 197 858 q 185 909 206 868 q 188 974 165 950 q 215 999 201 990 q 247 1040 225 1021 q 314 1038 275 1058 q 374 997 353 1017 q 362 1068 364 1024 q 390 1128 360 1113 q 425 1139 408 1136 q 468 1163 440 1157 q 528 1136 500 1171 q 568 1076 556 1101 q 585 1146 569 1104 q 633 1190 600 1188 q 660 1188 649 1190 q 706 1193 681 1196 q 752 1147 739 1190 q 765 1076 765 1104 q 808 1135 778 1101 q 869 1158 838 1168 q 903 1143 889 1151 q 950 1128 925 1143 q 975 1067 979 1113 q 960 997 971 1022 q 1022 1035 982 1017 q 1088 1033 1063 1054 q 1111 1003 1103 1019 q 1153 972 1135 996 q 1151 906 1172 944 q 1110 847 1131 867 q 1182 858 1138 856 q 1240 829 1226 860 q 1251 797 1250 813 q 1276 753 1269 779 q 1250 692 1285 721 q 1190 653 1215 663 q 1258 635 1217 650 q 1304 586 1300 619 q 1303 560 1306 572 q 1307 514 1310 540 q 1260 468 1304 482 q 1190 454 1217 454 q 1249 411 1215 440 q 1271 350 1282 382 q 1254 318 1264 331 q 1242 269 1254 294 q 1181 246 1226 243 q 1110 260 1136 249 q 1148 198 1128 238 q 1146 133 1168 158 q 1118 108 1132 118 q 1085 67 1110 86 q 1019 68 1058 47 q 960 110 981 89 q 971 38 969 83 q 942 -21 972 -7 q 908 -32 925 -29 q 865 -56 893 -50 q 805 -30 833 -64 q 765 31 776 4 q 749 -39 764 3 q 700 -85 733 -81 q 672 -83 685 -85 m 685 363 q 729 40 731 69 q 715 -18 726 7 q 697 -43 708 -33 q 733 0 719 -42 q 754 97 750 43 q 807 13 779 49 q 857 -18 835 -24 q 874 -8 867 -15 q 838 14 856 -4 q 807 64 819 32 q 743 364 796 90 q 703 435 724 399 q 685 363 693 397 m 676 482 q 733 418 707 450 q 704 492 719 453 q 781 456 743 474 q 724 511 754 482 q 800 508 764 510 q 735 536 769 522 q 815 564 778 550 l 738 564 q 801 621 772 594 q 728 592 767 607 q 764 669 746 632 q 708 613 738 642 q 711 688 710 651 q 683 625 699 658 q 654 706 669 667 l 654 626 q 599 690 625 660 q 628 617 613 654 q 550 651 588 636 q 607 596 578 626 q 532 600 568 597 q 596 572 561 586 q 518 544 556 558 l 593 544 q 529 486 558 513 q 604 515 565 500 q 568 439 585 476 q 624 494 594 467 q 619 419 622 456 q 649 485 635 451 q 675 406 663 443 q 676 482 675 442 m 674 310 q 624 54 624 78 q 631 2 624 25 q 654 -32 638 -21 q 671 -40 661 -37 q 675 -37 672 -39 q 701 -5 693 -28 q 710 47 708 18 q 674 310 711 71 m 446 6 q 483 26 467 8 q 511 69 499 43 q 578 315 521 90 q 443 106 451 125 q 430 53 432 78 q 440 14 428 29 q 446 6 443 8 m 607 361 q 525 58 538 83 q 490 8 510 28 q 465 -8 479 -3 q 475 -11 469 -10 q 526 14 496 -21 q 581 96 556 49 q 599 -1 588 42 q 635 -46 611 -44 l 642 -46 q 617 -11 626 -33 q 606 49 606 15 q 665 360 606 76 q 654 431 661 393 q 607 361 629 394 m 590 365 q 610 446 599 404 q 533 396 569 419 q 342 153 363 169 q 292 121 317 131 q 261 117 276 117 q 271 107 267 111 q 328 110 288 89 q 411 165 369 131 q 389 68 394 113 q 404 14 383 24 q 422 7 414 8 q 414 47 414 24 q 425 107 414 75 q 590 365 433 132 m 660 794 q 711 1054 711 1031 q 704 1106 711 1083 q 681 1140 697 1129 q 664 1149 674 1146 q 660 1146 661 1147 q 634 1114 642 1136 q 625 1063 626 1092 q 660 794 624 1039 m 888 1103 q 853 1082 868 1100 q 824 1039 836 1065 q 757 793 813 1018 q 892 1003 883 982 q 905 1054 903 1031 q 894 1094 907 1078 q 888 1103 892 1100 m 728 749 q 810 1051 797 1028 q 843 1100 824 1082 q 869 1117 856 1111 q 860 1121 865 1118 q 808 1094 838 1129 q 754 1011 779 1060 q 737 1110 750 1067 q 700 1156 724 1153 l 692 1156 q 718 1121 708 1143 q 729 1060 729 1093 q 668 747 729 1032 q 679 676 672 714 q 728 749 706 714 m 426 547 q 167 597 190 597 q 116 591 139 597 q 81 568 93 585 q 74 551 75 560 q 75 547 74 549 q 108 520 86 528 q 161 511 131 513 q 426 547 185 510 m 118 775 q 139 740 121 754 q 183 710 156 724 q 426 644 203 700 q 218 779 240 771 q 167 792 190 790 q 128 781 143 793 q 118 775 122 778 m 474 614 q 171 696 196 685 q 121 731 140 710 q 106 756 110 742 q 101 747 103 751 q 128 695 93 725 q 210 640 163 665 q 111 624 154 636 q 68 589 68 613 l 68 581 q 103 606 79 596 q 163 615 128 615 q 474 556 190 615 q 544 567 507 560 q 474 614 507 592 m 476 632 q 558 614 514 624 q 511 686 533 651 q 265 879 283 858 q 233 929 243 904 q 229 960 229 944 q 219 951 224 956 q 224 892 203 933 q 278 811 244 851 q 181 832 225 826 q 126 817 138 838 q 119 799 122 808 q 161 810 138 810 q 219 797 189 810 q 476 632 246 786 m 746 744 q 726 664 738 707 q 800 711 765 689 q 993 956 972 939 q 1043 988 1019 978 q 1074 993 1057 994 q 1065 1001 1068 997 q 1007 999 1049 1019 q 924 943 965 978 q 946 1041 940 996 q 929 1094 951 1086 q 913 1101 922 1100 q 922 1063 922 1086 q 908 1001 922 1033 q 746 744 900 976 m 913 561 q 1168 511 1144 511 q 1219 517 1196 511 q 1253 540 1242 524 q 1261 558 1258 549 q 1260 563 1261 560 q 1226 588 1249 581 q 1174 596 1204 594 q 913 561 1150 597 m 1217 335 q 1196 369 1214 354 q 1150 397 1178 385 q 906 464 1131 408 q 1115 329 1096 339 q 1168 316 1144 318 q 1207 326 1192 314 q 1217 335 1213 329 m 860 494 q 1165 413 1139 424 q 1214 378 1194 397 q 1229 353 1225 365 q 1235 361 1233 356 q 1207 413 1242 383 q 1125 468 1172 442 q 1224 485 1179 474 q 1269 521 1268 497 l 1269 529 q 1233 504 1257 513 q 1172 493 1207 493 q 861 554 1144 492 q 790 543 826 547 q 860 494 826 517 z "},"⍟":{"ha":1093,"x_min":31,"x_max":1504,"o":"m 379 479 l 160 639 l 432 639 l 517 899 l 600 639 l 872 639 l 653 479 l 738 219 l 517 381 l 294 219 l 379 479 m 306 132 q 637 101 465 47 q 892 314 808 154 q 924 645 978 474 q 711 900 871 817 q 380 933 553 985 q 124 718 207 881 q 92 388 39 560 q 306 132 146 217 m 35 1111 l 33 1111 l 32 1049 l 35 1047 l 35 1111 m 1363 1126 l 1379 1114 l 1490 1088 l 1501 81 l 1500 1099 l 1417 1129 l 1358 1129 l 1361 1126 l 1401 1128 l 1363 1126 m 1363 1126 l 886 1111 l 35 1111 l 36 1119 l 1363 1126 m 328 31 q 265 58 296 42 q 56 263 126 132 l 58 31 l 289 28 l 328 31 m 47 756 q 50 760 49 757 q 354 1013 149 949 q 749 975 560 1076 q 1003 670 940 875 q 967 275 1067 465 q 729 47 883 118 l 1501 81 l 1501 71 l 1082 53 l 1013 15 l 54 17 l 54 32 l 46 31 l 42 289 l 36 732 l 32 1043 l 35 1044 l 35 1047 l 43 1039 l 47 756 m 1501 81 l 1503 81 l 1503 71 l 1501 71 l 1501 81 z "},"☂":{"ha":1183,"x_min":46,"x_max":1142,"o":"m 1049 744 q 1028 856 1044 800 q 806 1108 972 1025 q 464 1142 643 1193 q 197 929 285 1090 q 144 744 149 839 l 1049 744 m 553 665 l 53 665 q 121 971 47 814 q 438 1222 225 1158 q 846 1185 650 1285 q 1110 881 1043 1085 q 1136 665 1142 767 l 619 665 l 619 -39 q 587 -106 617 -79 q 515 -131 557 -132 q 449 -98 475 -128 q 424 -26 422 -68 l 424 206 l 489 206 l 489 61 q 528 65 507 67 q 556 61 542 65 l 553 665 m 556 -26 q 549 -11 553 -18 q 524 0 539 -1 q 500 -8 510 0 q 489 -31 490 -15 q 498 -54 489 -44 q 519 -65 507 -64 q 543 -56 533 -65 q 556 -35 553 -47 l 556 -26 z "},"★":{"ha":1499,"x_min":-1,"x_max":1493,"o":"m 458 396 l -1 729 l 568 729 l 746 1274 l 924 729 l 1493 729 l 1032 396 l 1210 -149 l 746 188 l 282 -149 l 458 396 z "},"☆":{"ha":1267,"x_min":47,"x_max":1694,"o":"m 1667 1153 l 1667 1154 l 1574 1156 l 1571 1154 l 1667 1153 m 204 -64 l 954 -64 l 949 -60 l 204 -64 m 975 -64 l 1649 -62 l 1692 7 l 1693 54 l 1690 51 l 1690 19 l 1689 51 l 1671 38 l 1632 -56 l 974 -60 l 975 -64 m 1688 0 l 1653 415 l 1653 1153 l 1671 1153 l 1690 1 l 1688 0 m 90 625 l 390 408 l 272 54 l 582 274 l 890 54 l 771 408 l 1076 629 l 700 629 l 582 985 l 464 629 l 90 629 l 90 625 m 86 678 l 425 678 l 576 1138 l 68 1133 l 86 678 m 579 1149 l 1565 1157 l 1567 1154 l 1571 1154 l 1560 1147 l 583 1138 l 733 678 l 1226 678 l 828 389 l 974 -60 l 949 -60 l 579 208 l 204 -64 l 183 -64 l 331 389 l 96 558 l 143 -64 l 129 -64 l 103 283 l 47 342 l 50 1138 l 72 1138 l 68 1144 l 579 1149 m 975 -64 l 982 -83 l 954 -64 l 975 -64 m 204 -64 l 178 -83 l 183 -64 l 204 -64 m 143 -64 l 143 -65 l 129 -65 l 129 -64 l 143 -64 z "}}}
